<svg width="192" height="192" viewBox="0 0 192 192" fill="none" xmlns="http://www.w3.org/2000/svg">
<g clip-path="url(#clip0)">
<circle cx="96.0597" cy="96.0606" r="94.0027" stroke="#007fde" stroke-width="3.87097"/>
<circle cx="96" cy="96" r="76.2581" stroke="#007fde" stroke-width="3.87097"/>
<g clip-path="url(#clip1)">
<path d="M75.0702 178.439C75.1413 178.093 75.2777 177.763 75.4721 177.468C75.6378 177.219 75.8552 177.008 76.1094 176.85C76.3508 176.702 76.6212 176.609 76.9021 176.575C77.2083 176.542 77.5181 176.561 77.8182 176.631C78.1152 176.697 78.3986 176.814 78.6561 176.976C78.8995 177.133 79.1064 177.341 79.2627 177.585C79.4255 177.839 79.5316 178.126 79.5737 178.426C79.6203 178.775 79.6012 179.13 79.5176 179.472C79.4458 179.817 79.3079 180.144 79.1116 180.436C78.9381 180.685 78.7148 180.896 78.4559 181.055C78.2124 181.199 77.9419 181.291 77.6611 181.326C77.3658 181.362 77.0664 181.345 76.7767 181.277C76.4835 181.21 76.2042 181.092 75.9517 180.928C75.7086 180.771 75.5018 180.564 75.3451 180.32C75.1753 180.073 75.0601 179.793 75.0073 179.499C74.9584 179.145 74.9797 178.784 75.0702 178.439ZM78.4777 179.231C78.5272 179.03 78.5452 178.823 78.531 178.617C78.5221 178.441 78.4798 178.268 78.4063 178.108C78.336 177.96 78.2321 177.83 78.103 177.728C77.9609 177.623 77.7987 177.548 77.6265 177.508C77.4544 177.469 77.276 177.465 77.1025 177.497C76.941 177.531 76.7895 177.602 76.6595 177.703C76.5227 177.813 76.4093 177.949 76.3259 178.104C76.1264 178.468 76.0302 178.88 76.0476 179.295C76.0576 179.472 76.1006 179.646 76.1743 179.807C76.2443 179.956 76.3497 180.086 76.4812 180.185C76.6234 180.29 76.7856 180.365 76.9577 180.405C77.1298 180.444 77.3082 180.448 77.4817 180.416C77.6424 180.379 77.7925 180.306 77.9206 180.203C78.0581 180.092 78.1726 179.955 78.2578 179.8C78.3585 179.622 78.4326 179.43 78.4777 179.231Z" fill="#007fde"/>
<path d="M74.0358 179.143C74.0265 179.205 74.0148 179.268 74.0007 179.333L73.9706 179.474C73.8939 179.752 73.7662 180.013 73.5941 180.245C73.438 180.456 73.2499 180.642 73.0366 180.795L72.4098 180.454C72.5515 180.28 72.6743 180.092 72.7762 179.892C72.8819 179.689 72.9663 179.474 73.0279 179.253L73.0457 179.2L73.0668 179.103L73.0927 178.989L73.1098 178.884L74.0358 179.143Z" fill="#007fde"/>
<path d="M68.6467 178.135C68.823 178.036 69.0426 177.913 69.3053 177.765C69.5681 177.618 69.8266 177.42 70.1091 177.224C70.3917 177.027 70.6681 176.82 70.9498 176.605C71.2314 176.39 71.4854 176.176 71.7178 175.974L69.492 175.264L69.7531 174.439L73.2007 175.522L73.0109 176.103C72.8254 176.278 72.6074 176.471 72.3514 176.682C72.0954 176.892 71.8374 177.098 71.5701 177.305C71.3029 177.512 71.0316 177.712 70.7598 177.902C70.4881 178.093 70.2447 178.258 70.0188 178.404L71.9778 179.026L71.7187 179.855L68.4627 178.836L68.6467 178.135Z" fill="#007fde"/>
<path d="M67.573 173.566C67.8065 173.653 68.0405 173.749 68.2673 173.85C68.5056 173.958 68.7349 174.084 68.9533 174.229L67.3981 178.39C67.169 178.347 66.9422 178.292 66.7189 178.225C66.477 178.157 66.2552 178.082 66.0518 178.007C65.8008 177.913 65.5578 177.798 65.3251 177.665C65.1283 177.555 64.9528 177.411 64.8069 177.239C64.6803 177.091 64.5944 176.912 64.5578 176.72C64.5278 176.508 64.5556 176.292 64.6383 176.096C64.6998 175.928 64.8066 175.781 64.9467 175.67C65.0869 175.56 65.255 175.49 65.4324 175.47C65.2287 175.314 65.0877 175.09 65.0354 174.838C65.0029 174.617 65.0295 174.391 65.1125 174.183C65.175 173.982 65.2876 173.801 65.4397 173.655C65.5917 173.51 65.7783 173.406 65.9817 173.353C66.5211 173.264 67.0751 173.338 67.573 173.566ZM67.0685 176.411L66.5958 176.235C66.3836 176.134 66.1487 176.091 65.9148 176.11C65.8417 176.124 65.7739 176.159 65.7187 176.209C65.6636 176.259 65.623 176.323 65.6014 176.395C65.569 176.466 65.5576 176.546 65.5686 176.624C65.5796 176.701 65.6126 176.775 65.6636 176.834C65.8161 176.985 66.0022 177.097 66.2065 177.161L66.4738 177.257C66.5678 177.29 66.6542 177.317 66.7309 177.336L67.0685 176.411ZM67.3413 175.674L67.7509 174.557C67.6845 174.523 67.6125 174.488 67.5313 174.453L67.2615 174.343C67.0248 174.246 66.7708 174.198 66.515 174.202C66.4141 174.21 66.3181 174.249 66.2399 174.313C66.1617 174.377 66.1051 174.464 66.0777 174.562C66.0395 174.644 66.0251 174.735 66.0364 174.826C66.0477 174.916 66.0841 175.001 66.1414 175.072C66.3044 175.241 66.5069 175.367 66.7307 175.438L67.3413 175.674Z" fill="#007fde"/>
<path d="M64.7674 172.531L62.9425 176.734L60.1004 175.483L60.4443 174.687L62.3342 175.524L62.6952 174.7L61.0177 173.972L61.3532 173.195L63.0328 173.927L63.4734 172.916L61.4424 172.03L61.7863 171.234L64.7674 172.531Z" fill="#007fde"/>
<path d="M58.6036 169.671C58.6178 169.848 58.6457 170.041 58.6781 170.251C58.7105 170.46 58.7583 170.68 58.8116 170.902C58.8649 171.123 58.9219 171.343 58.9917 171.56C59.0595 171.763 59.1396 171.962 59.2316 172.156L60.0935 170.419L61.0166 170.883L58.9721 174.982L58.0489 174.518L58.8188 172.98C58.4589 173.107 58.0886 173.248 57.7075 173.396L56.6664 173.809L55.5707 173.257C56.0125 173.066 56.4532 172.89 56.8908 172.725C57.3283 172.56 57.7771 172.398 58.2412 172.247C58.0428 171.778 57.8872 171.292 57.7765 170.795C57.6555 170.24 57.5694 169.678 57.5187 169.113L58.6036 169.671Z" fill="#007fde"/>
<path d="M54.7094 172.768L53.8085 172.268L56.0164 168.257L56.929 168.77L54.7094 172.768Z" fill="#007fde"/>
<path d="M53.5383 167.722C53.4346 167.658 53.3242 167.605 53.209 167.565C53.1295 167.54 53.0464 167.529 52.9633 167.532C52.8982 167.538 52.8359 167.561 52.7835 167.6C52.7317 167.639 52.6888 167.689 52.6576 167.747C52.6169 167.81 52.5945 167.884 52.5926 167.959C52.5908 168.035 52.6096 168.109 52.647 168.175C52.7692 168.411 52.9223 168.63 53.1022 168.826C53.2044 168.949 53.3014 169.079 53.3968 169.215C53.4856 169.348 53.5566 169.491 53.6081 169.642C53.6553 169.801 53.6716 169.968 53.6561 170.133C53.6363 170.318 53.5741 170.495 53.4744 170.652C53.3766 170.822 53.2414 170.968 53.0791 171.078C52.925 171.182 52.7495 171.25 52.5655 171.276C52.3673 171.303 52.1656 171.291 51.972 171.239C51.7477 171.174 51.5337 171.077 51.3367 170.951C51.1016 170.815 50.8873 170.646 50.7002 170.449C50.5645 170.305 50.444 170.146 50.3406 169.977L51.0148 169.433C51.0956 169.564 51.1877 169.689 51.29 169.805C51.4188 169.946 51.5681 170.067 51.7328 170.164C51.883 170.272 52.0602 170.337 52.2448 170.351C52.3067 170.353 52.3679 170.338 52.4218 170.308C52.4758 170.277 52.5204 170.233 52.5508 170.179C52.5919 170.116 52.6116 170.042 52.607 169.967C52.6028 169.89 52.5814 169.814 52.5444 169.746C52.5073 169.66 52.4611 169.577 52.4067 169.501C52.3581 169.414 52.2746 169.333 52.1979 169.238C52.0384 169.038 51.9074 168.856 51.8014 168.692C51.7016 168.545 51.6262 168.382 51.5782 168.21C51.5408 168.056 51.538 167.896 51.57 167.74C51.612 167.554 51.6852 167.377 51.7866 167.215C51.8763 167.048 52.0046 166.905 52.1608 166.798C52.317 166.69 52.4965 166.622 52.6846 166.597C53.1629 166.58 53.6343 166.718 54.0278 166.992C54.1848 167.088 54.3356 167.193 54.4796 167.308C54.6069 167.416 54.714 167.514 54.8009 167.602C54.8889 167.699 54.9615 167.787 55.021 167.867C55.0804 167.948 55.1101 168.026 55.1445 168.087L54.4744 168.639C54.3783 168.484 54.2678 168.337 54.1443 168.203C53.9653 168.015 53.7614 167.854 53.5383 167.722Z" fill="#007fde"/>
<path d="M46.3962 167.622L46.8775 166.877L48.0286 167.655L50.0879 164.577L50.9442 165.15L48.8849 168.227L50.036 169.005L49.5582 169.747L46.3962 167.622Z" fill="#007fde"/>
<path d="M43.6053 162.684C43.8111 162.398 44.0688 162.153 44.3651 161.963C44.6173 161.803 44.901 161.698 45.1971 161.657C45.4823 161.619 45.7726 161.644 46.0475 161.73C46.6355 161.921 47.1419 162.306 47.4839 162.822C47.6418 163.064 47.7465 163.337 47.791 163.622C47.8356 163.92 47.8158 164.224 47.7329 164.514C47.6341 164.853 47.4713 165.17 47.2533 165.447C47.0467 165.734 46.786 165.977 46.4858 166.163C46.2255 166.319 45.9359 166.42 45.635 166.46C45.3477 166.495 45.056 166.47 44.779 166.385C44.2043 166.205 43.7096 165.83 43.3792 165.325C43.2192 165.084 43.1143 164.811 43.0721 164.525C43.0287 164.225 43.0491 163.919 43.1318 163.628C43.2274 163.286 43.3882 162.965 43.6053 162.684ZM46.3986 164.793C46.5233 164.63 46.6247 164.45 46.6998 164.259C46.7589 164.091 46.7879 163.914 46.7852 163.736C46.7784 163.572 46.7352 163.412 46.6587 163.266C46.5763 163.108 46.4574 162.971 46.312 162.868C46.1721 162.765 46.0123 162.693 45.8431 162.656C45.6878 162.62 45.5263 162.621 45.3718 162.66C45.2019 162.704 45.0424 162.781 44.902 162.886C44.7382 163.01 44.5929 163.157 44.4704 163.323C44.3447 163.486 44.2439 163.667 44.1712 163.861C44.1077 164.028 44.0775 164.206 44.0822 164.385C44.086 164.551 44.1288 164.714 44.2071 164.861C44.2938 165.013 44.4118 165.146 44.5534 165.25C44.6928 165.353 44.8527 165.425 45.0223 165.461C45.178 165.492 45.3385 165.491 45.4936 165.457C45.6634 165.41 45.8231 165.331 45.9649 165.226C46.1302 165.104 46.2764 164.958 46.3986 164.793Z" fill="#007fde"/>
<path d="M41.9302 158.258C41.8098 158.847 41.7153 159.449 41.6467 160.063C41.5758 160.665 41.5393 161.27 41.5373 161.875L43.4842 159.601L44.2544 160.265L41.2791 163.743L40.6403 163.195C40.6247 162.99 40.6105 162.737 40.6236 162.474C40.6366 162.21 40.635 161.912 40.6534 161.608C40.6718 161.303 40.6958 161 40.723 160.686C40.7502 160.372 40.7855 160.072 40.8217 159.791L39.0617 161.842L38.2803 161.175L41.2612 157.698L41.9302 158.258Z" fill="#007fde"/>
<path d="M34.9721 158.064C34.5592 157.695 34.2625 157.213 34.1186 156.678C34.0793 156.461 34.0977 156.237 34.1719 156.028C34.2461 155.82 34.3735 155.635 34.5414 155.492C34.7294 155.281 34.9828 155.138 35.2613 155.088C35.5291 155.053 35.8015 155.094 36.0474 155.207C36.0606 155.062 36.0878 154.899 36.1162 154.722C36.1445 154.545 36.1913 154.367 36.234 154.181C36.2767 153.996 36.3307 153.814 36.3914 153.619C36.4521 153.423 36.5101 153.248 36.561 153.077L37.3757 153.896L37.232 154.399C37.1848 154.568 37.1396 154.741 37.0996 154.905L36.9975 155.39C36.9698 155.543 36.9473 155.688 36.9357 155.828L37.2934 156.187L38.4784 155.009L39.2077 155.743L36.0073 158.93C35.8129 158.797 35.6262 158.653 35.4482 158.499C35.2648 158.341 35.1188 158.19 34.9721 158.064ZM35.5482 157.404C35.5941 157.453 35.6427 157.501 35.6938 157.545C35.7381 157.582 35.7824 157.619 35.8211 157.654L36.7009 156.776L36.4968 156.572C36.3105 156.354 36.0728 156.186 35.8054 156.083C35.71 156.058 35.6098 156.061 35.5161 156.091C35.4224 156.121 35.3391 156.177 35.2756 156.252C35.1978 156.313 35.1396 156.396 35.1084 156.491C35.0772 156.585 35.0743 156.686 35.1 156.782C35.198 157.023 35.3546 157.235 35.5554 157.4L35.5482 157.404Z" fill="#007fde"/>
<path d="M36.0651 152.54L32.6566 155.592L30.5915 153.287L31.2362 152.707L32.6112 154.246L33.2791 153.648L32.0443 152.291L32.673 151.725L33.9099 153.085L34.7318 152.349L33.2731 150.686L33.9178 150.106L36.0651 152.54Z" fill="#007fde"/>
<path d="M31.9626 148.992C31.8879 148.897 31.8017 148.812 31.7061 148.738C31.6424 148.685 31.5688 148.646 31.4897 148.622C31.4262 148.604 31.3589 148.604 31.2955 148.622C31.2336 148.642 31.1762 148.675 31.1263 148.717C31.0686 148.764 31.024 148.826 30.997 148.896C30.97 148.966 30.9614 149.042 30.9721 149.116C31.0068 149.38 31.0766 149.638 31.1796 149.882C31.2313 150.034 31.2815 150.191 31.3225 150.348C31.3696 150.509 31.3915 150.676 31.3874 150.843C31.3801 151.003 31.3433 151.161 31.2788 151.307C31.1984 151.475 31.0786 151.62 30.9296 151.731C30.7795 151.858 30.6026 151.949 30.412 151.998C30.2321 152.044 30.044 152.049 29.8617 152.012C29.6663 151.968 29.481 151.887 29.3157 151.773C29.1216 151.636 28.948 151.471 28.8 151.285C28.6252 151.08 28.4819 150.85 28.3747 150.603C28.2855 150.417 28.2159 150.222 28.1669 150.022L28.9854 149.743C29.0194 149.893 29.0643 150.041 29.1197 150.185C29.1861 150.364 29.2805 150.532 29.3992 150.683C29.505 150.833 29.6478 150.954 29.8139 151.033C29.8731 151.053 29.9364 151.056 29.9972 151.043C30.0581 151.03 30.1142 151 30.1597 150.958C30.2193 150.914 30.264 150.852 30.2879 150.782C30.3069 150.706 30.3112 150.628 30.3007 150.551C30.2896 150.458 30.2696 150.366 30.241 150.276C30.1924 150.19 30.1737 150.072 30.1294 149.96C30.0511 149.719 29.9869 149.503 29.9406 149.311C29.9011 149.137 29.8868 148.958 29.898 148.78C29.9139 148.618 29.965 148.461 30.0475 148.321C30.1503 148.162 30.279 148.02 30.4284 147.903C30.5701 147.777 30.7398 147.686 30.9236 147.638C31.1073 147.59 31.2999 147.587 31.4855 147.628C31.943 147.773 32.34 148.066 32.6152 148.46C32.7303 148.602 32.8352 148.753 32.9293 148.91C33.0091 149.034 33.0815 149.163 33.146 149.296C33.1929 149.401 33.2316 149.509 33.2617 149.62C33.2867 149.715 33.3092 149.797 33.32 149.867L32.4984 150.158C32.4646 149.978 32.4107 149.803 32.338 149.636C32.2439 149.404 32.1175 149.188 31.9626 148.992Z" fill="#007fde"/>
<path d="M26.3513 148.019C26.006 147.589 25.7902 147.07 25.7291 146.522C25.7249 146.294 25.7807 146.068 25.891 145.868C26.0013 145.668 26.1621 145.5 26.3575 145.382C26.5313 145.233 26.741 145.132 26.9659 145.089C27.1907 145.046 27.423 145.062 27.6399 145.137C28.1413 145.369 28.5661 145.739 28.8643 146.205L29.0547 146.468L30.2937 145.564L30.904 146.398L27.2619 149.059C27.0855 148.895 26.9195 148.721 26.7649 148.536C26.6002 148.344 26.4641 148.169 26.3513 148.019ZM27.0221 147.443C27.0586 147.508 27.095 147.573 27.1583 147.618C27.2215 147.663 27.2467 147.725 27.2782 147.764L28.353 146.981L28.1627 146.717C28.0124 146.485 27.8097 146.292 27.5712 146.153C27.4723 146.111 27.3636 146.097 27.2577 146.115C27.1518 146.132 27.0531 146.18 26.9732 146.251C26.8812 146.313 26.8064 146.398 26.7559 146.496C26.717 146.583 26.7019 146.678 26.712 146.772C26.7243 146.884 26.7579 146.993 26.8108 147.092C26.8729 147.214 26.9435 147.331 27.0221 147.443Z" fill="#007fde"/>
<path d="M27.4625 141.312C27.6186 141.544 27.7314 141.802 27.7955 142.074C27.8474 142.302 27.8476 142.539 27.796 142.767C27.7413 142.985 27.6388 143.189 27.496 143.362C27.3383 143.556 27.1503 143.722 26.9395 143.855L24.5522 145.404L23.9984 144.552L26.3121 143.049C26.4489 142.967 26.5712 142.863 26.6743 142.742C26.7532 142.65 26.8121 142.542 26.8475 142.426C26.8783 142.322 26.8787 142.212 26.8486 142.108C26.8201 141.996 26.773 141.889 26.7093 141.792C26.6509 141.694 26.5729 141.609 26.4802 141.543C26.3876 141.477 26.2823 141.43 26.1709 141.406C26.0306 141.391 25.8886 141.403 25.7531 141.442C25.6176 141.482 25.4913 141.547 25.3815 141.636L23.0678 143.139L22.5023 142.275L24.906 140.721C25.1145 140.584 25.3434 140.479 25.5842 140.412C25.8042 140.354 26.0345 140.346 26.258 140.39C26.4896 140.434 26.7074 140.533 26.8934 140.678C27.1191 140.854 27.3117 141.069 27.4625 141.312Z" fill="#007fde"/>
<path d="M25.0944 137.498C25.2179 137.718 25.3414 137.939 25.463 138.155C25.5785 138.391 25.6787 138.634 25.7629 138.883L21.9244 141.119C21.7858 140.956 21.6436 140.77 21.4978 140.561C21.3234 140.36 21.2141 140.165 21.1088 139.978C20.9728 139.746 20.8558 139.504 20.7591 139.253C20.6771 139.045 20.6331 138.824 20.6292 138.6C20.6317 138.402 20.686 138.208 20.7866 138.038C20.8851 137.862 21.0276 137.715 21.2003 137.611C21.3544 137.52 21.5308 137.474 21.7098 137.477C21.8887 137.48 22.0634 137.533 22.2145 137.63C22.1567 137.38 22.187 137.118 22.3003 136.889C22.4178 136.698 22.5819 136.541 22.7772 136.431C22.9528 136.316 23.1551 136.247 23.365 136.231C23.5748 136.215 23.7853 136.254 23.9765 136.342C24.4558 136.607 24.8451 137.01 25.0944 137.498ZM22.9047 139.382L22.6576 138.942C22.5512 138.741 22.3975 138.568 22.2096 138.439C22.139 138.398 22.0579 138.379 21.9765 138.384C21.8952 138.389 21.8172 138.419 21.7525 138.468C21.6825 138.503 21.624 138.557 21.5838 138.624C21.5435 138.692 21.5231 138.769 21.5251 138.847C21.5521 139.052 21.6262 139.247 21.7416 139.418C21.7841 139.494 21.8307 139.577 21.8793 139.664C21.9279 139.75 21.9745 139.833 22.0309 139.892L22.9047 139.382ZM23.5886 138.998L24.6078 138.403C24.572 138.329 24.5321 138.258 24.4884 138.19C24.4458 138.114 24.3972 138.027 24.3466 137.937C24.2352 137.703 24.0764 137.495 23.8804 137.326C23.7967 137.268 23.6977 137.237 23.5963 137.238C23.4949 137.238 23.396 137.269 23.3128 137.326C23.2315 137.366 23.1631 137.428 23.1158 137.505C23.0685 137.582 23.0441 137.671 23.0455 137.761C23.0614 137.996 23.1395 138.222 23.2717 138.417L23.5886 138.998Z" fill="#007fde"/>
<path d="M21.4078 132.584L22.1962 132.184L23.5833 134.916L19.5057 136.987L19.0374 136.068L22.3266 134.397L21.4078 132.584Z" fill="#007fde"/>
<path d="M17.7317 133.413L17.2958 132.477L21.4473 130.554L21.8893 131.502L17.7317 133.413Z" fill="#007fde"/>
<path d="M19.9302 127.017C19.8263 127.161 19.7196 127.325 19.6083 127.506C19.497 127.687 19.3881 127.881 19.2833 128.082C19.1781 128.288 19.0835 128.5 18.9999 128.716C18.9141 128.909 18.8422 129.108 18.7849 129.311L20.5736 128.568L20.9679 129.523L16.7432 131.273L16.349 130.318L17.9404 129.662C17.5786 129.523 17.2076 129.385 16.8217 129.246L15.7495 128.87L15.28 127.739C15.7421 127.887 16.1914 128.039 16.6284 128.201C17.0653 128.364 17.5119 128.536 17.965 128.727C18.1173 128.243 18.3174 127.774 18.5624 127.329C18.832 126.827 19.1319 126.342 19.4603 125.876L19.9302 127.017Z" fill="#007fde"/>
<path d="M18.166 122.204L17.7598 122.518L17.3431 122.847L17.9287 124.539L18.4595 124.54L18.9769 124.534L19.3278 125.547C18.8063 125.546 18.3196 125.539 17.8935 125.522C17.4674 125.505 17.0269 125.496 16.6285 125.478C16.2301 125.459 15.8501 125.44 15.4861 125.407C15.122 125.374 14.7652 125.337 14.4197 125.304L14.099 124.378C14.3496 124.133 14.6073 123.884 14.8728 123.64C15.1382 123.396 15.4232 123.137 15.7231 122.878C16.023 122.62 16.364 122.333 16.6854 122.063C17.0069 121.792 17.4055 121.474 17.817 121.152L18.166 122.204ZM15.2162 124.539L15.5087 124.545L15.9328 124.559L16.4624 124.575C16.6576 124.585 16.8594 124.591 17.0678 124.591L16.6375 123.352L16.1678 123.729L15.7592 124.073L15.4398 124.347L15.2162 124.539Z" fill="#007fde"/>
<path d="M16.4834 119.401C16.4523 119.285 16.4084 119.172 16.3525 119.066C16.3109 118.992 16.2564 118.926 16.1913 118.872C16.1417 118.831 16.0814 118.806 16.0177 118.799C15.9513 118.794 15.8848 118.801 15.8208 118.819C15.7493 118.841 15.6845 118.881 15.632 118.935C15.5795 118.988 15.5409 119.054 15.5196 119.126C15.4517 119.383 15.4162 119.649 15.414 119.916C15.4088 120.082 15.3947 120.249 15.3717 120.414C15.3488 120.572 15.3027 120.726 15.235 120.87C15.1668 121.015 15.0707 121.144 14.9522 121.252C14.8172 121.379 14.6528 121.472 14.4735 121.52C14.2849 121.576 14.0862 121.591 13.8913 121.563C13.7122 121.536 13.5411 121.47 13.39 121.37C13.2258 121.254 13.0865 121.106 12.9805 120.935C12.8532 120.735 12.7566 120.518 12.6938 120.289C12.6164 120.03 12.5741 119.762 12.568 119.492C12.5674 119.292 12.5874 119.094 12.6277 118.898L13.4905 118.96C13.4606 119.111 13.444 119.265 13.4409 119.419C13.4372 119.611 13.4646 119.803 13.5221 119.986C13.5667 120.164 13.6583 120.327 13.7874 120.458C13.8326 120.5 13.8884 120.529 13.9487 120.541C14.009 120.553 14.0714 120.549 14.1292 120.528C14.2037 120.512 14.2717 120.474 14.3236 120.418C14.3713 120.358 14.4063 120.288 14.4263 120.214C14.4521 120.124 14.4687 120.032 14.4758 119.939C14.4857 119.839 14.4931 119.725 14.5001 119.603C14.5197 119.376 14.5512 119.151 14.5947 118.928C14.6258 118.747 14.688 118.572 14.7784 118.412C14.855 118.27 14.962 118.147 15.0918 118.051C15.2486 117.943 15.4229 117.863 15.6072 117.814C15.7874 117.753 15.9797 117.735 16.1683 117.763C16.3568 117.791 16.536 117.863 16.6911 117.974C17.0543 118.289 17.3044 118.713 17.4029 119.183C17.4554 119.359 17.4945 119.539 17.5197 119.72C17.5415 119.87 17.555 120.021 17.5603 120.172C17.5573 120.302 17.552 120.419 17.5401 120.516C17.5009 120.591 17.4562 120.664 17.4064 120.733L16.5385 120.679C16.629 120.255 16.6069 119.814 16.4742 119.401L16.4834 119.401Z" fill="#007fde"/>
<path d="M12.0886 117.668L11.8381 116.665L16.2934 115.588L16.5383 116.589L12.0886 117.668Z" fill="#007fde"/>
<path d="M10.9168 112.376C11.0466 112.27 11.2072 112.152 11.4002 112.015C11.5932 111.878 11.8022 111.727 12.0296 111.576C12.257 111.425 12.4881 111.271 12.7191 111.118L13.3915 110.688L12.6115 110.505C12.3348 110.442 12.0652 110.375 11.8029 110.304C11.5406 110.233 11.2915 110.168 11.0645 110.101C10.8375 110.034 10.6422 109.973 10.4879 109.917L10.328 108.992C10.6212 108.898 10.9492 108.8 11.3141 108.699C11.679 108.599 12.0587 108.499 12.4589 108.403L13.6477 108.134C14.0463 108.043 14.4229 107.955 14.7779 107.879L14.9465 108.871L13.5308 109.149C13.0203 109.26 12.5047 109.378 11.9844 109.514L12.613 109.664L13.3259 109.838C13.5653 109.893 13.7934 109.945 14.0088 110L14.5591 110.137L14.7054 110.862L14.2269 111.173L13.6409 111.554L13.0261 111.951L12.4632 112.315C12.9973 112.271 13.5152 112.199 14.0432 112.144C14.5712 112.09 15.0446 112.014 15.4835 111.953L15.6577 112.946L14.5207 113.063C14.1106 113.108 13.7041 113.151 13.2991 113.188C12.8942 113.226 12.4984 113.263 12.1207 113.29C11.743 113.317 11.4017 113.333 11.0933 113.34L10.9168 112.376Z" fill="#007fde"/>
<path d="M14.3526 103.824L13.8804 104.037L13.4015 104.263L13.5925 106.054L14.1106 106.176L14.6134 106.287L14.7355 107.348C14.225 107.231 13.757 107.114 13.3244 107.001C12.8918 106.888 12.4816 106.782 12.0971 106.67C11.7126 106.559 11.3506 106.453 11.001 106.336C10.6514 106.22 10.317 106.113 9.98384 105.992L9.88271 105.019C10.1887 104.847 10.5018 104.671 10.8185 104.494C11.1353 104.316 11.4664 104.13 11.812 103.936C12.1575 103.742 12.544 103.553 12.9413 103.359C13.3386 103.164 13.7775 102.951 14.2492 102.729L14.3526 103.824ZM10.9599 105.42L11.2371 105.492L11.6493 105.602L12.1627 105.741C12.3483 105.794 12.5468 105.844 12.7468 105.888L12.6078 104.595L12.062 104.854L11.5892 105.091L11.2292 105.293L10.9599 105.42Z" fill="#007fde"/>
<path d="M9.49861 99.5028L9.45574 98.4735L14.0317 98.2772L14.0766 99.3101L12.1355 99.3938L12.2163 101.123L14.1538 101.041L14.2023 102.072L9.62629 102.268L9.58342 101.239L11.3308 101.165L11.2516 99.4297L9.49861 99.5028Z" fill="#007fde"/>
<path d="M14.0555 94.0695L13.5657 94.2258L13.0636 94.3938L13.0364 96.1836L13.5412 96.3747L14.0268 96.5482L14.0125 97.619C13.5148 97.4239 13.0671 97.2671 12.6507 97.1071C12.2342 96.947 11.8454 96.7857 11.4755 96.6327C11.1057 96.4797 10.7578 96.3239 10.4289 96.1764C10.1 96.0289 9.78341 95.8697 9.45965 95.7146L9.48293 94.7526C9.80305 94.6061 10.1308 94.4648 10.4642 94.3251C10.7976 94.1854 11.151 94.0392 11.527 93.8994C11.9029 93.7595 12.3076 93.6035 12.704 93.4664C13.1004 93.3293 13.584 93.1622 14.079 92.9983L14.0555 94.0695ZM10.4965 95.2512L10.7678 95.3551C10.8812 95.4053 11.0131 95.4547 11.1602 95.5144L11.6543 95.7115C11.8331 95.7883 12.0216 95.8628 12.2199 95.9349L12.2229 94.6332L11.6499 94.8267L11.1539 95.0055L10.7615 95.1499L10.4965 95.2512Z" fill="#007fde"/>
<path d="M13.4469 89.1824L14.3338 89.2444L14.1281 92.3016L9.55858 91.9866L9.62032 90.9413L13.305 91.1979L13.4469 89.1824Z" fill="#007fde"/>
<path d="M13.8756 85.35L14.7514 85.4515L14.408 88.4911L9.8522 87.9643L9.97266 86.9478L13.6434 87.3735L13.8756 85.35Z" fill="#007fde"/>
<path d="M15.3954 81.4887C15.2282 81.5114 15.0575 81.5361 14.8851 81.5664L14.3544 81.6413L14.0604 83.4195L14.5259 83.6754C14.6836 83.7624 14.8373 83.8422 14.9833 83.9169L14.8016 84.9678C14.3417 84.7135 13.9197 84.4759 13.5354 84.2551C13.1511 84.0343 12.7821 83.8239 12.4464 83.6138C12.1107 83.4037 11.7827 83.1987 11.4828 83.0017C11.1828 82.8047 10.8789 82.6005 10.5934 82.3955L10.757 81.4306C11.0963 81.335 11.4432 81.2447 11.7921 81.1579C12.141 81.0712 12.5176 80.9832 12.9055 80.8983C13.2933 80.8135 13.7109 80.7309 14.159 80.6692C14.6072 80.6074 15.0735 80.5022 15.5889 80.4169L15.3954 81.4887ZM11.6962 82.1086C11.7589 82.1445 11.8426 82.1924 11.9436 82.2543L12.3111 82.4704C12.4519 82.5526 12.6024 82.6437 12.7682 82.7451L13.2934 83.0482L13.515 81.7566L12.9191 81.8586L12.399 81.9608L11.9762 82.051L11.6962 82.1086Z" fill="#007fde"/>
<path d="M16.4164 76.764C15.9989 76.8465 15.5714 76.9283 15.1341 77.0093C14.6992 77.0779 14.2603 77.1392 13.8194 77.1969C13.3784 77.2547 12.9775 77.2994 12.5838 77.3401C12.1901 77.3808 11.8457 77.4081 11.5397 77.428L11.8149 76.3245L12.7232 76.256L13.696 76.1844L14.6161 76.0949C14.9124 76.0662 15.1677 76.032 15.3878 75.9939C15.2129 75.8596 15.0125 75.7301 14.7611 75.5438C14.5098 75.3575 14.2562 75.2009 13.9962 75.0242C13.7361 74.8476 13.4571 74.6626 13.1878 74.4864C12.9184 74.3102 12.6644 74.1443 12.4369 73.9921L12.7048 72.926C12.9628 73.0991 13.2551 73.2909 13.5784 73.5127C13.9017 73.7345 14.248 73.9719 14.5988 74.2257C14.9495 74.4796 15.31 74.7423 15.6673 75.0162C16.0246 75.2901 16.3747 75.568 16.6982 75.8324L16.4164 76.764Z" fill="#007fde"/>
<path d="M18.0922 70.8698C17.9257 70.8683 17.752 70.8709 17.5768 70.8791L17.0434 70.8986L16.5207 72.6154C16.6645 72.7198 16.8067 72.8297 16.9505 72.9341C17.0942 73.0384 17.2324 73.1412 17.3701 73.2347L17.0478 74.2459C16.6257 73.9325 16.2363 73.6434 15.8846 73.3711C15.5329 73.0987 15.2001 72.8348 14.8883 72.5828C14.5764 72.3308 14.2871 72.0852 14.0058 71.854C13.7246 71.6228 13.4649 71.3795 13.2053 71.1362L13.4943 70.2006C13.8414 70.1528 14.1962 70.1102 14.5606 70.0764C14.9251 70.0427 15.3019 69.9972 15.6981 69.9694C16.0943 69.9415 16.5161 69.9088 16.9625 69.886C17.4088 69.8632 17.8849 69.8427 18.4147 69.8252L18.0922 70.8698ZM14.343 70.9957C14.3986 71.0357 14.4755 71.0969 14.5698 71.1721L14.9163 71.4521L15.3336 71.7824L15.8122 72.1543L16.1986 70.9031L15.597 70.9276L15.0661 70.96L14.6422 70.9891L14.343 70.9957Z" fill="#007fde"/>
<path d="M18.7135 62.6922C19.0426 62.8193 19.3452 63.0066 19.6058 63.2447C19.8261 63.4464 20.0013 63.6925 20.12 63.9667C20.2373 64.2374 20.2921 64.531 20.2803 64.8257C20.2665 65.1321 20.2006 65.4339 20.0853 65.718C19.9695 65.9939 19.8052 66.2468 19.6004 66.4647C19.4149 66.6752 19.1868 66.8436 18.9311 66.9589C18.6548 67.0795 18.3556 67.139 18.054 67.1334C17.6994 67.1296 17.3487 67.0574 17.0211 66.9208C16.6905 66.7952 16.3878 66.6056 16.1303 66.3628C15.9103 66.1515 15.7367 65.8967 15.6205 65.6146C15.5037 65.3437 15.449 65.0502 15.4602 64.7557C15.4675 64.4593 15.5297 64.1669 15.6436 63.8935C15.7526 63.6118 15.9116 63.3522 16.1129 63.1272C16.3048 62.9115 16.5412 62.7399 16.8057 62.6244C17.0835 62.5064 17.383 62.4482 17.6849 62.4535C18.0397 62.4665 18.3889 62.5475 18.7135 62.6922ZM17.4149 65.9359C17.6033 66.0108 17.801 66.0595 18.0026 66.0805C18.1783 66.0979 18.3557 66.082 18.5254 66.0337C18.6829 65.9903 18.8274 65.9092 18.9465 65.7973C19.0732 65.6737 19.1726 65.525 19.2384 65.3605C19.3043 65.1961 19.3351 65.0197 19.3289 64.8425C19.3215 64.679 19.2757 64.5194 19.1952 64.3767C19.1069 64.2239 18.9899 64.0898 18.8505 63.9818C18.6889 63.8534 18.5094 63.7496 18.3177 63.6736C18.1279 63.5996 17.929 63.5516 17.7264 63.531C17.5507 63.5136 17.3733 63.5295 17.2036 63.5777C17.0448 63.6218 16.8992 63.7036 16.7789 63.8162C16.6513 63.9387 16.5525 64.0882 16.4896 64.2537C16.4226 64.4092 16.3926 64.5783 16.4022 64.7475C16.4117 64.9167 16.4605 65.0815 16.5446 65.2287C16.6353 65.3819 16.7542 65.5164 16.8949 65.6252C17.0516 65.7544 17.227 65.8592 17.4149 65.9359Z" fill="#007fde"/>
<path d="M17.0874 60.7819L17.5095 59.8474L21.6826 61.7752L21.2605 62.7097L17.0874 60.7819Z" fill="#007fde"/>
<path d="M22.7422 57.5744L23.5326 57.9706L22.1631 60.7084L18.0595 58.6515L18.523 57.7317L21.8234 59.395L22.7422 57.5744Z" fill="#007fde"/>
<path d="M25.4937 54.4737L24.9698 54.3835L24.4438 54.2897L23.576 55.8301C23.6934 55.9635 23.8073 56.0988 23.9248 56.2322C24.0422 56.3655 24.1576 56.4953 24.269 56.6178L23.7393 57.5462C23.3946 57.1513 23.0825 56.7809 22.7958 56.4388C22.5092 56.0968 22.2398 55.7688 21.9975 55.4636C21.7552 55.1583 21.5144 54.8475 21.2986 54.5558C21.0828 54.2641 20.8727 53.9741 20.6753 53.6815L21.1502 52.8409C21.4973 52.869 21.8638 52.9148 22.2145 52.9409C22.5653 52.967 22.9527 53.0247 23.3493 53.082C23.746 53.1393 24.1595 53.2014 24.6031 53.275C25.0468 53.3486 25.5346 53.4164 26.0585 53.5066L25.4937 54.4737ZM21.7975 53.7918C21.8299 53.8495 21.8909 53.9244 21.9805 54.0165C22.0392 54.1211 22.1476 54.2216 22.2478 54.3409C22.3479 54.4603 22.4638 54.5992 22.5821 54.7511C22.7005 54.9029 22.8458 55.0775 22.973 55.2197L23.6219 54.082L23.0477 53.9868L22.5258 53.9002L22.1031 53.8385L21.7975 53.7918Z" fill="#007fde"/>
<path d="M28.0894 50.3785C27.4903 50.34 26.8828 50.3204 26.2675 50.3289C25.658 50.3352 25.0495 50.3774 24.445 50.4552L26.9535 52.1075L26.3977 52.9556L22.5757 50.4559L23.0352 49.7567C23.2348 49.7158 23.4661 49.6809 23.7455 49.6474C24.0249 49.6139 24.3084 49.5877 24.6087 49.5662C24.909 49.5447 25.2155 49.534 25.5311 49.5229C25.8467 49.5118 26.148 49.5087 26.4247 49.4958L24.1682 48.0057L24.7292 47.1499L28.5613 49.6676L28.0894 50.3785Z" fill="#007fde"/>
<path d="M25.5096 46.0524L26.1104 45.2169L29.8287 47.903L29.2279 48.7384L25.5096 46.0524Z" fill="#007fde"/>
<path d="M32.534 40.7903C32.7623 40.9748 32.9623 41.1919 33.1276 41.4346C33.2685 41.6458 33.3724 41.8795 33.435 42.1255C33.4945 42.355 33.5111 42.5933 33.4841 42.8287C33.4546 43.0662 33.3859 43.2972 33.2808 43.5121C33.3619 43.5509 33.4541 43.5597 33.5409 43.537C33.6417 43.5062 33.7373 43.4605 33.8246 43.4015C33.942 43.3253 34.0511 43.2371 34.1501 43.1381C34.2614 43.0329 34.3759 42.9164 34.4992 42.7903L34.9468 43.4358C34.7517 43.6584 34.5371 43.8631 34.3054 44.0473C34.1305 44.1829 33.9364 44.2919 33.7295 44.3705C33.561 44.439 33.3786 44.4665 33.1972 44.4511C33.0165 44.4359 32.8394 44.391 32.673 44.3183C32.4807 44.5015 32.2585 44.6503 32.0159 44.7583C31.7785 44.8638 31.5222 44.9205 31.2623 44.9251C30.987 44.9278 30.7136 44.8784 30.4564 44.7797C30.1585 44.6626 29.8819 44.4973 29.6374 44.2904C29.3607 44.0691 29.1299 43.7956 28.9583 43.4854C28.8119 43.2189 28.7226 42.9248 28.6961 42.622C28.6739 42.3341 28.7114 42.0449 28.8063 41.7725C28.9055 41.4919 29.0543 41.2315 29.2458 41.0039C29.4356 40.7697 29.6657 40.5714 29.9254 40.4184C30.1712 40.2767 30.444 40.1882 30.7263 40.1586C31.0269 40.1292 31.3305 40.1642 31.6169 40.2613C31.9537 40.3768 32.2651 40.5565 32.534 40.7903ZM30.2981 43.4688C30.4558 43.6012 30.6318 43.7102 30.8205 43.7924C30.9819 43.8631 31.1551 43.9027 31.331 43.9091C31.4946 43.9121 31.6567 43.8779 31.805 43.8091C31.965 43.7313 32.1055 43.6184 32.216 43.4788C32.3286 43.3435 32.411 43.1856 32.4578 43.0157C32.5025 42.8582 32.5083 42.6921 32.4748 42.5316C32.4354 42.36 32.3648 42.197 32.2664 42.0508C32.1505 41.8799 32.0103 41.7268 31.8504 41.5963C31.6908 41.4644 31.5145 41.3544 31.3259 41.2692C31.1627 41.2005 30.9886 41.1617 30.8119 41.1544C30.6471 41.1508 30.4839 41.187 30.3363 41.2601C30.1782 41.3379 30.0387 41.4486 29.9269 41.5848C29.8119 41.7196 29.7298 41.8794 29.6871 42.0515C29.6449 42.2088 29.6403 42.3739 29.6737 42.5335C29.7126 42.7053 29.7833 42.8684 29.882 43.0144C30 43.1904 30.1428 43.3484 30.3062 43.4833L30.2981 43.4688Z" fill="#007fde"/>
<path d="M36.2374 36.8135C36.5002 37.0506 36.7161 37.3351 36.8738 37.652C37.0032 37.9218 37.0761 38.2152 37.0878 38.514C37.0934 38.8028 37.0361 39.0891 36.9199 39.3532C36.7935 39.6366 36.6184 39.8955 36.4025 40.1181C36.1969 40.3396 35.9535 40.5228 35.6838 40.6591C35.4274 40.7892 35.146 40.863 34.8586 40.8756C34.564 40.8871 34.2701 40.8352 33.9969 40.7235C33.6709 40.5875 33.3738 40.3903 33.1217 40.1425C32.858 39.9046 32.6446 39.6162 32.4941 39.2943C32.3664 39.019 32.297 38.7203 32.2904 38.417C32.283 38.1271 32.3397 37.8394 32.4564 37.5742C32.5704 37.3002 32.7322 37.0488 32.9341 36.8316C33.1401 36.6104 33.3834 36.4273 33.6529 36.2905C33.9097 36.1602 34.192 36.0875 34.4801 36.0776C34.7814 36.0698 35.0812 36.1244 35.3606 36.2381C35.6872 36.3714 35.985 36.5668 36.2374 36.8135ZM33.8415 39.3588C33.9911 39.5002 34.16 39.6195 34.3433 39.713C34.4992 39.7948 34.6693 39.8459 34.8443 39.8635C35.0079 39.8751 35.1721 39.851 35.3253 39.7928C35.488 39.7246 35.6337 39.6217 35.7525 39.4913C35.8763 39.3645 35.9699 39.2114 36.0265 39.0434C36.079 38.8836 36.0923 38.7134 36.0651 38.5472C36.0401 38.3724 35.9797 38.2045 35.8875 38.0538C35.7848 37.8757 35.6547 37.715 35.5019 37.5775C35.354 37.4333 35.1854 37.312 35.0017 37.2178C34.8444 37.134 34.6722 37.0823 34.495 37.0656C34.3317 37.0525 34.1676 37.0779 34.0161 37.14C33.8528 37.2065 33.7063 37.3082 33.5869 37.4378C33.4619 37.5647 33.3687 37.7195 33.3149 37.8894C33.2629 38.0487 33.2509 38.2184 33.2799 38.3835C33.3059 38.5595 33.367 38.7285 33.4595 38.8806C33.5636 39.0572 33.6923 39.2183 33.8415 39.3588Z" fill="#007fde"/>
<path d="M36.1469 35.5644C36.097 35.526 36.045 35.484 35.9966 35.44C35.9482 35.3959 35.9152 35.3623 35.8938 35.3411C35.6904 35.1358 35.5285 34.8932 35.417 34.6266C35.3133 34.385 35.2478 34.1289 35.2227 33.8673L35.8333 33.4962C35.9115 33.7064 36.0118 33.9077 36.1326 34.0968C36.2546 34.291 36.396 34.4724 36.5547 34.638C36.565 34.6527 36.5739 34.6684 36.581 34.6849C36.5952 34.7102 36.6114 34.739 36.6528 34.7537L36.7399 34.833L36.8209 34.9014L36.1469 35.5644Z" fill="#007fde"/>
<path d="M41.4897 33.8416L42.0894 34.4967L39.8268 36.5544L36.7433 33.1609L37.5025 32.4643L39.9884 35.2063L41.4897 33.8416Z" fill="#007fde"/>
<path d="M44.4481 31.3792L45.0158 32.0616L42.6592 34.0108L39.7298 30.4786L40.5261 29.8228L42.8842 32.6745L44.4481 31.3792Z" fill="#007fde"/>
<path d="M48.2156 29.6582C48.0795 29.5591 47.9398 29.4619 47.7924 29.3596L47.3615 29.0558L45.9232 30.1194L46.0699 30.6254C46.1226 30.7951 46.1768 30.9592 46.2306 31.1141L45.3724 31.7524C45.2148 31.2525 45.0755 30.785 44.9493 30.3577C44.823 29.9304 44.7206 29.5371 44.6081 29.1258C44.4955 28.7145 44.4158 28.3702 44.3321 28.0186C44.2484 27.667 44.1774 27.313 44.1106 26.9662L44.9202 26.3932C45.2296 26.5564 45.5414 26.7325 45.8573 26.9157C46.1732 27.099 46.4988 27.2911 46.838 27.4992C47.1773 27.7073 47.5524 27.9286 47.9088 28.184C48.2652 28.4394 48.6738 28.7035 49.117 28.9956L48.2156 29.6582ZM45.1273 27.5295C45.1618 27.5909 45.1759 27.692 45.2095 27.8108C45.243 27.9296 45.2774 28.0668 45.322 28.2221L45.4652 28.7301C45.5151 28.9203 45.5707 29.1121 45.6324 29.3147L46.6836 28.5396L46.1623 28.2012C46.0055 28.0962 45.8566 27.9995 45.7155 27.9111L45.3568 27.6854L45.1273 27.5295Z" fill="#007fde"/>
<path d="M50.9615 27.8796C50.7419 28.0029 50.5381 28.1457 50.3205 28.2726C50.0921 28.399 49.8554 28.5097 49.6119 28.6039L47.1725 24.8822C47.3426 24.7209 47.5209 24.5685 47.7068 24.4257C47.9052 24.2732 48.0946 24.1384 48.275 24.0213C48.4962 23.8684 48.7311 23.7365 48.9769 23.6273C49.1797 23.5328 49.3981 23.4761 49.6214 23.4601C49.8165 23.4485 50.0115 23.4858 50.1888 23.5686C50.3806 23.6593 50.5446 23.8 50.6636 23.9759C50.7621 24.1261 50.8171 24.3007 50.8226 24.4802C50.8281 24.6597 50.7839 24.8371 50.6947 24.9927C50.9419 24.9215 51.2065 24.9413 51.4408 25.0484C51.6387 25.1531 51.8057 25.3081 51.925 25.4978C52.0498 25.6676 52.1296 25.8663 52.1566 26.0753C52.1836 26.2843 52.1571 26.4966 52.0794 26.6922C51.8364 27.1929 51.4464 27.6072 50.9615 27.8796ZM48.9657 25.783L49.385 25.5097C49.5885 25.3953 49.7604 25.232 49.885 25.0344C49.9211 24.9632 49.9358 24.8831 49.9273 24.8036C49.9188 24.7242 49.8876 24.6489 49.8373 24.5867C49.7993 24.5179 49.7424 24.4612 49.6734 24.4235C49.6045 24.3857 49.5262 24.3684 49.4478 24.3736C49.2374 24.409 49.0383 24.4932 48.8663 24.6194L48.6301 24.7804L48.4123 24.9406L48.9657 25.783ZM49.3972 26.4422L50.0448 27.4357L50.2608 27.3145L50.5128 27.173C50.7312 27.0412 50.9191 26.8646 51.0643 26.6547C51.1185 26.5688 51.1448 26.4682 51.1395 26.3666C51.1342 26.2651 51.0976 26.1676 51.0348 26.0876C50.9911 26.0085 50.926 25.9433 50.847 25.8995C50.768 25.8557 50.6783 25.8351 50.5882 25.8401C50.3589 25.8648 50.1393 25.9457 49.9488 26.0757L49.3972 26.4422Z" fill="#007fde"/>
<path d="M51.7533 24.0285L53.3991 23.0477L53.8581 23.8149L52.2164 24.8029L51.7533 24.0285Z" fill="#007fde"/>
<path d="M58.2241 20.9086C58.368 21.1657 58.4725 21.4429 58.5342 21.731C58.5842 21.9805 58.5936 22.2364 58.562 22.4888C58.5273 22.7221 58.452 22.9475 58.3393 23.1546C58.2232 23.364 58.0731 23.5525 57.8951 23.7124C57.9545 23.7778 58.0352 23.82 58.1228 23.8313C58.2274 23.844 58.3334 23.8391 58.4364 23.8166C58.5741 23.7868 58.7088 23.7445 58.8388 23.6903C58.972 23.6156 59.1326 23.5729 59.2955 23.5004L59.4641 24.2646C59.1996 24.3984 58.9233 24.5074 58.6387 24.5903C58.4268 24.6541 58.2063 24.685 57.985 24.6821C57.799 24.6872 57.6145 24.6476 57.4468 24.5666C57.2854 24.4849 57.1394 24.3759 57.015 24.2444C56.7661 24.3392 56.5032 24.3922 56.2369 24.4012C55.9779 24.4095 55.7199 24.3656 55.478 24.2721C55.215 24.1755 54.9725 24.0298 54.7637 23.8427C54.5312 23.6217 54.3378 23.3628 54.1919 23.0771C54.0165 22.7686 53.9043 22.4283 53.862 22.0761C53.8288 21.7746 53.8573 21.4696 53.9458 21.1798C54.0371 20.8969 54.1884 20.6372 54.3893 20.4184C54.587 20.1979 54.8213 20.0134 55.082 19.873C55.3477 19.7293 55.6364 19.6331 55.9353 19.5886C56.2218 19.5464 56.5142 19.5668 56.7924 19.6483C57.0803 19.7359 57.3473 19.8815 57.577 20.0762C57.8429 20.3106 58.0625 20.593 58.2241 20.9086ZM55.1466 22.5602C55.2421 22.7417 55.363 22.9087 55.5055 23.0562C55.6296 23.1821 55.7763 23.2833 55.938 23.3544C56.0875 23.4209 56.2505 23.4514 56.4138 23.4431C56.5915 23.429 56.7642 23.3773 56.9204 23.2916C57.076 23.2097 57.2118 23.0946 57.3181 22.9545C57.4184 22.824 57.4852 22.6708 57.5127 22.5084C57.5434 22.3356 57.5404 22.1584 57.5039 21.9867C57.4552 21.7871 57.3779 21.5955 57.2745 21.4179C57.1777 21.234 57.0555 21.0646 56.9116 20.9147C56.7876 20.7888 56.6408 20.6876 56.4791 20.6165C56.3282 20.5505 56.164 20.5208 55.9997 20.5298C55.8231 20.5421 55.6513 20.5932 55.4967 20.6793C55.3385 20.7598 55.2012 20.8759 55.0954 21.0184C54.9982 21.1507 54.9335 21.3041 54.9064 21.4661C54.8762 21.6415 54.8806 21.8212 54.9193 21.995C54.9673 22.1934 55.0439 22.3838 55.1466 22.5602Z" fill="#007fde"/>
<path d="M61.8136 21.864C61.5561 21.9876 61.2788 22.0645 60.9944 22.0913C60.7675 22.1106 60.539 22.0766 60.3272 21.992C60.1154 21.9075 59.9261 21.7747 59.7743 21.6043C59.607 21.4182 59.4695 21.2073 59.3666 20.9791L58.1676 18.3877L59.1044 17.9568L60.2644 20.4704C60.3295 20.6163 60.4166 20.7515 60.5225 20.8711C60.6014 20.9641 60.6997 21.0385 60.8105 21.0891C60.9081 21.1327 61.0156 21.1494 61.1217 21.1374C61.2364 21.1252 61.3481 21.093 61.4517 21.0423C61.5557 21 61.65 20.9369 61.7288 20.8568C61.8075 20.7767 61.8691 20.6813 61.9097 20.5765C61.9448 20.4401 61.9526 20.2981 61.9328 20.1586C61.913 20.0191 61.8659 19.8849 61.7942 19.7635L60.6116 17.2436L61.5484 16.8127L62.7714 19.4047C62.8795 19.6326 62.9507 19.8761 62.9823 20.1262C63.01 20.3519 62.9864 20.5809 62.9133 20.796C62.8343 21.0176 62.7056 21.2181 62.537 21.382C62.3268 21.585 62.0818 21.7483 61.8136 21.864Z" fill="#007fde"/>
<path d="M65.7305 20.0638C65.4164 19.7656 65.1059 19.4654 64.799 19.1632C64.4921 18.861 64.1742 18.5223 63.8776 18.2048C63.5811 17.8873 63.3034 17.5782 63.0431 17.2831C62.7827 16.9879 62.555 16.7172 62.3568 16.4821L63.4164 16.0676C63.5896 16.2835 63.7858 16.515 63.9958 16.7625C64.2057 17.01 64.4172 17.2519 64.6307 17.4974C64.8443 17.7429 65.0441 17.9723 65.2398 18.1946C65.4356 18.4168 65.6095 18.6086 65.7724 18.7639C65.7765 18.5434 65.7751 18.288 65.7699 17.992L65.7428 17.0582C65.7326 16.7366 65.7204 16.4113 65.7046 16.088C65.6888 15.7647 65.676 15.4635 65.6595 15.1644L66.679 14.7629C66.6924 15.0733 66.7039 15.4227 66.7156 15.8147C66.7274 16.2066 66.7312 16.6267 66.734 17.0617C66.7367 17.4967 66.7287 17.9377 66.7175 18.39C66.7063 18.8423 66.685 19.2765 66.6576 19.7L65.7305 20.0638Z" fill="#007fde"/>
<path d="M70.5052 18.3326C70.2127 18.0223 69.9274 17.708 69.6255 17.3556C69.3235 17.0031 69.0413 16.6776 68.7623 16.3407C68.4833 16.0039 68.2349 15.6878 67.982 15.3553C67.7291 15.0228 67.5279 14.7656 67.3457 14.5168L68.4289 14.1698C68.5898 14.3974 68.768 14.6389 68.9619 14.9002C69.1559 15.1614 69.3514 15.417 69.5506 15.6705C69.7497 15.9241 69.9356 16.1709 70.1153 16.4068C70.2951 16.6428 70.4619 16.8386 70.6124 17.0056C70.6313 16.7862 70.6402 16.5155 70.6544 16.2371C70.6685 15.9587 70.6784 15.6306 70.6866 15.308L70.7135 14.344C70.7182 14.0234 70.7218 13.7178 70.7211 13.4382L71.7642 13.1042L71.7342 14.1554C71.7203 14.5522 71.7125 14.9599 71.6747 15.3986C71.637 15.8374 71.6177 16.2752 71.5768 16.7252C71.5359 17.1752 71.4905 17.6087 71.437 18.0278L70.5052 18.3326Z" fill="#007fde"/>
<path d="M76.3874 16.6346C76.3063 16.4903 76.2033 16.3488 76.1018 16.2018C76.0003 16.0547 75.9045 15.9092 75.803 15.7622L74.0761 16.2191C74.0606 16.3939 74.0507 16.5702 74.0373 16.7486C74.0238 16.927 74.0119 17.0997 74.0052 17.2648L72.9701 17.5374C73.0074 17.0135 73.0509 16.5289 73.1006 16.0834C73.1435 15.637 73.1878 15.2184 73.235 14.8218C73.2822 14.4252 73.3359 14.0487 73.3885 13.687C73.4411 13.3254 73.5018 12.9782 73.5738 12.6341L74.5175 12.3843C74.7452 12.655 74.9714 12.9314 75.1979 13.217C75.4245 13.5026 75.6556 13.8047 75.8932 14.1268C76.1308 14.4489 76.3847 14.7999 76.6268 15.1384C76.8689 15.477 77.1616 15.9058 77.4528 16.3402L76.3874 16.6346ZM74.2911 13.541C74.2871 13.6097 74.2752 13.7065 74.2626 13.8275L74.2203 14.2497L74.1529 14.7621L74.0936 15.3647L75.3586 15.0295C75.2553 14.8455 75.1237 14.6869 75.0125 14.531C74.9013 14.3751 74.7999 14.2281 74.7085 14.0991C74.6171 13.97 74.5283 13.8539 74.4592 13.7645C74.3901 13.6752 74.3242 13.5746 74.281 13.523L74.2911 13.541Z" fill="#007fde"/>
<path d="M79.9462 11.1353L80.1245 11.9841L78.7702 12.2699L79.5463 15.8957L78.5378 16.106L77.7636 12.4838L76.4129 12.7675L76.2346 11.9186L79.9462 11.1353Z" fill="#007fde"/>
<path d="M84.5219 14.1514L84.6606 15.0225L81.6267 15.5204L80.8877 10.9911L81.9041 10.8286L82.5003 14.4795L84.5219 14.1514Z" fill="#007fde"/>
<path d="M88.6476 14.5779C88.5666 14.4336 88.5103 14.2659 88.434 14.1047C88.3577 13.9435 88.2814 13.7823 88.2036 13.6267L86.4175 13.8179L86.3069 14.3545L86.1965 14.8577L85.1373 14.9778C85.2549 14.4705 85.3687 13.9986 85.4807 13.5657C85.5927 13.1327 85.6984 12.7223 85.8054 12.3396C85.9124 11.9568 86.0184 11.589 86.1344 11.2391C86.2505 10.8893 86.3561 10.5548 86.4767 10.2214L87.4481 10.1221C87.6182 10.4252 87.8124 10.729 87.9943 11.0445C88.1761 11.3599 88.3588 11.6939 88.5552 12.0439C88.7517 12.3938 88.9387 12.7776 89.1318 13.1721C89.3248 13.5667 89.5442 14.0082 89.767 14.4809L88.6476 14.5779ZM87.0395 11.1819L86.968 11.4592L86.8587 11.8717C86.8182 12.0273 86.7766 12.1977 86.7247 12.3834L86.5794 12.9679L87.8809 12.8494C87.7776 12.6654 87.7035 12.4745 87.6212 12.3025C87.5388 12.1304 87.4409 11.9814 87.3799 11.8306C87.319 11.6797 87.2301 11.5636 87.1774 11.4698C87.1248 11.376 87.0667 11.2472 87.0323 11.1859L87.0395 11.1819Z" fill="#007fde"/>
<path d="M91.7365 13.5794C91.8574 13.5743 91.9774 13.5562 92.0945 13.5256C92.1736 13.4994 92.2469 13.4582 92.3104 13.4044C92.3615 13.3637 92.3999 13.3092 92.4211 13.2474C92.44 13.1847 92.4481 13.1192 92.4449 13.0537C92.4384 12.9818 92.4147 12.9126 92.3756 12.8518C92.3366 12.7911 92.2835 12.7407 92.2208 12.705C91.9867 12.5804 91.7379 12.4857 91.4804 12.4232C91.3265 12.3767 91.1742 12.3246 91.0214 12.2633C90.8718 12.2041 90.7319 12.1226 90.6065 12.0217C90.468 11.9169 90.3553 11.7816 90.2772 11.6263C90.1991 11.4711 90.1576 11.3 90.156 11.1263C90.1431 10.93 90.1732 10.7333 90.2444 10.5501C90.3121 10.3767 90.4199 10.222 90.5588 10.0984C90.7116 9.96949 90.8875 9.87077 91.0771 9.80742C91.301 9.73067 91.535 9.68725 91.7716 9.67855C92.0415 9.65959 92.3128 9.67991 92.577 9.73888C92.7755 9.77814 92.969 9.83987 93.1537 9.92288L92.8982 10.7495C92.757 10.6868 92.6111 10.6354 92.4617 10.596C92.2769 10.5485 92.0855 10.5324 91.8954 10.5485C91.7123 10.5439 91.5313 10.5882 91.371 10.6768C91.3199 10.7117 91.2792 10.7599 91.2533 10.8163C91.2274 10.8726 91.2173 10.9349 91.2239 10.9966C91.2248 11.0728 91.2498 11.1468 91.2953 11.208C91.3425 11.2681 91.4024 11.3172 91.4706 11.3516C91.5524 11.3995 91.6393 11.4383 91.7295 11.4672L92.047 11.569C92.2623 11.6333 92.4741 11.7092 92.6812 11.7965C92.8472 11.8647 93.0011 11.9594 93.1368 12.077C93.2576 12.1843 93.3531 12.317 93.4165 12.4656C93.488 12.643 93.5267 12.8319 93.5306 13.0231C93.5516 13.2093 93.5279 13.3978 93.4615 13.5729C93.3952 13.7479 93.288 13.9045 93.149 14.0297C92.7634 14.3146 92.2939 14.463 91.8143 14.4515C91.6311 14.4627 91.4473 14.4596 91.2646 14.4422C91.1166 14.4314 90.9697 14.4092 90.825 14.3758C90.714 14.3497 90.6045 14.3177 90.4968 14.2801C90.4169 14.2518 90.3393 14.2177 90.2644 14.1781L90.5122 13.3462C90.6784 13.4254 90.8524 13.4867 91.0315 13.5292C91.2634 13.576 91.5004 13.5929 91.7365 13.5794Z" fill="#007fde"/>
<path d="M97.228 9.67613L98.2561 9.67786L98.2328 14.2744L97.213 14.2537L97.2141 12.3077L95.4868 12.2999L95.4942 14.2696L94.464 14.2642L94.4749 9.67944L95.5051 9.68478L95.492 11.4239L97.225 11.4333L97.228 9.67613Z" fill="#007fde"/>
<path d="M102.436 14.5103C102.291 14.1172 102.139 13.6948 101.998 13.2663C101.857 12.8378 101.72 12.4166 101.594 11.9985C101.468 11.5804 101.355 11.184 101.255 10.8035C101.155 10.4231 101.062 10.0812 100.99 9.78466L102.119 9.88164C102.186 10.1525 102.256 10.4455 102.338 10.7601C102.42 11.0747 102.496 11.3877 102.58 11.6967C102.663 12.0057 102.743 12.3075 102.82 12.5964C102.897 12.8853 102.971 13.1281 103.046 13.3375C103.148 13.1475 103.277 12.9045 103.386 12.6439L103.774 11.7999C103.907 11.5067 104.041 11.2134 104.169 10.9186C104.297 10.6237 104.418 10.3422 104.524 10.0835L105.617 10.1766C105.493 10.4602 105.345 10.78 105.182 11.1376C105.018 11.4953 104.844 11.8682 104.67 12.2503C104.497 12.6325 104.278 13.0353 104.066 13.434C103.854 13.8328 103.648 14.2146 103.436 14.58L102.436 14.5103Z" fill="#007fde"/>
<path d="M108.522 15.2078L108.425 14.6977L108.318 14.1787L106.557 13.9244L106.317 14.4004L106.099 14.855L105.042 14.7083C105.283 14.2563 105.507 13.8274 105.711 13.4216C105.916 13.0158 106.119 12.6452 106.322 12.3098C106.516 11.9637 106.703 11.6217 106.896 11.3238C107.088 11.0259 107.276 10.7116 107.473 10.421L108.443 10.555C108.55 10.8888 108.651 11.2303 108.75 11.583C108.848 11.9357 108.949 12.3013 109.044 12.6893C109.139 13.0774 109.237 13.4876 109.336 13.9254C109.435 14.3633 109.534 14.8345 109.636 15.3462L108.522 15.2078ZM107.774 11.5233L107.635 11.7816L107.432 12.1522L107.177 12.6178L106.891 13.1533L108.18 13.3168C108.135 13.1097 108.096 12.9135 108.055 12.7228C108.014 12.5322 107.976 12.3636 107.935 12.2063C107.894 12.049 107.865 11.9133 107.834 11.7889L107.774 11.5233Z" fill="#007fde"/>
<path d="M114.327 12.3433C114.16 12.4604 113.963 12.6141 113.728 12.8028C113.493 12.9916 113.246 13.2013 112.991 13.4299C112.736 13.6585 112.481 13.8963 112.227 14.1434C111.973 14.3905 111.74 14.6254 111.537 14.8534L113.826 15.3052L113.661 16.1572L110.126 15.4603L110.257 14.8506C110.422 14.654 110.616 14.4356 110.84 14.2011L111.548 13.4902C111.793 13.2516 112.039 13.0235 112.286 12.8057C112.533 12.588 112.76 12.394 112.967 12.2238L110.951 11.8278L111.117 10.9758L114.475 11.6384L114.327 12.3433Z" fill="#007fde"/>
<path d="M115.508 11.8935L116.513 12.1315L115.468 16.5944L114.467 16.3544L115.508 11.8935Z" fill="#007fde"/>
<path d="M119.121 12.7552C119.66 12.8724 120.153 13.1446 120.54 13.5384C120.749 13.8314 120.844 14.1905 120.806 14.548C120.769 14.9055 120.602 15.2367 120.338 15.479C120.123 15.6412 119.867 15.7404 119.599 15.7655C119.67 15.8918 119.716 16.0507 119.775 16.222C119.833 16.3933 119.888 16.5666 119.941 16.7456C119.994 16.9245 120.04 17.1167 120.083 17.311C120.126 17.5052 120.163 17.6887 120.196 17.8741L119.071 17.5566C119.029 17.3901 118.989 17.2179 118.946 17.0478C118.903 16.8776 118.859 16.7075 118.811 16.545C118.762 16.3825 118.713 16.22 118.664 16.0723C118.614 15.9247 118.559 15.7847 118.503 15.6596L118.01 15.5235L117.565 17.1348L116.572 16.8574L117.777 12.5035C118.008 12.5192 118.238 12.5486 118.466 12.5915C118.728 12.6533 118.941 12.7044 119.121 12.7552ZM118.943 13.6189C118.88 13.5984 118.816 13.5822 118.75 13.5706L118.584 13.5358L118.249 14.7346L118.53 14.814C118.8 14.9087 119.089 14.9371 119.372 14.8967C119.466 14.8702 119.551 14.8177 119.618 14.7453C119.684 14.6728 119.729 14.5832 119.747 14.4866C119.78 14.396 119.786 14.2979 119.765 14.2039C119.744 14.1098 119.697 14.0236 119.629 13.9552C119.431 13.7881 119.196 13.6726 118.943 13.6189Z" fill="#007fde"/>
<path d="M124.087 18.2377L123.81 19.0764L120.901 18.1095L122.341 13.7612L123.321 14.0893L122.153 17.5916L124.087 18.2377Z" fill="#007fde"/>
<path d="M126.12 15.0466L127.087 15.4104L125.486 19.7014L124.501 19.3384L126.12 15.0466Z" fill="#007fde"/>
<path d="M130.078 17.4936C129.908 17.4004 129.719 17.3484 129.525 17.3417C129.332 17.335 129.139 17.3739 128.963 17.4552C128.629 17.6568 128.374 17.9675 128.241 18.3353C128.159 18.5246 128.104 18.7248 128.078 18.9299C128.054 19.1057 128.066 19.2846 128.113 19.4559C128.158 19.6206 128.243 19.7717 128.36 19.896C128.49 20.0349 128.649 20.1432 128.826 20.213C128.932 20.258 129.025 20.2962 129.1 20.3205C129.168 20.3481 129.238 20.369 129.31 20.3828L129.91 18.9216L130.865 19.3341L129.984 21.4232C129.779 21.4092 129.575 21.3791 129.375 21.3333C129.044 21.2587 128.721 21.1523 128.411 21.0157C128.118 20.8972 127.849 20.7267 127.617 20.5123C127.408 20.3131 127.245 20.0701 127.14 19.8007C127.035 19.5312 126.992 19.2421 127.012 18.9539C127.031 18.5965 127.115 18.2456 127.259 17.9185C127.389 17.5945 127.579 17.2989 127.821 17.0478C128.031 16.8311 128.284 16.6615 128.564 16.5501C128.837 16.4385 129.131 16.3868 129.426 16.3985C129.73 16.4125 130.03 16.4826 130.309 16.6052C130.489 16.681 130.664 16.77 130.832 16.8713C130.961 16.9519 131.086 17.0407 131.204 17.1372C131.291 17.2042 131.372 17.2798 131.444 17.3629C131.49 17.4121 131.533 17.4639 131.574 17.5179L130.985 18.1565C130.871 18.0232 130.747 17.8997 130.612 17.787C130.45 17.6638 130.27 17.565 130.078 17.4936Z" fill="#007fde"/>
<path d="M132.842 17.8638L133.769 18.2924L131.83 22.4271L130.903 21.9985L132.842 17.8638Z" fill="#007fde"/>
<path d="M139.011 21.044L139.912 21.5442L137.698 25.5529L136.797 25.0527L137.737 23.3533L136.218 22.5118L135.281 24.2147L134.378 23.7109L136.591 19.7023L137.492 20.2025L136.648 21.7344L138.163 22.5779L139.011 21.044Z" fill="#007fde"/>
<path d="M140.135 27.1696C139.892 27.0221 139.678 26.8321 139.503 26.6087C139.362 26.4234 139.264 26.2091 139.217 25.9815C139.175 25.7599 139.183 25.5318 139.24 25.3139C139.309 25.0759 139.416 24.8508 139.557 24.6473L141.077 22.2375L141.951 22.7908L140.473 25.1245C140.386 25.258 140.319 25.4041 140.276 25.5578C140.242 25.6747 140.234 25.7975 140.251 25.9181C140.267 26.0255 140.312 26.1264 140.382 26.2101C140.453 26.3005 140.541 26.3768 140.641 26.4349C140.732 26.4961 140.836 26.5383 140.944 26.5589C141.052 26.5796 141.164 26.5784 141.271 26.5553C141.409 26.5113 141.537 26.4398 141.647 26.3449C141.756 26.25 141.845 26.1338 141.908 26.0033L143.383 23.6715L144.257 24.2249L142.721 26.6668C142.589 26.881 142.423 27.0721 142.229 27.2324C142.056 27.3782 141.852 27.4816 141.632 27.5345C141.402 27.5894 141.163 27.5905 140.933 27.5376C140.648 27.4623 140.377 27.3377 140.135 27.1696Z" fill="#007fde"/>
<path d="M147.535 27.4426C147.333 27.4798 147.088 27.5321 146.796 27.6106C146.504 27.6891 146.192 27.7741 145.866 27.8764C145.54 27.9787 145.209 28.0887 144.874 28.2099C144.54 28.3312 144.234 28.4511 143.951 28.5717L145.853 29.9285L145.355 30.635L142.418 28.54L142.773 28.0419C142.996 27.9167 143.271 27.8149 143.575 27.6914C143.88 27.5679 144.194 27.4531 144.514 27.34C144.834 27.2268 145.15 27.1157 145.465 27.0195C145.78 26.9232 146.068 26.8375 146.33 26.7715L144.655 25.5763L145.153 24.8697L147.946 26.8604L147.535 27.4426Z" fill="#007fde"/>
<path d="M147.349 32.3151C147.121 32.1438 146.927 31.9304 146.779 31.6865C146.658 31.4866 146.584 31.2623 146.562 31.0301C146.545 30.804 146.58 30.5771 146.662 30.3663C146.751 30.1329 146.877 29.9152 147.034 29.7212L148.807 27.4921L149.614 28.1356L147.898 30.299C147.794 30.4201 147.711 30.558 147.653 30.7067C147.61 30.8191 147.589 30.939 147.591 31.0596C147.596 31.1683 147.63 31.2738 147.691 31.3641C147.754 31.4611 147.832 31.5469 147.923 31.6179C148.008 31.6921 148.108 31.7481 148.215 31.7826C148.322 31.817 148.435 31.8292 148.547 31.8183C148.686 31.7883 148.818 31.7307 148.935 31.6489C149.052 31.5671 149.151 31.4628 149.226 31.342L150.948 29.1802L151.754 29.8237L149.98 32.0528C149.827 32.2517 149.643 32.4242 149.434 32.5635C149.242 32.6952 149.022 32.779 148.791 32.8079C148.56 32.8368 148.326 32.8099 148.107 32.7295C147.832 32.6386 147.575 32.4982 147.349 32.3151Z" fill="#007fde"/>
<path d="M153.776 31.5543C154.21 31.8979 154.535 32.3598 154.712 32.8842C154.764 33.1001 154.759 33.3255 154.697 33.5386C154.636 33.7518 154.521 33.9453 154.363 34.1004C154.184 34.3197 153.938 34.4743 153.663 34.5405C153.399 34.5898 153.125 34.5641 152.874 34.4665C152.868 34.6167 152.85 34.7787 152.835 34.9627C152.82 35.1467 152.783 35.3243 152.739 35.4912C152.695 35.658 152.665 35.8649 152.62 36.0559C152.576 36.2468 152.524 36.4325 152.463 36.6187L151.603 35.8537L151.716 35.3392C151.752 35.1672 151.788 34.9951 151.809 34.8127C151.83 34.6303 151.861 34.4844 151.881 34.3261C151.902 34.1807 151.914 34.0342 151.919 33.8874L151.542 33.544L150.462 34.8L149.693 34.1122L152.694 30.7479C152.897 30.8684 153.091 31.0015 153.277 31.1464C153.468 31.2911 153.645 31.4476 153.776 31.5543ZM153.225 32.2579C153.175 32.2113 153.124 32.1674 153.07 32.1263C153.022 32.0915 152.978 32.0547 152.936 32.0215L152.112 32.9581L152.329 33.1498C152.529 33.3571 152.778 33.5109 153.053 33.5972C153.15 33.6158 153.249 33.6065 153.341 33.5704C153.432 33.5343 153.511 33.4729 153.568 33.3934C153.64 33.3249 153.689 33.237 153.711 33.1405C153.732 33.044 153.725 32.9433 153.69 32.8507C153.588 32.6177 153.432 32.4124 153.235 32.2518L153.225 32.2579Z" fill="#007fde"/>
<path d="M156.2 33.866L156.944 34.5828L153.758 37.8707L153.018 37.1518L156.2 33.866Z" fill="#007fde"/>
<path d="M159.008 40.0145C158.754 40.2628 158.455 40.4598 158.127 40.5946C157.845 40.6997 157.542 40.738 157.243 40.7065C156.93 40.6687 156.628 40.5649 156.357 40.4018C156.037 40.2123 155.746 39.9778 155.493 39.7055C155.366 39.5726 155.211 39.3891 155.064 39.2201C154.909 39.0293 154.765 38.8296 154.634 38.6219L157.875 35.5593C158.076 35.7077 158.269 35.8675 158.452 36.0377C158.638 36.2178 158.795 36.3715 158.924 36.508C159.174 36.7668 159.389 37.0581 159.562 37.3742C159.711 37.6481 159.8 37.9507 159.823 38.2617C159.843 38.5652 159.787 38.8688 159.661 39.1451C159.503 39.4755 159.281 39.771 159.008 40.0145ZM155.904 38.8438C155.926 38.8834 155.954 38.934 156.014 38.9719C156.073 39.0099 156.106 39.0768 156.164 39.1389C156.295 39.3014 156.458 39.4356 156.642 39.5336C156.827 39.6315 157.029 39.6911 157.237 39.7088C157.543 39.7358 157.851 39.6648 158.114 39.5061C158.378 39.3474 158.585 39.1091 158.704 38.8253C158.824 38.5415 158.851 38.2269 158.781 37.9265C158.711 37.6261 158.548 37.3554 158.316 37.1531C158.281 37.0918 158.214 37.0486 158.162 36.9974C158.109 36.9461 158.057 36.8949 158.005 36.8529L155.904 38.8438Z" fill="#007fde"/>
<path d="M159.827 44.527C159.919 44.3857 160.006 44.2372 160.096 44.0867L160.368 43.6259L159.215 42.2562L158.716 42.4462C158.553 42.5094 158.393 42.5706 158.241 42.637L157.552 41.814C158.04 41.63 158.491 41.4626 158.912 41.3113C159.334 41.1601 159.73 41.023 160.101 40.9C160.473 40.7771 160.844 40.6634 161.189 40.5602C161.533 40.457 161.882 40.361 162.221 40.2747L162.855 41.0245C162.708 41.3443 162.554 41.6681 162.396 41.994C162.238 42.3198 162.058 42.6578 161.872 43.0091C161.686 43.3604 161.482 43.731 161.261 44.1209C161.04 44.5108 160.796 44.9278 160.544 45.3728L159.827 44.527ZM161.739 41.2953L161.468 41.395L161.072 41.5321L160.572 41.7037C160.388 41.7642 160.199 41.8323 159.999 41.9065L160.841 42.9094L161.148 42.3858L161.405 41.9238L161.61 41.5476L161.739 41.2953Z" fill="#007fde"/>
<path d="M165.203 45.2911C165.103 45.1252 164.965 44.985 164.801 44.8818C164.637 44.7785 164.451 44.7151 164.259 44.6967C163.867 44.7023 163.49 44.8437 163.191 45.0967C163.025 45.2183 162.876 45.3624 162.75 45.5248C162.643 45.667 162.563 45.8276 162.514 45.9987C162.475 46.1634 162.472 46.3349 162.507 46.5008C162.553 46.6867 162.637 46.8607 162.756 47.0112C162.81 47.1087 162.884 47.1811 162.933 47.2436C162.979 47.3005 163.031 47.3527 163.087 47.3993L164.361 46.4471L164.98 47.2716L163.168 48.6305C162.996 48.5169 162.833 48.3888 162.683 48.2477C162.436 48.0148 162.211 47.7601 162.01 47.4869C161.817 47.2335 161.67 46.9475 161.578 46.6425C161.495 46.3664 161.473 46.0751 161.516 45.79C161.567 45.4947 161.68 45.2139 161.85 44.9671C162.04 44.6811 162.28 44.4321 162.559 44.2321C162.833 44.0187 163.145 43.8595 163.479 43.7631C163.775 43.6799 164.085 43.6578 164.389 43.6982C164.679 43.741 164.956 43.8462 165.201 44.0063C165.458 44.1709 165.682 44.3813 165.862 44.627C165.981 44.7831 166.088 44.9483 166.182 45.1211C166.253 45.2578 166.316 45.3982 166.371 45.5418C166.411 45.6448 166.442 45.7512 166.464 45.8596C166.481 45.9495 166.494 46.0137 166.498 46.0543L165.658 46.3122C165.629 46.1393 165.583 45.9697 165.52 45.8058C165.442 45.6189 165.335 45.4453 165.203 45.2911Z" fill="#007fde"/>
<path d="M167.411 47.0076L167.995 47.8615L164.22 50.4548L163.637 49.6009L167.411 47.0076Z" fill="#007fde"/>
<path d="M168.448 50.9377L168.605 50.8211L168.731 50.7504C168.976 50.5991 169.248 50.4965 169.532 50.4481C169.789 50.4011 170.052 50.3944 170.311 50.4282L170.533 51.0769C170.31 51.1101 170.09 51.1651 169.878 51.2409C169.661 51.3166 169.452 51.4144 169.256 51.533L169.205 51.5613L169.119 51.6098L169.018 51.6664L168.928 51.7169L168.448 50.9377ZM169.189 52.1397C169.243 52.1094 169.287 52.0611 169.343 52.0251L169.469 51.9544C169.714 51.8006 169.987 51.6971 170.273 51.6501C170.53 51.6013 170.793 51.5946 171.052 51.6302L171.271 52.2809C171.048 52.3109 170.829 52.3653 170.619 52.4429C170.4 52.5191 170.191 52.6177 169.993 52.7371L169.946 52.7633L169.86 52.8118L169.759 52.8684L169.669 52.9189L169.189 52.1397Z" fill="#007fde"/>
<path d="M171.942 54.2527C171.851 54.394 171.735 54.5586 171.597 54.7503C171.458 54.9419 171.309 55.1489 171.142 55.3659C170.975 55.583 170.807 55.8057 170.631 56.0231L170.134 56.6482L170.926 56.574L171.758 56.5053C172.031 56.4851 172.283 56.4714 172.523 56.4601C172.763 56.4489 172.961 56.447 173.127 56.4485L173.587 57.2675C173.341 57.453 173.062 57.6476 172.751 57.8603C172.439 58.073 172.106 58.2886 171.76 58.5067L170.71 59.1669L169.723 59.7687L169.231 58.892C169.619 58.6738 170.04 58.4374 170.483 58.1556C170.926 57.8737 171.383 57.6079 171.833 57.3128L171.166 57.3737L170.435 57.4376L169.738 57.5018L169.169 57.5507L168.816 56.923L169.17 56.4731L169.609 55.923L170.063 55.3499L170.478 54.8231C169.99 55.0398 169.509 55.2624 169.035 55.4908L167.731 56.137L167.239 55.2603L168.286 54.7631L169.414 54.2436C169.792 54.074 170.149 53.9166 170.499 53.7724C170.848 53.6282 171.166 53.5022 171.453 53.398L171.942 54.2527Z" fill="#007fde"/>
<path d="M171.427 63.4621L171.805 63.1074L172.184 62.7378L171.436 61.1084L170.908 61.1628C170.731 61.1767 170.562 61.1957 170.398 61.2164L169.955 60.2503C170.476 60.2 170.96 60.1606 171.404 60.1249C171.848 60.0893 172.268 60.0621 172.669 60.0415C173.069 60.0209 173.445 60.0088 173.806 60.0011C174.166 59.9935 174.526 59.995 174.882 60.0043L175.289 60.8905C175.062 61.1604 174.831 61.4323 174.591 61.7046C174.351 61.9769 174.091 62.2558 173.819 62.5463C173.546 62.8368 173.25 63.1358 172.935 63.4506C172.619 63.7653 172.272 64.1075 171.897 64.4694L171.427 63.4621ZM174.125 60.8563L173.837 60.8754L173.413 60.9045L172.884 60.9405C172.691 60.9495 172.49 60.9627 172.278 60.9819L172.828 62.1725L173.259 61.7505L173.634 61.3737L173.933 61.0634L174.125 60.8563Z" fill="#007fde"/>
<path d="M177.404 65.9903L177.78 66.9558L173.507 68.619L173.133 67.6571L174.942 66.9501L174.31 65.3356L172.505 66.0406L172.127 65.0808L176.398 63.4139L176.776 64.3738L175.145 65.0095L175.773 66.626L177.404 65.9903Z" fill="#007fde"/>
<path d="M174.843 72.6092L175.259 72.3045L175.68 71.983L175.13 70.2795L174.597 70.2656L174.083 70.2602L173.752 69.2407C174.276 69.255 174.758 69.2694 175.201 69.2912C175.644 69.313 176.068 69.3357 176.467 69.3632C176.866 69.3908 177.235 69.4068 177.603 69.4562C177.972 69.5055 178.317 69.5301 178.669 69.5839L178.969 70.5159C178.715 70.7537 178.453 70.9956 178.182 71.2379C177.911 71.4802 177.62 71.729 177.312 71.9823C177.005 72.2356 176.679 72.4989 176.336 72.7724C175.992 73.0459 175.602 73.3456 175.186 73.6595L174.843 72.6092ZM177.831 70.3434L177.54 70.3312L177.116 70.3085C176.958 70.3023 176.782 70.2921 176.587 70.2778C176.393 70.2684 176.193 70.2574 175.982 70.2525L176.383 71.4983L176.862 71.1295C177.013 71.0113 177.156 70.9028 177.279 70.8008L177.602 70.5338L177.831 70.3434Z" fill="#007fde"/>
<path d="M176.988 77.0465L176.132 77.2756L175.344 74.3113L179.771 73.1407L180.038 74.1391L176.475 75.0951L176.988 77.0465Z" fill="#007fde"/>
<path d="M177.812 80.8164L176.964 80.9932L176.319 77.9963L180.793 77.0365L181.012 78.0426L177.394 78.8494L177.812 80.8164Z" fill="#007fde"/>
<path d="M177.608 84.9641L178.058 84.7115L178.522 84.4509L178.24 82.683L177.714 82.5892C177.537 82.5605 177.369 82.5313 177.198 82.5134L177.028 81.4512C177.552 81.5414 178.02 81.6342 178.459 81.7247C178.898 81.8152 179.307 81.9034 179.692 81.9816C180.077 82.0598 180.452 82.1626 180.793 82.2558C181.134 82.3491 181.486 82.4455 181.824 82.5499L181.978 83.5166L181.085 84.1084C180.782 84.3022 180.455 84.5046 180.114 84.7057C179.772 84.9069 179.394 85.1098 179.009 85.326L177.742 86.0372L177.608 84.9641ZM180.908 83.1872C180.841 83.1774 180.748 83.1541 180.627 83.132L180.212 83.0422L179.68 82.9376L179.078 82.801L179.289 84.1057L180.279 83.5501L180.639 83.348L180.908 83.1872Z" fill="#007fde"/>
<path d="M178.15 89.7747C178.519 89.5673 178.901 89.3531 179.294 89.1322C179.687 88.912 180.088 88.7247 180.48 88.5378C180.872 88.3509 181.244 88.1705 181.602 88.0074L182.564 87.5864L182.652 88.7228L181.821 89.071L180.938 89.4624L180.091 89.8428C179.821 89.961 179.588 90.0775 179.395 90.1809C179.602 90.2515 179.848 90.327 180.133 90.4074L181.028 90.6598L181.962 90.9084L182.84 91.132L182.929 92.2258C182.627 92.1436 182.288 92.054 181.911 91.9477C181.535 91.8413 181.133 91.725 180.716 91.5983C180.3 91.4716 179.877 91.334 179.45 91.1893C179.023 91.0445 178.615 90.8989 178.218 90.7472L178.15 89.7747Z" fill="#007fde"/>
<path d="M178.441 95.8839C178.597 95.834 178.763 95.7744 178.926 95.7112L179.424 95.5267L179.368 93.7408L178.864 93.5774C178.691 93.5226 178.53 93.4709 178.369 93.4285L178.344 92.3558C178.842 92.5176 179.301 92.6683 179.724 92.815C180.147 92.9618 180.544 93.1042 180.912 93.2444C181.279 93.3845 181.641 93.5231 181.978 93.6609C182.316 93.7987 182.641 93.939 182.961 94.0869L182.984 95.0652C182.682 95.2349 182.351 95.3782 182.023 95.5288C181.696 95.6793 181.345 95.8383 180.979 95.9962C180.614 96.1541 180.213 96.3173 179.807 96.4789C179.4 96.6406 178.941 96.8176 178.453 97.0016L178.441 95.8839ZM181.96 94.5634C181.892 94.5444 181.798 94.5118 181.685 94.4708C181.572 94.4298 181.435 94.3788 181.282 94.3267L180.778 94.1357L180.195 93.9408L180.245 95.2789L180.81 95.0617L181.301 94.8665L181.686 94.7077L181.96 94.5634Z" fill="#007fde"/>
<path d="M180.455 103.849C180.102 103.833 179.756 103.753 179.432 103.612C179.153 103.486 178.905 103.302 178.703 103.072C178.512 102.858 178.369 102.604 178.286 102.329C178.204 102.037 178.173 101.734 178.194 101.431C178.21 101.13 178.278 100.834 178.393 100.556C178.509 100.291 178.679 100.053 178.892 99.8583C179.116 99.6584 179.382 99.5095 179.669 99.4219C180.007 99.3157 180.362 99.2777 180.714 99.3099C181.067 99.3218 181.414 99.4064 181.734 99.5582C182.01 99.6869 182.256 99.8722 182.456 100.102C182.647 100.32 182.791 100.576 182.877 100.852C182.964 101.14 183 101.441 182.983 101.742C182.968 102.043 182.898 102.339 182.778 102.616C182.666 102.883 182.497 103.123 182.282 103.317C182.056 103.515 181.791 103.664 181.504 103.753C181.164 103.852 180.808 103.885 180.455 103.849ZM180.656 100.353C180.451 100.339 180.245 100.356 180.044 100.402C179.872 100.439 179.709 100.51 179.565 100.61C179.431 100.704 179.32 100.828 179.242 100.971C179.162 101.129 179.116 101.302 179.106 101.479C179.092 101.656 179.119 101.834 179.185 102C179.243 102.153 179.338 102.291 179.462 102.4C179.594 102.517 179.748 102.608 179.915 102.667C180.11 102.741 180.316 102.785 180.524 102.8C180.73 102.813 180.936 102.797 181.137 102.754C181.311 102.716 181.475 102.645 181.621 102.544C181.756 102.45 181.866 102.325 181.941 102.179C182.022 102.023 182.069 101.851 182.079 101.675C182.09 101.497 182.063 101.318 181.998 101.151C181.937 100.999 181.841 100.863 181.718 100.753C181.584 100.637 181.429 100.546 181.262 100.488C181.067 100.413 180.863 100.368 180.656 100.353Z" fill="#007fde"/>
<path d="M182.602 105.135L182.488 106.147L177.941 105.678L178.054 104.665L182.602 105.135Z" fill="#007fde"/>
<path d="M178.263 109.995L177.387 109.87L177.814 106.835L182.348 107.483L182.206 108.512L178.545 107.986L178.263 109.995Z" fill="#007fde"/>
<path d="M176.637 113.811L177.15 113.747L177.677 113.674L178.024 111.913C177.869 111.824 177.715 111.735 177.565 111.644C177.414 111.553 177.261 111.473 177.116 111.393L177.319 110.33C177.767 110.596 178.182 110.847 178.553 111.061C178.924 111.275 179.286 111.523 179.626 111.74C179.965 111.957 180.277 112.167 180.577 112.373C180.878 112.579 181.165 112.788 181.448 113.004L181.258 113.965C180.916 114.047 180.571 114.132 180.212 114.21C179.854 114.288 179.484 114.363 179.095 114.438C178.707 114.514 178.285 114.58 177.853 114.662C177.42 114.743 176.933 114.803 176.415 114.875L176.637 113.811ZM180.354 113.291L180.106 113.136L179.747 112.91C179.61 112.826 179.461 112.729 179.299 112.626C179.137 112.522 178.963 112.415 178.784 112.307L178.531 113.593L179.126 113.506L179.648 113.416L180.077 113.337L180.354 113.291Z" fill="#007fde"/>
<path d="M180.756 118.46L180.566 118.433C180.518 118.427 180.47 118.417 180.423 118.405C180.142 118.339 179.877 118.219 179.642 118.051C179.424 117.903 179.232 117.721 179.074 117.511L179.378 116.899C179.56 117.034 179.753 117.15 179.957 117.247C180.165 117.348 180.382 117.426 180.605 117.482C180.622 117.49 180.64 117.494 180.659 117.494L180.756 117.515L180.868 117.538L180.976 117.553L180.756 118.46ZM181.088 117.078L180.898 117.051L180.754 117.023C180.474 116.955 180.209 116.835 179.974 116.669C179.757 116.52 179.567 116.337 179.409 116.127L179.714 115.515C179.893 115.652 180.086 115.769 180.289 115.865C180.5 115.964 180.721 116.041 180.948 116.094L181.004 116.11L181.101 116.131L181.215 116.148C181.249 116.157 181.284 116.163 181.319 116.165L181.088 117.078Z" fill="#007fde"/>
<path d="M179.502 121.109L179.207 122.1L174.815 120.77L175.109 119.784L179.502 121.109Z" fill="#007fde"/>
<path d="M174.352 125.063L173.515 124.778L174.496 121.879L178.834 123.358L178.504 124.331L174.998 123.144L174.352 125.063Z" fill="#007fde"/>
<path d="M177.048 128.389C176.882 128.406 176.679 128.425 176.442 128.44C176.204 128.455 175.951 128.468 175.676 128.476C175.401 128.483 175.128 128.494 174.845 128.496L174.047 128.508C174.222 128.685 174.412 128.872 174.611 129.074C174.809 129.276 175.002 129.476 175.189 129.674C175.376 129.873 175.552 130.059 175.714 130.238C175.876 130.418 175.996 130.555 176.108 130.696L175.755 131.568C175.457 131.493 175.125 131.399 174.761 131.29C174.397 131.182 174.024 131.064 173.62 130.944C173.217 130.824 172.842 130.688 172.455 130.554L171.36 130.172L171.738 129.244C172.156 129.398 172.612 129.569 173.105 129.748C173.598 129.927 174.1 130.096 174.611 130.255C174.47 130.11 174.314 129.951 174.144 129.777C173.971 129.604 173.801 129.428 173.628 129.255C173.455 129.082 173.29 128.914 173.134 128.754C172.979 128.595 172.835 128.448 172.732 128.349L173.004 127.679L173.577 127.671L174.275 127.658C174.519 127.654 174.751 127.662 175.007 127.646L175.678 127.635C175.2 127.391 174.724 127.16 174.248 126.943C173.771 126.727 173.321 126.515 172.92 126.341L173.298 125.412L174.343 125.907C174.718 126.086 175.084 126.265 175.451 126.448C175.819 126.631 176.168 126.805 176.504 126.982C176.84 127.158 177.138 127.328 177.401 127.484L177.048 128.389Z" fill="#007fde"/>
<path d="M175.077 133.007L174.65 133.934L170.502 131.992L170.929 131.065L175.077 133.007Z" fill="#007fde"/>
<path d="M171.639 135.771C171.817 136.089 172.03 136.382 172.231 136.673C172.432 136.963 172.64 137.25 172.856 137.518L172.336 138.531C172.011 138.077 171.706 137.627 171.419 137.176C171.133 136.724 170.848 136.258 170.559 135.761L169.003 134.954L169.478 134.038L171.02 134.838C171.575 134.787 172.12 134.747 172.66 134.724C173.201 134.7 173.744 134.689 174.299 134.691L173.75 135.754C173.403 135.735 173.057 135.725 172.702 135.725C172.347 135.725 171.995 135.756 171.639 135.771Z" fill="#007fde"/>
<path d="M170.554 137.885L169.6 139.559L168.826 139.116L169.779 137.442L170.554 137.885Z" fill="#007fde"/>
<path d="M169.083 143.967L168.346 143.498L169.073 142.322L165.923 140.37L166.462 139.493L169.612 141.445L170.337 140.265L171.075 140.738L169.083 143.967Z" fill="#007fde"/>
<path d="M163.332 144.263L163.829 144.407L164.343 144.545L165.354 143.067C165.247 142.927 165.142 142.782 165.039 142.641C164.936 142.499 164.829 142.36 164.727 142.228L165.331 141.348C165.638 141.768 165.925 142.162 166.182 142.526C166.438 142.89 166.677 143.24 166.902 143.574C167.127 143.907 167.33 144.226 167.524 144.529C167.718 144.833 167.9 145.149 168.076 145.453L167.515 146.242C167.169 146.187 166.817 146.123 166.461 146.051C166.103 145.987 165.731 145.906 165.342 145.82C164.953 145.735 164.542 145.634 164.111 145.525C163.681 145.415 163.209 145.291 162.704 145.152L163.332 144.263ZM166.955 145.252C166.92 145.191 166.872 145.104 166.788 145.014C166.704 144.923 166.636 144.795 166.553 144.671C166.469 144.547 166.358 144.392 166.248 144.23C166.139 144.069 166.023 143.906 165.901 143.737L165.162 144.816L165.742 144.965C165.932 145.015 166.102 145.057 166.259 145.092L166.674 145.191L166.955 145.252Z" fill="#007fde"/>
<path d="M161.666 150.276C161.38 150.064 161.14 149.797 160.96 149.49C160.803 149.226 160.714 148.928 160.699 148.621C160.689 148.306 160.745 147.991 160.863 147.699C161.003 147.356 161.191 147.035 161.421 146.745C161.538 146.599 161.672 146.433 161.837 146.246C161.999 146.064 162.174 145.893 162.359 145.735L165.883 148.478C165.766 148.7 165.637 148.915 165.496 149.122C165.349 149.332 165.219 149.514 165.106 149.659C164.89 149.946 164.636 150.202 164.35 150.42C164.103 150.609 163.818 150.743 163.515 150.813C163.219 150.877 162.911 150.867 162.619 150.784C162.27 150.681 161.946 150.508 161.666 150.276ZM162.341 147.026L162.233 147.153C162.182 147.21 162.135 147.27 162.092 147.332C161.948 147.479 161.836 147.655 161.764 147.848C161.693 148.041 161.662 148.247 161.675 148.452C161.688 148.658 161.744 148.859 161.839 149.042C161.934 149.224 162.066 149.385 162.228 149.514C162.389 149.643 162.575 149.736 162.774 149.788C162.973 149.84 163.181 149.85 163.384 149.816C163.587 149.783 163.781 149.707 163.952 149.594C164.124 149.481 164.27 149.333 164.381 149.159L164.511 148.987C164.554 148.929 164.593 148.869 164.628 148.807L162.341 147.026Z" fill="#007fde"/>
<path d="M158.094 154.368C157.87 154.177 157.677 153.953 157.521 153.703C157.385 153.487 157.287 153.25 157.232 153.002C157.182 152.77 157.175 152.531 157.21 152.297C157.247 152.062 157.323 151.835 157.435 151.626C157.356 151.582 157.265 151.569 157.178 151.59C157.075 151.614 156.977 151.657 156.888 151.714C156.769 151.787 156.657 151.87 156.554 151.963L156.192 152.304L155.77 151.645C155.971 151.429 156.191 151.23 156.427 151.053C156.602 150.916 156.798 150.806 157.006 150.728C157.176 150.666 157.357 150.644 157.537 150.662C157.717 150.685 157.892 150.738 158.055 150.817C158.254 150.64 158.481 150.498 158.728 150.397C158.969 150.301 159.227 150.253 159.487 150.256C159.762 150.261 160.034 150.319 160.288 150.427C160.583 150.555 160.855 150.731 161.092 150.949C161.363 151.177 161.586 151.456 161.748 151.771C161.883 152.043 161.962 152.34 161.977 152.644C161.992 152.933 161.945 153.222 161.838 153.491C161.727 153.762 161.569 154.012 161.371 154.228C161.172 154.456 160.935 154.647 160.67 154.792C160.419 154.929 160.142 155.01 159.857 155.03C159.555 155.049 159.252 155.004 158.968 154.898C158.646 154.778 158.349 154.599 158.094 154.368ZM160.408 151.745C160.256 151.608 160.085 151.493 159.9 151.405C159.739 151.33 159.567 151.285 159.39 151.273C159.228 151.265 159.066 151.294 158.917 151.358C158.754 151.431 158.61 151.54 158.495 151.676C158.377 151.806 158.289 151.961 158.238 152.129C158.187 152.287 158.178 152.456 158.21 152.619C158.243 152.792 158.309 152.958 158.404 153.108C158.511 153.283 158.646 153.439 158.802 153.572C158.955 153.712 159.128 153.827 159.316 153.915C159.476 153.992 159.65 154.038 159.827 154.05C159.991 154.058 160.154 154.028 160.304 153.963C160.464 153.889 160.607 153.781 160.723 153.647C160.843 153.516 160.932 153.359 160.981 153.189C161.025 153.03 161.033 152.863 161.006 152.701C160.97 152.527 160.905 152.362 160.812 152.212C160.7 152.037 160.563 151.881 160.404 151.747L160.408 151.745Z" fill="#007fde"/>
<path d="M158.993 156.705L158.277 157.444L154.989 154.251L155.705 153.512L158.993 156.705Z" fill="#007fde"/>
<path d="M152.596 159.746C152.394 159.533 152.223 159.291 152.09 159.029C151.974 158.803 151.898 158.558 151.864 158.306C151.837 158.071 151.852 157.832 151.909 157.602C151.971 157.375 152.069 157.16 152.2 156.965C152.124 156.917 152.034 156.897 151.946 156.908C151.842 156.925 151.742 156.957 151.649 157.004C151.523 157.061 151.403 157.128 151.289 157.206L150.901 157.509L150.534 156.814C150.757 156.617 150.996 156.439 151.25 156.284C151.438 156.168 151.642 156.08 151.856 156.024C152.033 155.978 152.218 155.973 152.397 156.01C152.573 156.047 152.741 156.113 152.895 156.205C153.11 156.048 153.35 155.928 153.604 155.849C153.852 155.776 154.113 155.752 154.37 155.78C154.644 155.81 154.909 155.893 155.151 156.025C155.434 156.178 155.69 156.378 155.909 156.615C156.155 156.868 156.35 157.166 156.482 157.493C156.594 157.778 156.645 158.081 156.633 158.386C156.621 158.675 156.547 158.957 156.417 159.215C156.284 159.48 156.106 159.719 155.891 159.923C155.671 160.129 155.418 160.297 155.142 160.419C154.874 160.537 154.584 160.595 154.291 160.588C153.988 160.581 153.691 160.509 153.419 160.376C153.107 160.22 152.828 160.006 152.596 159.746ZM155.15 157.363C155.011 157.212 154.85 157.082 154.673 156.977C154.519 156.881 154.349 156.815 154.171 156.784C154.009 156.76 153.844 156.775 153.689 156.827C153.522 156.884 153.369 156.978 153.242 157.101C153.111 157.219 153.008 157.366 152.943 157.53C152.879 157.682 152.854 157.848 152.869 158.013C152.885 158.188 152.934 158.358 153.013 158.515C153.108 158.699 153.228 158.868 153.371 159.017C153.513 159.168 153.676 159.299 153.854 159.405C154.007 159.501 154.177 159.567 154.355 159.598C154.517 159.62 154.682 159.606 154.837 159.555C155.005 159.498 155.158 159.404 155.284 159.281C155.417 159.162 155.52 159.013 155.585 158.846C155.643 158.694 155.666 158.53 155.652 158.367C155.635 158.191 155.585 158.02 155.505 157.861C155.411 157.673 155.288 157.501 155.142 157.349L155.15 157.363Z" fill="#007fde"/>
<path d="M148.439 163.218C148.212 162.947 148.038 162.637 147.925 162.302C147.825 162.017 147.788 161.714 147.815 161.414C147.843 161.127 147.935 160.85 148.084 160.604C148.242 160.341 148.444 160.107 148.681 159.913C148.914 159.72 149.18 159.571 149.466 159.472C149.736 159.374 150.024 159.336 150.311 159.359C150.611 159.385 150.902 159.476 151.165 159.624C151.472 159.8 151.742 160.033 151.962 160.311C152.191 160.58 152.366 160.891 152.477 161.227C152.568 161.517 152.599 161.822 152.568 162.124C152.539 162.412 152.448 162.69 152.301 162.939C151.994 163.457 151.517 163.852 150.951 164.057C150.679 164.156 150.388 164.194 150.1 164.169C149.799 164.14 149.508 164.049 149.244 163.9C148.935 163.726 148.662 163.494 148.439 163.218ZM151.134 160.994C151.004 160.833 150.851 160.691 150.681 160.574C150.535 160.477 150.372 160.407 150.201 160.369C150.045 160.333 149.883 160.333 149.728 160.369C149.559 160.421 149.403 160.508 149.271 160.626C149.134 160.737 149.023 160.877 148.947 161.035C148.872 161.183 148.835 161.347 148.841 161.512C148.846 161.688 148.885 161.861 148.956 162.022C149.037 162.211 149.145 162.387 149.277 162.544C149.408 162.705 149.562 162.848 149.733 162.967C149.878 163.065 150.041 163.135 150.212 163.172C150.374 163.208 150.542 163.203 150.702 163.158C150.869 163.106 151.024 163.02 151.155 162.904C151.295 162.794 151.407 162.653 151.483 162.492C151.553 162.342 151.587 162.179 151.583 162.013C151.578 161.836 151.538 161.662 151.466 161.5C151.379 161.317 151.267 161.146 151.134 160.994Z" fill="#007fde"/>
<path d="M146.334 167.621L145.809 166.915L146.921 166.096L144.725 163.111L145.555 162.498L147.751 165.483L148.863 164.664L149.384 165.373L146.334 167.621Z" fill="#007fde"/>
<path d="M144.064 169.143L143.2 169.703L140.721 165.861L141.585 165.3L144.064 169.143Z" fill="#007fde"/>
<path d="M137.1 168.046C137.62 168.348 138.159 168.633 138.715 168.899C139.261 169.165 139.823 169.396 140.397 169.592L138.869 167.005L139.746 166.485L142.075 170.439L141.355 170.844C141.156 170.794 140.925 170.719 140.666 170.628C140.406 170.536 140.146 170.445 139.861 170.316C139.575 170.186 139.296 170.077 139.011 169.948C138.725 169.819 138.449 169.689 138.193 169.563L139.57 171.897L138.688 172.417L136.355 168.464L137.1 168.046Z" fill="#007fde"/>
<path d="M134.609 170.294C134.501 170.347 134.4 170.414 134.308 170.491C134.243 170.545 134.19 170.612 134.153 170.687C134.119 170.743 134.105 170.809 134.116 170.874C134.123 170.939 134.142 171.002 134.173 171.06C134.208 171.126 134.26 171.183 134.322 171.224C134.385 171.265 134.457 171.289 134.532 171.295C134.798 171.313 135.065 171.296 135.326 171.243C135.484 171.221 135.642 171.208 135.808 171.2C135.973 171.186 136.139 171.197 136.3 171.233C136.455 171.273 136.602 171.342 136.732 171.436C136.879 171.55 136.998 171.696 137.08 171.863C137.173 172.036 137.226 172.229 137.235 172.425C137.244 172.609 137.209 172.792 137.131 172.958C137.052 173.142 136.936 173.308 136.789 173.444C136.619 173.609 136.425 173.747 136.214 173.853C135.977 173.983 135.722 174.078 135.458 174.134C135.264 174.174 135.066 174.195 134.868 174.196L134.743 173.316C134.895 173.316 135.046 173.303 135.196 173.28C135.384 173.243 135.564 173.179 135.732 173.088C135.902 173.016 136.049 172.899 136.158 172.75C136.189 172.697 136.206 172.637 136.205 172.575C136.205 172.513 136.188 172.453 136.156 172.4C136.125 172.331 136.073 172.274 136.007 172.237C135.937 172.204 135.861 172.184 135.784 172.177C135.691 172.168 135.596 172.169 135.503 172.183L135.171 172.222C134.919 172.255 134.696 172.271 134.5 172.276C134.326 172.281 134.153 172.256 133.986 172.204C133.831 172.155 133.689 172.073 133.568 171.964C133.43 171.833 133.317 171.678 133.235 171.506C133.138 171.343 133.081 171.158 133.071 170.969C133.06 170.779 133.095 170.59 133.172 170.417C133.405 169.996 133.771 169.666 134.212 169.477C134.373 169.391 134.541 169.317 134.713 169.257C134.847 169.21 134.985 169.173 135.124 169.146C135.236 169.121 135.35 169.104 135.465 169.096C135.55 169.09 135.634 169.088 135.718 169.092L135.846 169.969C135.665 169.965 135.484 169.982 135.307 170.02C135.063 170.079 134.828 170.171 134.609 170.294Z" fill="#007fde"/>
<path d="M130.813 176.334L130.445 175.534L131.702 174.957L130.149 171.592L131.086 171.161L132.639 174.526L133.905 173.957L134.274 174.757L130.813 176.334Z" fill="#007fde"/>
<path d="M129.954 176.683L129.001 177.076L127.244 172.843L128.198 172.45L129.954 176.683Z" fill="#007fde"/>
<path d="M124.586 178.757L124.299 177.926L125.596 177.445L124.304 173.971L125.272 173.613L126.561 177.089L127.856 176.613L128.162 177.437L124.586 178.757Z" fill="#007fde"/>
<path d="M120.554 175.132C120.822 175.042 121.105 175.003 121.388 175.015C121.617 175.025 121.84 175.088 122.041 175.199C122.242 175.311 122.414 175.467 122.543 175.657C122.685 175.863 122.795 176.09 122.868 176.329L123.711 179.053L122.728 179.359L121.907 176.716C121.865 176.562 121.798 176.415 121.706 176.283C121.64 176.181 121.553 176.094 121.45 176.029C121.358 175.973 121.252 175.942 121.144 175.939C121.029 175.939 120.914 175.956 120.805 175.992C120.696 176.02 120.595 176.07 120.506 176.138C120.418 176.207 120.344 176.293 120.29 176.391C120.178 176.656 120.176 176.956 120.284 177.224L121.105 179.866L120.119 180.168L119.282 177.421C119.204 177.181 119.166 176.93 119.169 176.678C119.171 176.451 119.225 176.228 119.327 176.025C119.434 175.815 119.588 175.633 119.776 175.493C120.013 175.33 120.276 175.208 120.554 175.132Z" fill="#007fde"/>
<path d="M115.57 181.331L115.357 180.479L116.695 180.14L115.791 176.548L116.79 176.296L117.696 179.891L119.034 179.558L119.247 180.411L115.57 181.331Z" fill="#007fde"/>
<path d="M114.658 181.511L113.652 181.725L112.704 177.237L113.71 177.023L114.658 181.511Z" fill="#007fde"/>
</g>
<path d="M154.638 81.1629C154.35 81.032 154.031 80.9864 153.718 81.0315C153.405 81.0767 153.111 81.2106 152.872 81.4174L140.726 91.9203V86.1528C140.725 82.946 139.892 79.7943 138.309 77.0059C136.725 74.2175 134.444 71.888 131.69 70.2451L100.908 51.8712C99.3998 50.9692 97.6749 50.4929 95.9172 50.4929C94.1595 50.4929 92.4347 50.9692 90.9261 51.8712L60.153 70.2413C57.3994 71.8845 55.1192 74.2142 53.5354 77.0024C51.9517 79.7907 51.1186 82.9423 51.1175 86.149V88.7464C51.5986 89.2631 52.0834 89.8421 52.581 90.4606C52.9832 90.9607 53.3917 91.4863 53.8116 92.0246L54.0445 92.3224V86.1528C54.0515 83.4536 54.7554 80.802 56.088 78.4547C57.4206 76.1075 59.3368 74.1441 61.6509 72.7547L92.4316 54.3846C93.4867 53.7537 94.693 53.4206 95.9223 53.4206C97.1517 53.4206 98.358 53.7537 99.4131 54.3846L130.192 72.7547C132.507 74.1441 134.423 76.1075 135.755 78.4547C137.088 80.802 137.792 83.4536 137.799 86.1528V94.4451L126.078 104.579L126.114 105.292C126.146 105.949 126.018 106.605 125.74 107.202C125.462 107.798 125.043 108.319 124.519 108.717L123.262 109.674C122.315 109.178 121.268 108.903 120.2 108.871C119.131 108.839 118.07 109.05 117.095 109.489C116.12 109.928 115.258 110.583 114.574 111.404C113.89 112.225 113.401 113.191 113.146 114.229C112.89 115.267 112.874 116.35 113.099 117.395C113.323 118.44 113.783 119.42 114.442 120.261C115.101 121.102 115.944 121.783 116.905 122.25C117.866 122.718 118.921 122.961 119.99 122.961H120.108L121.049 123.568C122.8 124.7 124.728 125.532 126.753 126.031L126.772 126.052L128.099 127.515L129.428 128.979L138.141 138.578H126.648C125.719 138.579 124.801 138.375 123.96 137.981C123.118 137.586 122.374 137.012 121.779 136.298L115.671 128.979L115.532 128.812C115.187 128.398 114.866 127.965 114.57 127.515C114.259 127.045 113.977 126.556 113.726 126.052C112.722 124.05 112.199 121.842 112.199 119.602V91.1618C112.199 90.4831 112.065 89.8111 111.806 89.1841C111.546 88.557 111.165 87.9873 110.685 87.5074C110.205 87.0275 109.636 86.6468 109.009 86.3871C108.382 86.1274 107.71 85.9937 107.031 85.9937C106.352 85.9937 105.68 86.1274 105.053 86.3871C104.426 86.6468 103.856 87.0275 103.377 87.5074C102.897 87.9873 102.516 88.557 102.256 89.1841C101.997 89.8111 101.863 90.4831 101.863 91.1618V134.831C101.861 135 101.794 135.161 101.675 135.28C101.556 135.399 101.395 135.466 101.227 135.468C101.058 135.468 100.896 135.401 100.777 135.281C100.657 135.162 100.59 135 100.59 134.831V106.261C100.59 104.979 100.081 103.749 99.1739 102.842C98.267 101.935 97.0369 101.425 95.7544 101.425C94.4718 101.425 93.2418 101.935 92.3348 102.842C91.4279 103.749 90.9184 104.979 90.9184 106.261V134.587C90.9193 134.704 90.8968 134.821 90.8523 134.929C90.8079 135.037 90.7423 135.136 90.6594 135.219C90.5765 135.302 90.478 135.367 90.3695 135.412C90.261 135.456 90.1448 135.479 90.0276 135.478C89.7913 135.478 89.5648 135.384 89.3977 135.217C89.2306 135.05 89.1368 134.823 89.1368 134.587V95.2189C89.1368 94.4919 88.9936 93.772 88.7154 93.1004C88.4372 92.4288 88.0294 91.8185 87.5154 91.3044C87.0013 90.7904 86.391 90.3826 85.7194 90.1044C85.0478 89.8262 84.3279 89.683 83.6009 89.683C82.8739 89.683 82.1541 89.8262 81.4824 90.1044C80.8108 90.3826 80.2005 90.7904 79.6865 91.3044C79.1724 91.8185 78.7647 92.4288 78.4865 93.1004C78.2082 93.772 78.0651 94.4919 78.0651 95.2189V119.692C78.0686 121.899 77.5621 124.077 76.585 126.056C76.3375 126.56 76.0595 127.048 75.7527 127.519C75.4219 128.03 75.0584 128.519 74.6646 128.983C74.5077 129.167 74.3461 129.348 74.1798 129.527L67.58 136.575C66.9855 137.207 66.2681 137.711 65.4717 138.057C64.6754 138.402 63.8169 138.58 62.949 138.582H50.919C53.846 136.082 58.4363 132.092 61.6624 128.983C62.1969 128.466 62.6932 127.975 63.1386 127.519C63.3507 127.301 63.5505 127.092 63.738 126.893C63.9976 126.615 64.2419 126.336 64.471 126.056C66.7006 123.313 67.4158 120.456 66.4805 117.936C64.9775 113.878 60.7995 112.743 55.0155 111.171L54.0458 110.908L54.0242 110.901C53.5314 110.768 53.0494 110.598 52.5823 110.392C52.0662 110.165 51.5756 109.883 51.1188 109.552C48.9859 108.015 47.2322 105.158 44.5483 99.4274C41.4698 92.8531 39.5686 87.106 39.3204 83.6636C39.2593 82.788 39.5749 82.2433 40.2596 82.0435C40.9672 81.8386 41.97 82.0842 42.4319 82.9445C43.3609 84.6715 44.0672 86.0637 44.5419 87.0296C44.6539 87.2574 44.7532 87.4623 44.8397 87.6405C44.8393 87.6367 44.8393 87.6328 44.8397 87.629C45.3768 86.7509 46.3172 86.3017 47.4193 86.3946L47.4867 86.4009C47.0235 85.4376 46.1963 83.773 45.0026 81.5561C44.4771 80.595 43.6401 79.8414 42.6294 79.4193C41.6186 78.9972 40.4942 78.9317 39.4413 79.2336C37.4369 79.8152 36.2432 81.635 36.401 83.8697C36.7688 89.0531 40.0025 96.6213 41.8974 100.669C45.1057 107.522 47.3302 111.143 51.1188 112.941C51.5934 113.166 52.0823 113.36 52.5823 113.52C52.7995 113.592 53.0226 113.659 53.2517 113.721L54.0458 113.938L54.2481 113.992C59.994 115.553 62.7975 116.41 63.7355 118.948C64.5385 121.111 63.0177 123.374 61.6 124.889C61.264 125.247 60.8835 125.638 60.4674 126.052C60.0042 126.512 59.4964 127.004 58.9568 127.515C58.4567 127.989 57.9311 128.479 57.3877 128.979C54.4378 131.689 51.003 134.66 48.7339 136.597C48.3005 136.967 47.9909 137.461 47.8469 138.012C47.703 138.564 47.7315 139.146 47.9287 139.681C48.1259 140.216 48.4822 140.678 48.9498 141.004C49.4173 141.33 49.9735 141.505 50.5436 141.505H62.9464C64.2142 141.504 65.4684 141.244 66.632 140.74C67.7956 140.237 68.844 139.501 69.7129 138.578L76.3139 131.53C77.0499 130.745 77.7111 129.893 78.289 128.985C78.5923 128.512 78.8709 128.023 79.1239 127.522C79.3682 127.045 79.5879 126.557 79.7831 126.058C80.5826 124.032 80.9919 121.873 80.9895 119.695V95.2189C80.9895 94.527 81.2644 93.8634 81.7536 93.3741C82.2429 92.8849 82.9065 92.61 83.5984 92.61C84.2903 92.61 84.9539 92.8849 85.4431 93.3741C85.9324 93.8634 86.2072 94.527 86.2072 95.2189V134.587C86.2072 135.598 86.6081 136.567 87.3218 137.283C88.0356 137.999 89.0041 138.402 90.0149 138.405H90.0212C91.0338 138.405 92.0049 138.003 92.7209 137.287C93.4368 136.571 93.8391 135.6 93.8391 134.587V106.261C93.8391 105.755 94.0402 105.27 94.3982 104.912C94.7562 104.554 95.2417 104.352 95.748 104.352C96.2543 104.352 96.7398 104.554 97.0978 104.912C97.4558 105.27 97.6569 105.755 97.6569 106.261V134.831C97.6569 135.776 98.0323 136.683 98.7006 137.351C99.3688 138.019 100.275 138.395 101.22 138.395H101.227C102.171 138.392 103.075 138.015 103.743 137.348C104.41 136.68 104.787 135.776 104.79 134.831V91.1618C104.79 90.5674 105.026 89.9974 105.446 89.5771C105.867 89.1568 106.437 88.9207 107.031 88.9207C107.625 88.9207 108.195 89.1568 108.616 89.5771C109.036 89.9974 109.272 90.5674 109.272 91.1618V119.602C109.273 121.812 109.697 124.001 110.522 126.052C110.72 126.549 110.944 127.038 111.189 127.515C111.443 128.015 111.725 128.503 112.035 128.979C112.417 129.574 112.836 130.145 113.288 130.688L119.528 138.176C120.398 139.221 121.487 140.062 122.719 140.638C123.951 141.215 125.295 141.512 126.655 141.509H138.463C139.003 141.508 139.531 141.351 139.983 141.057C140.435 140.762 140.792 140.343 141.01 139.85C141.229 139.356 141.3 138.81 141.214 138.278C141.128 137.745 140.89 137.248 140.527 136.849L133.388 128.983L130.731 126.056L128.313 123.383L127.857 123.283C126.462 122.977 125.115 122.484 123.852 121.816C124.834 121.177 125.64 120.302 126.198 119.272C126.756 118.242 127.049 117.089 127.049 115.918C127.049 115.808 127.047 115.699 127.042 115.59L128.303 114.887C128.738 114.646 129.233 114.533 129.729 114.562C130.226 114.591 130.704 114.76 131.109 115.05L132.063 115.736L137.812 110.603L139.275 109.297L140.739 107.991L154.722 95.5052C155.003 95.2543 155.227 94.9469 155.381 94.6033C155.534 94.2596 155.613 93.8874 155.613 93.511V82.6607C155.611 82.3439 155.518 82.0344 155.345 81.7689C155.172 81.5033 154.927 81.293 154.638 81.1629ZM119.99 120.035C119.175 120.035 118.379 119.793 117.701 119.341C117.024 118.888 116.496 118.245 116.184 117.492C115.872 116.739 115.791 115.911 115.95 115.112C116.109 114.313 116.501 113.579 117.077 113.002C117.653 112.426 118.387 112.034 119.186 111.875C119.985 111.716 120.814 111.798 121.566 112.109C122.319 112.421 122.963 112.949 123.415 113.627C123.868 114.304 124.109 115.101 124.109 115.915C124.108 117.007 123.674 118.054 122.901 118.827C122.129 119.599 121.082 120.033 119.99 120.035ZM152.676 93.3952L140.726 104.07L139.262 105.377L137.799 106.684L131.751 112.082C130.971 111.75 130.125 111.6 129.279 111.645C128.432 111.689 127.606 111.925 126.865 112.337L126.245 112.682C126.049 112.306 125.82 111.949 125.56 111.614L126.292 111.057C127.095 110.445 127.756 109.667 128.229 108.776C128.702 107.885 128.976 106.902 129.033 105.895L137.798 98.3151L139.261 97.0502L140.725 95.7839L152.674 85.4503L152.676 93.3952Z" fill="#007fde"/>
<path d="M75.4483 114.887C75.0768 114.93 74.7028 114.83 74.4032 114.606C74.1036 114.382 73.901 114.052 73.8372 113.683C73.3931 111.11 72.3444 106.871 70.5755 105.122C68.1283 102.704 65.8668 102.176 63.2542 101.567C61.0182 101.045 58.4831 100.454 55.7877 98.5403C55.1529 98.0668 54.5691 97.5285 54.0455 96.9343C53.9857 96.8681 53.9246 96.807 53.8648 96.7345L53.6841 96.5296L53.5021 96.3183C53.198 95.9633 52.8926 95.5891 52.582 95.201C52.227 94.7569 51.8681 94.2962 51.5041 93.8291L51.1224 93.3353C50.3232 92.3173 49.5138 91.2992 48.7744 90.5356C47.9497 89.6804 47.489 89.4246 47.2943 89.3483C47.1671 90.1716 47.7232 92.6647 49.8065 96.0091C50.2123 96.6592 50.6515 97.2879 51.1224 97.8926C51.6059 98.5136 52.0997 99.0799 52.5859 99.5928C53.0949 100.125 53.5836 100.599 54.0494 101.016C54.653 101.558 55.2851 102.068 55.943 102.543C56.236 102.753 56.4409 103.064 56.5184 103.417C56.5959 103.769 56.5405 104.138 56.363 104.452C56.2619 104.63 56.1244 104.785 55.9594 104.907C55.7945 105.029 55.6057 105.115 55.4054 105.159C55.205 105.203 54.9977 105.205 54.7967 105.164C54.5958 105.122 54.4057 105.039 54.239 104.92L54.0494 104.782C53.9501 104.709 53.8457 104.632 53.7376 104.55L53.5187 104.382C53.2277 104.157 52.9167 103.904 52.5859 103.624C52.1239 103.231 51.6301 102.784 51.1224 102.283C49.6727 100.861 48.3959 99.2728 47.3185 97.5515C46.3132 95.9315 43.1494 90.4312 44.8395 87.6404C44.8391 87.6366 44.8391 87.6328 44.8395 87.629C45.3765 86.7509 46.317 86.3016 47.4191 86.3945L47.4865 86.4009C48.7197 86.5281 49.9045 87.4419 51.1122 88.7501C51.5932 89.2668 52.0781 89.8458 52.5757 90.4643C52.9778 90.9645 53.3863 91.4901 53.8063 92.0284L54.0392 92.3262C55.2647 93.8991 56.5119 95.467 57.4752 96.1529C59.6998 97.7335 61.7448 98.2094 63.9096 98.7147C66.7017 99.365 69.5892 100.038 72.6244 103.042C75.1314 105.521 76.2768 110.596 76.7171 113.189C76.75 113.385 76.743 113.585 76.6964 113.777C76.6498 113.97 76.5646 114.151 76.446 114.31C76.3274 114.468 76.1778 114.601 76.0063 114.701C75.8349 114.8 75.645 114.863 75.4483 114.887Z" fill="#007fde"/>
<path d="M107.017 84.4029C105.996 84.4962 104.971 84.2727 104.082 83.7627C103.192 83.2527 102.482 82.481 102.047 81.5528C101.612 80.6245 101.473 79.5847 101.65 78.575C101.827 77.5652 102.311 76.6345 103.036 75.9097C103.761 75.1848 104.692 74.7009 105.701 74.5238C106.711 74.3468 107.751 74.4852 108.679 74.9203C109.607 75.3553 110.379 76.0659 110.889 76.9552C111.399 77.8445 111.623 78.8693 111.529 79.8902C111.422 81.051 110.913 82.1378 110.088 82.962C109.264 83.7863 108.177 84.2961 107.017 84.4029ZM106.785 77.261C106.336 77.2151 105.883 77.3094 105.489 77.531C105.096 77.7527 104.78 78.0908 104.586 78.4989C104.393 78.907 104.33 79.3652 104.407 79.8103C104.484 80.2555 104.697 80.6659 105.017 80.9852C105.336 81.3044 105.747 81.5169 106.192 81.5933C106.637 81.6698 107.096 81.6065 107.503 81.4122C107.911 81.2179 108.249 80.902 108.47 80.5081C108.691 80.1141 108.785 79.6613 108.738 79.2119C108.686 78.7121 108.464 78.2453 108.109 77.89C107.753 77.5348 107.286 77.3127 106.786 77.261H106.785Z" fill="#6AD4B0"/>
<path d="M83.9287 88.1496C82.9076 88.2439 81.8823 88.0213 80.9923 87.5119C80.1024 87.0026 79.391 86.2313 78.9552 85.3031C78.5194 84.3749 78.3803 83.335 78.5568 82.3249C78.7333 81.3148 79.2168 80.3836 79.9416 79.6582C80.6664 78.9329 81.5971 78.4485 82.6071 78.2712C83.617 78.0938 84.6571 78.2321 85.5856 78.6671C86.5142 79.1021 87.2861 79.8128 87.7962 80.7023C88.3063 81.5919 88.5298 82.617 88.4363 83.6381C88.3289 84.7977 87.8195 85.8833 86.9964 86.7071C86.1733 87.5309 85.0882 88.0411 83.9287 88.1496ZM83.6983 81.0064C83.2489 80.9601 82.7962 81.0542 82.4024 81.2756C82.0085 81.497 81.6929 81.8349 81.4989 82.2429C81.3048 82.6509 81.2418 83.1089 81.3186 83.5542C81.3953 83.9994 81.6081 84.4099 81.9275 84.7294C82.247 85.0489 82.6575 85.2616 83.1028 85.3383C83.548 85.4151 84.0061 85.3521 84.414 85.158C84.822 84.964 85.1599 84.6484 85.3813 84.2545C85.6027 83.8607 85.6968 83.408 85.6505 82.9586C85.5988 82.4585 85.3765 81.9914 85.021 81.6359C84.6655 81.2804 84.1984 81.0581 83.6983 81.0064Z" fill="#F592BF"/>
<path d="M96.1639 99.458C95.2774 99.5542 94.3829 99.3729 93.6038 98.9392C92.8247 98.5055 92.1994 97.8406 91.8141 97.0365C91.4289 96.2323 91.3027 95.3283 91.4529 94.4494C91.6032 93.5704 92.0225 92.7598 92.653 92.1292C93.2836 91.4987 94.0942 91.0794 94.9732 90.9291C95.8521 90.7789 96.7561 90.9051 97.5603 91.2903C98.3644 91.6756 99.0293 92.3009 99.463 93.08C99.8967 93.8591 100.078 94.7536 99.9818 95.6401C99.8751 96.6161 99.4386 97.5264 98.7444 98.2206C98.0502 98.9148 97.1399 99.3513 96.1639 99.458ZM95.8929 93.6816C95.5804 93.6404 95.263 93.6981 94.9851 93.8466C94.7071 93.9952 94.4827 94.227 94.3433 94.5096C94.2039 94.7922 94.1566 95.1114 94.2079 95.4223C94.2592 95.7332 94.4066 96.0202 94.6295 96.243C94.8523 96.4659 95.1393 96.6133 95.4502 96.6646C95.7611 96.7159 96.0803 96.6686 96.3629 96.5292C96.6455 96.3898 96.8773 96.1654 97.0259 95.8874C97.1744 95.6095 97.2321 95.2921 97.1909 94.9796C97.1476 94.6506 96.9968 94.345 96.7622 94.1103C96.5275 93.8757 96.2219 93.7249 95.8929 93.6816Z" fill="#F9CF66"/>
<circle cx="86.853" cy="179.053" r="2.02758" fill="#007fde"/>
<circle cx="107.129" cy="179.053" r="2.02758" fill="#007fde"/>
<circle cx="96.484" cy="180.574" r="3.54826" fill="#007fde"/>
</g>
<defs>
<clipPath id="clip0">
<rect width="192" height="192" fill="#007fde"/>
</clipPath>
<clipPath id="clip1">
<rect width="173.993" height="173.993" fill="#007fde" transform="translate(-22.0164 63.1504) rotate(-29.3067)"/>
</clipPath>
</defs>
</svg>
