<?xml version="1.0" encoding="utf-8"?>
<!-- Generator: Adobe Illustrator 19.1.0, SVG Export Plug-In . SVG Version: 6.00 Build 0)  -->
<svg version="1.1" xmlns="http://www.w3.org/2000/svg" xmlns:xlink="http://www.w3.org/1999/xlink" x="0px" y="0px"
	 viewBox="0 0 800 600" style="enable-background:new 0 0 800 600;" xml:space="preserve">
<style type="text/css">
	.st0{fill:#BACE6B;stroke:#808080;stroke-width:0.5;stroke-linecap:round;stroke-linejoin:round;}
	.st1{fill:#AC8FC7;stroke:#808080;stroke-width:0.5;stroke-linecap:round;stroke-linejoin:round;}
	.st2{fill:#FBD165;stroke:#808080;stroke-width:0.5;stroke-linecap:round;stroke-linejoin:round;}
	.st3{fill:#E89BBD;stroke:#808080;stroke-width:0.5;stroke-linecap:round;stroke-linejoin:round;}
	.st4{fill:#F8A758;stroke:#808080;stroke-width:0.5;stroke-linecap:round;stroke-linejoin:round;}
	.st5{fill:#89B8E4;stroke:#808080;stroke-width:0.5;stroke-linecap:round;stroke-linejoin:round;}
	.st6{fill:#8EC79A;stroke:#808080;stroke-width:0.5;stroke-linecap:round;stroke-linejoin:round;}
	.st7{fill:#FFEB64;stroke:#808080;stroke-width:0.5;stroke-linecap:round;stroke-linejoin:round;}
	.st8{font-family:'Roboto-Regular';}
	.st9{font-size:14px;}
</style>
<g id="Uzbekistan">
	<path class="st0" d="M711.261,386.042l0.183,0.582l-0.975,3.576l-0.423,0.691l-0.668,0.13l-1.104-0.335l-0.833-0.396l-0.926-0.668
		l-0.423-0.807l0.699-0.833l1.082-0.058l0.744-0.367l1.572-1.178L711.261,386.042z M721.074,370.753l0.284,0.188l0.24,0.442
		l-0.281,0.61l-0.606,0.154l-0.681-0.113l-0.517-0.212l-0.339-0.076l-0.249,0.038l-0.499,0.16l-1.701-0.142l-1.697-0.413
		l-1.572,0.09l-1.336,1.342l-0.806,1.786l-0.468,0.764l-0.695,0.665l-2.267,1.338l-0.597,0.177l-0.873-0.38l-0.267-0.856
		l0.013-2.305l-0.303-1.142l-0.61-1.273l-0.761-0.663l-0.784,0.703l-0.263,1.075l-0.102,0.973l-0.374,0.648l-1.064,0.104
		l-2.026-0.404l-0.984-0.38l-0.917-0.578l-0.784-0.75l-0.343-0.831l-0.414-0.674l-1.931-0.599l-1.354-1.271l-0.871-0.061
		l-1.352,0.143l-0.71-0.064l-0.597-0.259l-0.448-0.524l-0.383-0.59l-0.436-0.349l-0.615,0.186l-0.672,1.027l-0.381,1.245
		l-0.608,0.951l-1.363,0.137l-5.006-0.721l-2.503,0.43l-1.559,1.587l-0.888-0.087l-3.819,0.346l-6.142,1.888l-1.848,0.151
		l-1.817-0.116l-1.737-1.246l-0.77-2.389l-0.575-2.602l-1.145-1.874l-0.953-0.399l-0.82,0.087l-0.81,0.25l-0.944,0.084l-0.904-0.262
		l-2.147-0.955l0.583-1.96l-0.12-0.239l-0.37-0.443l-0.094-0.087l0.025,0.02l-0.568-0.83l-0.076-0.152l-0.069-0.265l-0.069-1.186
		l0.681-1.093l1.28-0.828l2.966-0.694l0.414-0.169l0.434-0.569l1.038-1.763l0.583-0.584l0.601-0.269l0.637-0.178l0.65-0.307
		l0.55-0.47l1.512-1.875l2.619-2.148l0.646-0.594l0.617-0.485l0.363-0.178l0.708-0.161l0.147-0.219l0.071-0.266l0.152-0.234
		l0.668-0.421l0.005-0.025l1.108-0.695l0.461-0.521l0.396-0.581l0.477-0.52l0.726-0.348l0.581-0.044l1.2,0.123l0.572-0.079
		l2.026-1.82l0.868,0.004l0.677,0.284l0.347,0.243l0.28,0.243l1.376,0.195l4.875-0.264l-2.741,3.737l0.24,0.243l1.686,0.187
		l0.321,0.155l1.225,1.275l0.314,0.184l0.448,0.143l0.788,0.155l0.481,0.178l0.877,0.713l1.953,1.067l0.615,0.193l0.989-0.196
		l2.817-2.655l1.356-2.083l0.844-0.711l3.823-2.078l3.565-1.186l1.283,1.936l0.944,1.815l0.427,0.61l0.18,0.11l0.074-0.999
		l0.26-0.171l0.454,0.018l1.165,0.597l0.568,0.202l0.428,0.05l0.214-0.157l0.474-0.069l0.695,0.051l2.254,0.771l0.477,0.276
		l0.361,0.417l0.387,0.659l1.732,2.367l0.347,0.184l0.401,0.133l1.022,0.165l0.864-0.156l1.229-0.079l2.013,0.674l2.601,0.552
		l0.728-0.074l0.47-0.583l0.428-0.383l0.608,0.44l0.842,1.228l0.307,0.254l0.497,0.052l2.234,0.672l0.608,0.54l0.047,0.286
		l0.013,0.312l-0.033,0.671l-0.154,1.055l-0.12,1.011l0.1,0.779l0.374,1.298l0.053,0.259l0.004,0.02l-1.966,0.103l-0.726,0.19
		l-2.868,1.582l-0.396,0.583l-0.258,1.052l-0.623,1.575l-1.14,1.132l-3.728,1.894l-0.241,0.797l0.307,0.843l0.811,0.587l1.247,0.581
		L721.074,370.753z M677.781,376.616l0.975,0.609l0.722,1.369l0.594,1.534l0.737,0.928l1.169,0.768l2.416,1.011l0.147,0.128
		l0.169,0.101l0.325,0.046l0.214-0.078l0.477-0.385l0.227-0.13l1.1-0.296l0.543,0.101l0.33,0.522l-0.289,0.878l-1.995,1.393
		l-0.701,0.686l0.1,1.447l1.897,2.04l-0.085,1.723l-0.459,0.679l-0.597,0.223l-1.447,0.032l-2.04,0.546l-0.637-0.058l-0.503-0.465
		l-0.105-0.616l-0.207-0.48l-0.819-0.041l-0.481,0.344l-0.592,0.584l-0.61,0.376l-0.543-0.275l-0.071-1.422l1.841-2.896
		l-0.196-1.633l-0.497-0.397l-1.149-0.246l-0.566-0.301l-0.49-0.701l-1.064-2.338l-0.236-0.904l0.047-0.931l0.252-0.989l0.744-1.749
		L677.781,376.616z"/>
	<path class="st1" d="M688.179,260.215l0.144,0.048l-0.646,2.162l-1.603,1.127l-3.558,1.035l-6.088,4.551l-1.777,0.426l-2.12-0.094
		l-1.777,0.47l-0.75,2.116l-0.127,3.315l-0.479,0.969l-1.494,0.569l-4.293,0.493l-1.325,0.791l-4.26,3.65l-1.879,2.216l-1.26,2.714
		l-1.015,1.516l-1.3,0.872l-1.407,0.682l-2.57,2.036l-6.977,4.093l-0.906,1.486l0.788,1.849l1.59,0.836l6.075,0.678l0.004,0.006
		l0.009,0.003l0.009,0.009l1.608,0.977l0.721,0.657l0.63,0.817l1.053,1.983l0.652,0.606l0.758,0.035l-0.49,1.349l-0.394,0.73
		l-2.104,2.812l-0.122,0.32l-0.06,0.418l0.107,0.657l0.013,0.881l0.147,0.301l0.149,0.205l1.189,0.168l0.154,0.457l-0.2,0.797
		l-0.127,0.355l-0.822,1.742l-0.08,0.345l0.013,0.377l0.094,0.383l0.281,0.46l0.862,1.164l0.875,1.482l0.196,1.255l0.087,4.224
		l-0.314,1.313l-0.002,0.009l-0.53-0.579l-1.919-0.8l-1.621,0.429l-1.191,5.997l-2.392,2.797l-3.12,1.88l-4.471,1.774l-4.075,3.135
		l-7.943,2.494l-0.949,0.474l-0.853,0.717l-1.808,2.293l-1.029,0.915l-1.154,0.354l-1.327-0.491l-0.543-0.494l-0.445-0.594
		l-0.788-1.342l-0.477-0.573l-1.087-0.714l-0.508-0.457l-1.679-2.614l-0.975-0.911l-1.376-0.135l-0.673-0.413l-0.539-0.574
		l-0.575-0.466l-0.779-0.088l-1.401,0.46l-0.688,0.381l-0.612,0.513l-1.098,1.418l-0.664,1.476l-0.303,1.697l-0.024,2.083
		l0.296,3.008l-0.178,0.765l-0.619,0.377l-2.617,0.219l-1.543,1.06l-0.018,1.168l1.733,2.93h0.004l0.922,3.178l0.419,1.005
		l1.122,2.022l0.468,1.068l0.274,1.249l-0.318,2.758l-1.387,0.238l-1.659-0.634l-1.131,0.142l0.178,1.663l3.135,2.819v1.33
		l-1.619,0.743l-2.144-0.07l-3.875-1.161l-1.481-0.747l0.005-0.015l0.227-0.736l0.615-2.235l-0.08-0.823l-0.281-0.47l-0.615-1.555
		l0.902-5.164l0.111-0.385l0.256-0.571l0.238-0.42l0.612-0.802l0.18-0.487l-0.071-0.506l-0.156-0.494l-0.087-0.456l-0.272-0.36
		l-0.452-0.43l-0.089-0.456l0.813-0.452l-0.392-0.292l-0.428-0.149L594.977,356l-0.483,0.053l0.488-2.027l0.412-0.781l1.087-0.491
		l-0.018-0.4l-0.269-0.4l-0.39-0.18l-0.414,0.238l-0.454,0.462l-0.427,0.314l-0.334-0.206l0.016-0.419l0.706-0.678l0.16-0.483
		l-0.212-0.532l-0.788-0.658l-0.508-1.412l-0.795-0.066l-1.817,0.351l0.69-1.151l0.16-0.573l-0.407-0.243l-0.657,0.219l-0.601,0.404
		l-0.606,0.196l-0.666-0.398l0.57-0.743l-0.098-0.764l-0.477-0.694l-0.583-0.542l-0.31-0.105l-0.305,0.05l-0.301-0.015l-0.287-0.281
		l-0.04-0.249l0.08-0.662l-0.04-0.249l-0.445-0.917l-0.232-0.296l-0.474-0.372l-1.149-0.585l-0.294-0.224l-0.318-0.434l-0.501-0.966
		l-0.385-0.501l-0.648-0.474l-0.938-0.418l-0.949-0.169l-0.702,0.284l-0.14-0.981l-0.127-0.38l-0.187,0.006l-0.381,0.285
		l-0.229-0.147l-0.109-0.417l-0.058-1.345l-0.14-0.574l-0.343-0.495l-2.183-2.009l0.392-0.172l1.325-0.582l0.439-0.538l0.43-0.532
		l0.791-2.278l0.793-2.276l0.586-0.668l0.599-0.668l1.483-0.651l1.476-0.651l0.537-0.928l0.537-0.922l0.272-0.371l0.283-0.368
		l0.443-0.147l0.445-0.144l0.922-0.121l0.929-0.121l0.773-0.383l0.777-0.377l0.744-0.507l0.735-0.51l0.367-0.363l0.372-0.363
		l0.169-0.327l0.174-0.33l0.334-2.717l0.339-2.716l-0.018-0.47l-0.018-0.473l-0.062-0.337l-0.058-0.334l-0.062-0.103l-0.06-0.104
		l-0.1-0.074l-0.107-0.077l-0.2-0.254l-0.198-0.251l-0.056-0.237l-0.06-0.237l0.1-0.201l0.098-0.201l0.178-0.151l0.178-0.145
		l0.995-0.491l0.995-0.488l0.405-0.127l0.405-0.124l0.403,0.157l0.399,0.16l0.218-0.594l0.218-0.595l0.525-0.518l0.53-0.521
		l1.171-0.746l1.176-0.743l0.352-0.077l0.345-0.071l0.639,0.234l0.637,0.228l0.316-0.044l0.314-0.047l0.831-0.533l0.833-0.536
		l0.318-0.089l0.327-0.089l1.278,0.237l1.287,0.234l0.249-0.151l0.254-0.142l-0.027-0.296l-0.027-0.296l-0.361-0.663l-0.356-0.658
		l-0.076-0.302l-0.082-0.305l0.283-0.75l0.276-0.75l0.574-0.418l0.57-0.418l1.227-0.391l1.227-0.389l2.193-1.726l2.189-1.733
		l0.612-0.715l0.619-0.716l0.363-0.287l0.37-0.289l2.906-0.809l2.906-0.808l2.401-0.092l2.4-0.088l0.9-0.382l0.891-0.382
		l0.657-0.774l0.657-0.771l0.294-0.445l0.294-0.444l0.334-0.272l0.334-0.269l1.205-0.446l1.205-0.44l1.788-1.321l1.795-1.328
		l0.541-0.639l0.548-0.636l1.465-2.531l1.456-2.528l0.312-0.322l0.31-0.319l0.367-0.215l0.374-0.21l0.392-0.14l0.388-0.139
		l0.356-0.185l0.352-0.186l0.274-0.307l0.272-0.31l0.163-0.504l0.151-0.507l0.534-1.176l0.534-1.183l0.917-0.799l0.929-0.799
		l2.104-0.912l2.098-0.91l0.316,0.063l0.321,0.06l0.396,0.284l0.392,0.279l0.345,0.39l0.343,0.386l0.163,0.375l0.156,0.38
		l0.151,0.542l0.151,0.541l0.334,0.339l0.327,0.337l0.457,0.181l0.45,0.182l0.51,0.069l0.514,0.073l0.668-0.324l0.677-0.321
		l0.457-0.853l0.459-0.85l0.399-1.056l0.392-1.057l0.501-0.942l0.505-0.944l0.606-0.723l0.599-0.723l0.227-0.388l0.234-0.388
		l0.174-0.54l0.174-0.536l0.312-0.419l0.307-0.415l0.517-0.021l0.512-0.021l1.002,0.278l0.998,0.277l0.815-0.12l0.815-0.118
		l0.811-0.415l0.81-0.419l1.461-1.195l1.461-1.194l0.94-0.889l1.915-1.406l1.367-0.189l1.372,0.568l6.043,4.338L688.179,260.215z
		 M601.72,316.527l1.368-1.733l2.187-1.983l1.63-0.814l-0.441-0.458l0.307-0.534l-0.441-0.662l-0.595-0.382l0.659-1.136l-0.16-0.926
		l-1.592-1.019l-1.324-0.178l-1.017-0.713l-1.455,0.016l-2.286,2.302l-0.345,1.807l-1.122,2.778l0.125,0.122l0.729-0.432
		l0.077,0.712l0.307,0.636l1.074,1.22l0.691-0.712l0.038,0.229l-0.249,0.559l0.537,0.966L601.72,316.527z"/>
	<path class="st2" d="M654.607,305.914l0.278,0.013l1.47-0.562l5.278-3.036l1.465-0.222l0.815,0.509l0.726,0.974l2.418,4.176
		l0.41,1.168l0.08,1.206l-0.637,3.508l0.076,0.997l0.534,0.779l0.695-0.109l0.837-0.401l0.971-0.094l0.828,0.345l0.775,0.564
		l0.708,0.726l0.594,0.82l0.786,0.746l0.859,0.091l1.853-0.28l2.049,0.374l0.962,0.442l0.886,0.701l0.784,0.439l1.608,0.218
		l0.69,0.56l1.091,1.835l0.677,0.459l0.423-1.101l-0.089-1.196l-0.209-1.022l0.116-0.79l0.891-0.486l1.024,0.085l0.49,0.69
		l0.53,2.148l0.412,0.798l0.55,0.589l0.575-0.041l0.463-1.093l1.078-1.384l2.948,2.542l0.966-0.833l0.232-1.98l-0.383-9.855
		l0.267-0.727l0.59,0.148l2.075,1.947l1.862,0.806l1.47-0.289l1.189-1.246l1.434-3.103l0.615-1.919l0.187-1.142l-0.16-1.051
		l-1.211-1.56l-0.432-0.953v-0.012l-0.005-0.006l0.855-2.198l0.521-0.634l0.953-0.385l0.944,0.145l0.548,0.765l0.227,1.114
		l0.004,1.194l-0.793,3.218l0.036,0.695l0.41,0.151l0.254-0.467l0.178-0.624l0.2-0.317l0.463,0.192l0.232,0.92l0.405,0.186
		l0.347-0.305l0.031-1.207l0.276-0.243l0.361,0.148l0.343,0.317l4.044,6.036l0.69,1.693l0.249,1.884l-0.107,2.435l0.227,2.403
		l1.122,0.545l3.42-0.587l1.042,0.867l0.659,0.94l0.744,0.395l1.287-0.775l0.931-0.837l1.002-0.657l1.051-0.165l1.1,0.651
		l0.494,1.096l0.205,1.553l0.076,1.626l0.396,2.976v1.115l-0.294,1.017l-0.588,1.355l1.308-0.398l-0.248,0.924l-1.029,4.73
		l-0.327,0.307l-0.194,0.11l-0.26,0.116l-0.65,0.12l-2.587,0.106l-0.708,0.138l-0.755-0.085l-5.645-1.366l-1.182,0.113l-1.038-0.078
		h-0.942l-0.501,0.15l-1.799,0.858l-1.43-0.718l-4.458,1.19l-0.559,0.833l-0.541,0.39l-1.403,1.299l-0.183,0.326l0.04,0.389
		l0.517,0.682l0.681,1.426l-1.242,1.22l-3.565,1.186l-3.823,2.078l-0.844,0.711l-1.356,2.083l-2.817,2.655l-0.989,0.196
		l-0.615-0.193l-1.953-1.067l-0.877-0.713l-0.481-0.178l-0.788-0.155l-0.448-0.143l-0.314-0.184l-1.225-1.275l-0.321-0.155
		l-1.686-0.187l-0.24-0.243l2.741-3.737l-4.875,0.264l-1.376-0.195l-0.28-0.243l-0.347-0.243l-0.677-0.284l-0.868-0.004l-2.026,1.82
		l-0.572,0.079l-1.2-0.123l-0.581,0.044l-0.726,0.348l-0.477,0.52l-0.396,0.581l-0.461,0.521l-1.108,0.695l0.095-0.473l0.372-1.908
		l-1.648-0.954l-3.941-0.914l-0.675-0.873l-0.105-0.976l0.405-0.718l0.859-0.094l1.499,1.304l0.848,0.316l0.085-1.049l-0.356-0.498
		l-7.861-8.88l-1.358-1.19l-0.136-0.168l-0.109-0.191l-0.828-0.905l0.002-0.009l0.314-1.313l-0.087-4.224l-0.196-1.255l-0.875-1.482
		l-0.862-1.164l-0.281-0.46l-0.094-0.383l-0.013-0.377l0.08-0.345l0.822-1.742l0.127-0.355l0.2-0.797l-0.154-0.457l-1.189-0.168
		l-0.149-0.205l-0.147-0.301l-0.013-0.881l-0.107-0.657l0.06-0.418l0.122-0.32l2.104-2.812l0.394-0.73L654.607,305.914z
		 M658.706,327.969l-0.695,0.179l0.503,1.173l0.045,0.047l0.717,0.735l1.26,1.701l0.726,0.696l0.855,0.2l-0.071-0.972l-0.557-1.372
		l-0.597-0.973l-1-0.902L658.706,327.969z"/>
	<path class="st3" d="M769.414,338.372l0.355,0.081l0.003,0.001l0.227,1.143l-1.318,1.743l-2.044,1.16l-4.044,1.496l-3.697,2.321
		l-3.104,0.793l-1.51,0.646l-1.029,1.579l-0.503,3.769l-1.256,0.578l-1.585-0.724l-0.784-0.006l-0.334,0.94l-0.058,0.835l-0.2,0.803
		l-0.414,0.695l-0.664,0.528l-1.71,0.099l-3.037-2.084l-1.661-0.222l-1.242-0.616l-1.425-1.662l-1.434-1.259l-1.278,0.576
		l-0.146,0.93l-0.001,0.007l0.924,1.551l0.007,0.011l-0.005,1.01l-0.289,0.919l0.009,0.63l0,0.006l0.378,0.51l1.867,1.351
		l0.003,0.002l0.188,0.466l0.261,0.648l0.005,0.012l-0.044,1.318l-0.463,1.425l-0.877,1.2l-1.015,0.213l-1.167-0.437l-2.547-1.491
		l-0.632-0.236l-1.951,0.09l-0.548-0.178l0.005-0.014l0.204-0.514l0.499-0.146l0.735-0.067l0.623-0.207l0.174-0.571l-0.009-0.007
		l-0.396-0.319l-0.788-0.09l-0.328,0.017l-0.004-0.02l-0.053-0.259l-0.374-1.298l-0.1-0.779l0.12-1.011l0.154-1.055l0.033-0.671
		l-0.013-0.312l-0.047-0.286l-0.608-0.54l-2.234-0.672l-0.497-0.052l-0.307-0.254l-0.842-1.228l-0.608-0.44l-0.428,0.383
		l-0.47,0.583l-0.728,0.074l-2.601-0.552l-2.013-0.674l-1.229,0.079l-0.864,0.156l-1.022-0.165l-0.401-0.133l-0.347-0.184
		l-1.732-2.367l-0.387-0.659l-0.361-0.417l-0.477-0.276l-2.254-0.771l-0.695-0.051l-0.474,0.069l-0.214,0.157l-0.428-0.05
		l-0.568-0.202l-1.165-0.597l-0.454-0.018l-0.26,0.171l-0.074,0.999l-0.18-0.11l-0.427-0.61l-0.944-1.815l-1.283-1.936l1.242-1.22
		l-0.681-1.426l-0.517-0.682l-0.04-0.389l0.183-0.326l1.403-1.299l0.541-0.39l0.559-0.833l4.458-1.19l1.43,0.718l1.799-0.858
		l0.501-0.15h0.942l1.038,0.078l1.182-0.113l5.645,1.366l0.755,0.085l0.708-0.138l2.587-0.106l0.65-0.12l0.26-0.116l0.194-0.11
		l0.327-0.307l1.029-4.73l0.248-0.924l2.478-0.754l1.586-0.224l0.325-0.262l0.494-1.497l0.227-0.412l0.788-0.635l0.574,0.391
		l1.234,1.935l0.9,0.565l1.22,0.359l2.294,0.223l0.223,0.171l0.12,0.235l0.022,0.291l-0.071,0.344l-0.009,1.305l0.779,0.402
		l1.069,0.073l0.833,0.323l1.848,2.88l1.336,1.461l1.67,0.733l1.853,0.223l5.554-0.502l1.661,0.452l0.187,1.663l-0.116,0.944
		l0.552-0.082l1.995-1.393l3.189-1.475l0.69,0.469l0.597,0.833l0.873,0.619l2.539-0.161L769.414,338.372z"/>
	<path class="st3" d="M594.403,373.29l-1.363-0.688l-0.982-0.163l-7.01,1.086l-0.857,0.354l-1.499,0.859l-1.009,0.134l-2.496-0.436
		l-0.958,0.087l-2.395,0.633l-0.016-0.018l-0.013-0.014l-0.514-0.996l0.14-0.476l0.18-0.401l0.595-2.144l0.174-0.4l0.18-0.301
		l0.203-0.282l0.227-0.39l-0.047-0.122l-0.189-0.009l-12.911,3.194l-9.796-0.215l-1.183-0.192l-0.16-0.212l-0.254-0.433
		l-0.183-0.453l-0.174-1.538l0.12-0.89l0.174-0.771l5.09-11.663l-0.116-0.713l-0.407,0.036l-0.768,0.241l-0.721,0.086l-0.234-0.21
		l-0.096-0.292l0.283-2.1l0.053-1.345l0.1-0.288l0.2-0.167l0.247-0.108l0.561-0.133l2.367-0.405l0.574-0.605l0.1-2.281l3.336,1.752
		l5.077,2.662l0.071-0.143l0.071-0.143l0.263-0.269l0.267-0.269l0.325,0.017l0.325,0.018l0.167-0.199l0.154-0.199l0.12-0.245
		l0.12-0.245l0.2-0.137l0.203-0.134l0.247,0.044l0.249,0.044l0.862,0.427l0.857,0.427l0.579,0.088l0.575,0.082l0.454-0.272
		l0.461-0.272l0.136-0.371l0.129-0.371l-0.419-0.219l-0.412-0.222l0.523-0.856l0.526-0.863l0.04-0.19l0.044-0.19l-0.185-0.316
		l-0.185-0.313l-0.147-0.351l-0.143-0.345l-0.076-0.363l-0.08-0.363l0.022-0.354l0.018-0.351l-0.539-0.129l-0.548-0.129
		l-0.209-0.117l-0.205-0.117l-0.178-0.225l-0.178-0.228l-0.143-0.527l-0.14-0.539l-0.22-2.372l-0.214-2.374l0.076-0.437l0.085-0.437
		l0.118-0.141l0.122-0.147l0.134-0.106l0.143-0.103l0.142-0.323l0.136-0.32l0.029-0.273l0.027-0.276l-0.058-0.637l-0.054-0.634
		l0.005-0.311l0.009-0.314l0.091,0.056l0.1,0.053l0.2,0.079l0.205,0.079l0.094,0.065l0.098,0.062l0.236-0.669l0.236-0.663
		l0.597-0.411l0.601-0.411l0.93-0.407l2.183,2.009l0.343,0.495l0.14,0.574l0.058,1.345l0.109,0.417l0.229,0.147l0.381-0.285
		l0.187-0.006l0.127,0.38l0.14,0.981l0.702-0.284l0.949,0.169l0.938,0.418l0.648,0.474l0.385,0.501l0.501,0.966l0.318,0.434
		l0.294,0.224l1.149,0.585l0.474,0.372l0.232,0.296l0.445,0.917l0.04,0.249l-0.08,0.662l0.04,0.249l0.287,0.281l0.301,0.015
		l0.305-0.05l0.31,0.105l0.583,0.542l0.477,0.694l0.098,0.764l-0.57,0.743l0.666,0.398l0.606-0.196l0.601-0.404l0.657-0.219
		l0.407,0.243l-0.16,0.573l-0.69,1.151l1.817-0.351l0.795,0.066l0.508,1.412l0.788,0.658l0.212,0.532l-0.16,0.483l-0.706,0.678
		l-0.016,0.419l0.334,0.206l0.427-0.314l0.454-0.462l0.414-0.238l0.39,0.18l0.269,0.4l0.018,0.4l-1.087,0.491l-0.412,0.781
		l-0.488,2.027l0.483-0.053l0.463,0.032l0.428,0.149l0.392,0.292l-0.813,0.452l0.089,0.456l0.452,0.43l0.272,0.36l0.087,0.456
		l0.156,0.494l0.071,0.506l-0.18,0.487l-0.612,0.802l-0.238,0.42l-0.256,0.571l-0.111,0.385l-0.902,5.164l0.615,1.555l0.281,0.47
		l0.08,0.823l-0.615,2.235l-0.227,0.736L594.403,373.29z M575.728,393.964l0.11-0.573l0.013-0.861l0.227-0.491l0.134-0.399
		l0.06-0.321l-0.127-0.214l-0.214-0.178l-0.768-0.493l-0.2-0.191l-0.087-0.22l0.033-0.227l0.347-0.21l0.267,0.033l0.227,0.134
		l0.174,0.22l0.14,0.223l0.154-0.023l0.154-0.299l0.134-1.85l-0.033-0.521l-0.06-0.304l-0.14-0.538l-0.354-1.007l-0.094-0.2
		l-0.027-0.055l-0.134-0.308l-0.167-0.52l-0.06-0.313l-0.013-0.371l0.04-0.423l0.18-0.616l0.668-1.21l1.841-2.44l10.088-1.968
		l2.009,1.448l0.281,0.786l0.138,0.858l-0.067,0.818l-0.352,0.687l-0.98,0.159l-3.135-0.493l-0.873,0.281l-1.528,1.333l-0.557,0.177
		l-0.98-1.753l-0.677-0.545l-0.559,1.032l0.091,0.504l0.766,0.614l0.147,0.426l-0.091,1.15l0.065,0.527l0.214,0.562l3.794,5.231
		l0.145,1.243l-1.833,0.766l-0.987-1.523l-0.657-2.42l-0.877-1.921l-0.9-0.622l-0.296,0.437l0.154,1.048l0.416,1.209l0.964,2.053
		l-0.011,0.786l-0.523,1.072l-0.163,0.113l-0.452,0.078l-0.147,0.09l-0.307,0.841l0.009,0.078l-0.004,0.28l-0.094,0.555
		l-0.289,0.364l-0.579-0.297l-1.149-1.872l-0.708-0.535l-1.465,1.303L575.728,393.964z"/>
	<path class="st4" d="M575.834,375.159l-1.755,0.464l-0.9,0.63l1.113,1.23l1.928,1.21l1.523,0.586l0.409-0.08l-1.841,2.44
		l-0.668,1.21l-0.18,0.616l-0.04,0.423l0.013,0.371l0.06,0.313l0.167,0.52l0.134,0.308l0.027,0.055l0.094,0.2l0.354,1.007
		l0.14,0.538l0.06,0.304l0.033,0.521l-0.134,1.85l-0.154,0.299l-0.154,0.023l-0.14-0.223l-0.174-0.22l-0.227-0.134l-0.267-0.033
		l-0.347,0.21l-0.033,0.227l0.087,0.22l0.2,0.191l0.768,0.493l0.214,0.178l0.127,0.214l-0.06,0.321l-0.134,0.399l-0.227,0.491
		l-0.013,0.861l-0.11,0.573l-0.109-0.045l-0.499-0.038l-0.445,1.202l-0.432,9l-0.236,1.34l-0.575,1.097l-1.038,1.091l-1.839,1.172
		l-0.583,0.834l0.149,0.342l0.306,0.704l0.008,0.018l-0.851,0.391l-2.648,0.702l-2.14,0.201l-2.113-0.152l-3.521-1.26l-6.449-0.198
		l-14.724-3.813l-2.022-0.043l-1.601,0.515l-4.01,2.867l-3.445,0.541l-0.853,0.831l0.298,2.467l-0.147,0.198l-0.178,0.164
		l-0.2,0.103l-0.214,0.049l-1.109-0.152l-0.655,0.08l-3.255-2.886l-1.797-1.591l-0.61-0.717l-0.441-0.924l0.093-3.859l0.14-0.438
		l0.247-0.527l0.588-0.133l1.305-0.04l0.361-0.052l0.387-0.158l0.187-0.254l0.094-0.341l0.036-0.665l-0.013-0.314l-0.102-0.575
		L521,400.417l-0.06-0.385l-0.02-0.495l0.047-0.818l0.089-0.388l0.085-0.237l0.35-0.346l0.668-0.494l1.338-0.707l0.928-0.341
		l1.162-0.261l0.336-0.026l0.661-0.181l0.167-0.439l-1.165-5.213l-0.721-1.16l-7.462-1.396l-1.015-0.129l-0.423,0.159l-0.394-0.058
		l-0.301-0.148l-0.701-0.453l-0.294,0.019l-0.301,0.085l-0.69,0.043l-0.494-0.065l-3.396-0.935l-0.51-0.863l-0.2,0.075l-0.194,0.032
		l-0.581,0.22l-1.499-1.662l-0.067-0.297l-0.013-0.459l0.134-0.368l-0.033-0.765l-0.214-0.348l-0.301-0.216l-0.334-0.052
		l-0.274,0.01l-0.214,0.055l-0.824,0.417l-0.267,0.087l-0.341,0.055l-0.367-0.023l-0.494-0.122l-0.2-0.245l-0.14-0.285l-0.194-2.523
		l0.033-0.3l0.113-0.257l0.227-0.135l0.808-0.268l0.22-0.18l0.127-0.181l0.187-0.508l0.027-1.3l-1.176-1.445l-0.14-0.45l0.02-0.409
		l0.1-0.328l0.04-0.395l-0.147-0.244l-0.214-0.198l-0.884-0.427l-0.341-0.241l-0.147-0.288l-0.1-0.289l-0.608-2.918l-0.1-0.944
		l-0.073-2.649l0.013-0.38l0.047-0.355l0.087-0.335l0.374-0.859l0.247-0.822l0.047-0.775l-0.094-0.536l-0.167-0.539l-0.334-0.713
		l-0.22-0.36l-0.234-0.166l-0.254,0.023l-1.138,0.245l-0.982,0.047l-0.697-0.105l-0.695-0.192l-1.79-0.521l-5.431-0.203
		l-0.341-0.251l6.594-12.824l1.209-3.02l-0.942-1.685l-0.394-0.989l-0.073-0.261v-0.953l0.107-1.019l0.013-0.559l-0.02-0.415
		l-0.087-0.26l-0.154-0.216l-0.236-0.189l-3.897-1.062l-0.595-0.33l-0.26-0.186l-0.363-0.44l-0.241-0.484l-0.107-0.261l-0.073-0.311
		l-0.735-7.932l0.541-0.706l0.361-0.889l5.271-2.141l0.017-0.194l0.698,0.182l1.775,0.46l5.004-0.3l4.204-0.247l6.284-0.377
		l4.607-0.277l5.498-0.327l3.501-0.212l5.589-0.339l5.511-0.327l0.492,0.138l0.49,0.136l0.909,0.475l0.904,0.471l0.472,0.168
		l0.472,0.165l0.414-0.059l0.414-0.062l1.247-0.825l1.247-0.828l0.545-0.354l0.55-0.354l0.263,0.814l0.256,0.811l0.056,0.038
		l0.049,0.038l0.151,0.318l0.151,0.315l0.949,1.252l0.953,1.246l0.218,0.507l0.218,0.506l0.169,1.101l0.174,1.103l0.281,0.468
		l0.289,0.468l0.256-0.212l0.261-0.215l0.276-0.132l0.272-0.126l0.263,0.038l0.267,0.044l0.236,0.303l0.227,0.3l0.298-0.638
		l0.298-0.638l0.459-0.044l0.463-0.047l0.085,0.606l0.08,0.603l0.004,0.065l0.007,0.062l-0.056,0.262l-0.053,0.265l0.205,0.068
		l0.207,0.068l0.065,0.059l0.058,0.056l-0.494,0.365l-0.501,0.365l-0.18,0.091l-0.187,0.091l0.176,0.097l0.176,0.094l0.107,0.135
		l0.1,0.135l0.176,0.332l0.178,0.332l-0.004,0.814l-0.009,0.808l-0.209,0.955l-0.214,0.957l-0.321,0.928l-0.316,0.93l-0.334,0.74
		l-0.33,0.736l-0.234,0.373l-0.243,0.372l-0.318,0.358l-0.318,0.358l-0.354,0.282l-0.358,0.287l-0.757,0.343l-0.757,0.34
		l-0.191,0.176l-0.196,0.176l-0.067,0.223l-0.069,0.223l0.143,0.1l0.14,0.102l0.855,0.185l0.851,0.182l0.655,0.372l0.657,0.369
		l1.971,1.954l1.969,1.95l1.443,1.138l1.452,1.141l1.741,0.914l-0.1,2.281l-0.574,0.605l-2.367,0.405l-0.561,0.133l-0.247,0.108
		l-0.2,0.167l-0.1,0.288l-0.053,1.345l-0.283,2.1l0.096,0.292l0.234,0.21l0.721-0.086l0.768-0.241l0.407-0.036l0.116,0.713
		l-5.09,11.663l-0.174,0.771l-0.12,0.89l0.174,1.538l0.183,0.453l0.254,0.433l0.16,0.212l1.183,0.192l9.796,0.215l12.911-3.194
		l0.189,0.009l0.047,0.122l-0.227,0.39l-0.203,0.282l-0.18,0.301l-0.174,0.4l-0.595,2.144l-0.18,0.401l-0.14,0.476l0.514,0.996
		l0.013,0.014L575.834,375.159z"/>
	<path class="st1" d="M523.855,414.173l-0.396,0.506l-0.539,2.14l-0.285,2.234l-0.047,2.049l-0.546,1.867l-0.325,1.84l-0.285,0.103
		l-0.387-0.12l-0.459,0.152l-0.083,0.074l-10.301-2.592l-2.294-0.108l-0.013,0.283l0.067,0.546l0.007,0.278l-0.033,0.279
		l-0.094,0.288l-0.16,0.239l-0.207,0.188l-0.234,0.115l-0.521,0.112l-4.761,0.186l-0.617-0.126l-0.314-0.122l-0.281-0.156
		l-0.24-0.188l-0.167-0.328l-0.06-0.45l0.073-0.849l0.274-1.542l-0.16-0.773l-0.862-1.644l-0.924-0.141l-3.663-0.724l-3.391-0.551
		l-0.568,0.006l-0.775,0.227l-0.67,0.375l-0.354,0.296l-0.274,0.293l-1.396,2.131l-0.41,0.396l-3.222,1.299l-0.347,0.031
		l-0.561-0.149l-0.69-0.354l-2.548-2.038l-1.102-0.694l-0.815,0.049l-6.219,1.435l-0.214,0.013l-4.113,2.029l-0.902,0.591
		l-0.675,0.227l-1.539,0.004l-2.882-0.773l-0.281-0.209l-0.196-0.34l-0.098-0.638l-0.036-0.416l-0.004-0.37l0.058-0.874
		l-0.013-0.855l-0.134-0.339l-0.127-0.258l-1.089-0.834l-1.278-0.884l-2.254-2.195l-0.468-0.649l-0.234-0.405v-0.012l-0.02-0.029
		l-0.1-0.286l-0.414-1.81l-0.107-0.24l-0.147-0.223l-0.194-0.19l-0.22-0.141l-0.281-0.098l-0.41-0.066l-1.356-0.049l-0.468,0.082
		l-0.361,0.249l-0.089,0.276l-0.04,0.298l0.036,0.844l-0.013,0.282l-0.062,0.282l-0.147,0.246l-0.194,0.211l-0.902,0.661
		l-0.931,0.489l-0.501,0.164l-18.4-0.468l-2.3-4.578l-0.528-1.652l0.04-0.337l1.269-2.866l0.113-0.445l0.1-0.517l0.04-0.821
		l-0.053-0.435l-1.303-4.693l-0.376-0.524l-0.314-0.359l-0.855-0.762l-1.285-1.454l-0.327-0.706l0.073-0.272l0.196-0.205l0.272-0.15
		l0.39-0.1l2.127-0.296l2.594-0.679l0.327-0.236l0.361-0.331l0.16-0.967l0.107-0.337l0.227-0.395l0.267-0.123l0.314,0.026
		l1.452,0.827l1.285,0.567l1.202,0.184l1.229-0.016l0.563-0.175l0.374-0.262l0.28-0.671l0.735-2.896l0.12-0.334l0.684-1.469
		l0.16-0.46l0.033-0.303l-0.053-0.259l-0.18-0.213l-0.24-0.143l-0.29-0.084l-0.294-0.04l-0.147-0.201l0.033-0.368l1.105-1.649
		l0.14-0.265l0.08-0.188l0.08-0.258l0.06-0.29l0.08-1.139L440,378.826l0.033-0.293l0.12-0.36l0.26-0.531l0.254-0.276l0.28-0.139
		l0.628,0.038l3.932,1.758l0.855,0.165l0.143,0.071l0.434,0.083l1.107,1.551l0.675,0.715l1.748,0.625l0.817,0.646l0.842,0.435
		l0.902-0.3l1.871,1.194l1.822,0.375l9.297-1.989l0.479-0.254l2.781-2.581l0.388-0.473l0.22-0.463l0.007-0.441l-0.114-0.357
		l-0.254-0.334l-0.314-0.16l-0.408-0.064l-0.381,0.019l-0.817,0.148l-0.314-0.028l-0.187-0.104l-0.08-0.303l0.087-0.431l1.118-2.624
		l0.334-1.275l0.267-0.729l0.374-0.715l1.078-1.549l0.214-0.39l0.053-0.538l-0.664-0.558l-0.154-0.281l-0.107-0.417l0.053-0.361
		l0.581-1.269l0.303-1.228l-0.156-2.015l-0.468-1.334l0.013-0.42l0.214-0.337l0.837-0.405l0.314-0.29l0.341-0.656l0.027-0.432
		l-0.194-0.455l-0.301-0.49l-0.381-0.983l0.013-0.925l0.127-0.89l0.554-1.539l0.354-0.712l0.394-0.643l0.501-0.571l0.53-0.393
		l0.568-0.19l0.608,0.076l0.641,0.31l0.891,0.665l0.782,0.44l0.764,0.308l0.701,0.101l0.855-0.117l1.009-0.462l3.111-2.121
		l0.408-0.164l0.381,0.056l0.488,0.266l1.211,1.069l1.47,1.696l0.12,0.231l0.062,0.25l-0.036,0.533l-0.254,0.895l-0.007,0.254
		l0.047,0.204l0.094,0.242l0.147,0.263l0.49,0.648l0.842,0.826l0.341,0.251l5.431,0.203l1.79,0.521l0.695,0.192l0.697,0.105
		l0.982-0.047l1.138-0.245l0.254-0.023l0.234,0.166l0.22,0.36l0.334,0.713l0.167,0.539l0.094,0.536l-0.047,0.775l-0.247,0.822
		l-0.374,0.859l-0.087,0.335l-0.047,0.355l-0.013,0.38l0.073,2.649l0.1,0.944l0.608,2.918l0.1,0.289l0.147,0.288l0.341,0.241
		l0.884,0.427l0.214,0.198l0.147,0.244l-0.04,0.395l-0.1,0.328l-0.02,0.409l0.14,0.45l1.176,1.445l-0.027,1.3l-0.187,0.508
		l-0.127,0.181l-0.22,0.18l-0.808,0.268l-0.227,0.135l-0.113,0.257l-0.033,0.3l0.194,2.523l0.14,0.285l0.2,0.245l0.494,0.122
		l0.367,0.023l0.341-0.055l0.267-0.087l0.824-0.417l0.214-0.055l0.274-0.01l0.334,0.052l0.301,0.216l0.214,0.348l0.033,0.765
		l-0.134,0.368l0.013,0.459l0.067,0.297l1.499,1.662l0.581-0.22l0.194-0.032l0.2-0.075l0.51,0.863l3.396,0.935l0.494,0.065
		l0.69-0.043l0.301-0.085l0.294-0.019l0.701,0.453l0.301,0.148l0.394,0.058l0.423-0.159l1.015,0.129l7.462,1.396l0.721,1.16
		l1.165,5.213l-0.167,0.439l-0.661,0.181l-0.336,0.026l-1.162,0.261l-0.928,0.341l-1.338,0.707l-0.668,0.494l-0.35,0.346
		l-0.085,0.237l-0.089,0.388l-0.047,0.818l0.02,0.495l0.06,0.385l0.073,0.281l0.102,0.575l0.013,0.314l-0.036,0.665l-0.094,0.341
		l-0.187,0.254l-0.387,0.158l-0.361,0.052l-1.305,0.04l-0.588,0.133l-0.247,0.527l-0.14,0.438l-0.093,3.859l0.441,0.924l0.61,0.717
		l1.797,1.591L523.855,414.173z"/>
	<path class="st5" d="M520.503,425.017l-0.322,0.287l-0.205,0.246l-0.089,0.387l-0.074,0.791l0.317,2.189l0.002,0.013l1.211,1.126
		l5.206,1.855l3.505,0.132l1.701,0.684l0.187,0.214l0.343,0.618l0.24,0.259l0.294,0.051l0.717-0.153l0.276,0.089l0.388,0.661
		l0.006,0.011l0.08,0.758l-0.49,4.288l0.214,1.346l0.002,0.012l0.044,0.044l-0.639,0.487l-0.777,0.314l-3.129,0.138l-0.548,0.14
		l-0.503,0.21l-0.254,0.151l-0.26,0.225l-0.314,0.322l-0.254,0.391l-0.113,0.411l0.007,0.465l0.321,1.284l0.247,1.968l1.051,1.903
		l0.087,0.236l0.06,0.282l-0.013,0.316l-0.047,0.347l-0.087,0.316l-0.053,0.333l-0.02,0.29v0.288l0.027,0.285l0.06,0.279
		l0.087,0.265l0.134,0.563l0.027,0.304v0.316l-0.12,0.41l-0.22,0.439l-0.448,0.684l-0.203,0.455l-0.107,0.406l-0.007,0.962
		l-0.073,0.26l-0.154,0.19l-0.301-0.046l-0.227-0.136l-0.782-0.838l-0.18-0.145l-0.229-0.139l-0.281-0.122l-0.635-0.182
		l-0.681-0.084l-0.621,0.027l-0.543,0.139l-0.621,0.28l-0.407,0.314l-0.274,0.267l-0.234,0.281l-2.574,5.006l-0.437,0.589
		l-0.768,0.777l-0.407,0.329l-0.655,0.345l-1.706,0.413l-0.354,0.803l-0.468,0.788l-0.771,0.842l-1.61,1.331l-0.241,0.341
		l-0.281,0.698l-0.236,0.938l-0.468,2.814l-0.334,1.3l-0.12,0.291l-0.548,0.6l-4.774,3.821l-2.461,1.375l-0.501,0.148l-1.565,0.256
		l-0.347,0.257l-0.394,0.463l-0.664,1.118l-0.461,1.085l-0.16,0.628l-0.234,0.674l-0.281,0.655l-0.321,0.581l-5.255,4.905
		l-0.356,0.465l-0.26,0.903l-0.221,2.137l-0.234,0.737l-0.675,1.327l-1.281,0.826l-0.525-1.483l-0.004-0.003l-0.009-0.007
		l-1.45-1.033l-1.561-0.756l-1.648-0.449l-3.296-0.02l-1.341-0.403l-4.369-2.046l-2.004-2.528l-1.265-1.202l-1.407-0.652
		l-2.795-0.795l-2.67-2.143l-1.211-0.637l-2.846-0.457l-4.342-2.098l-1.456-0.13l-1.229,0.5l-2.084,1.675l-1.111,0.627l-2.955,0.24
		l-2.908-0.968l-7.09-4.786l-4.284-2.893l-5.812-3.934l-4.071-3.707l-5.736-5.214l-2.895-1.817l-6.342-2.235l-5.536-3.198
		l-9.074-7.645l-2.445-3.167l0.005-0.005l0.668-0.699l3.933-4.297l2.02-1.388l5.93-2.38l2.314-0.837l7.168-2.596l0.247-0.145
		l0.2-0.226l0.1-0.463l-0.033-0.32l-0.12-0.276l-0.147-0.22l-1.378-1.69l-0.301-0.44l-0.207-0.477l-0.067-0.256l-0.047-0.266v-0.286
		l0.047-0.304l0.261-0.47l0.416-0.563l3.282-3.574l0.254-0.199l0.321-0.152l0.528-0.062l0.394,0.03l0.51-0.186l0.541-0.419
		l4.32-4.314l2.033-1.534l4.258-1.004l0.817-0.527l18.4,0.468l0.501-0.164l0.931-0.489l0.902-0.661l0.194-0.211l0.147-0.246
		l0.062-0.282l0.013-0.282l-0.036-0.844l0.04-0.298l0.089-0.276l0.361-0.249l0.468-0.082l1.356,0.049l0.41,0.066l0.281,0.098
		l0.22,0.141l0.194,0.19l0.147,0.223l0.107,0.24l0.414,1.81l0.1,0.286l0.02,0.029v0.012l0.234,0.405l0.468,0.649l2.254,2.195
		l1.278,0.884l1.089,0.834l0.127,0.258l0.134,0.339l0.013,0.855l-0.058,0.874l0.004,0.37l0.036,0.416l0.098,0.638l0.196,0.34
		l0.281,0.209l2.882,0.773l1.539-0.004l0.675-0.227l0.902-0.591l4.113-2.029l0.214-0.013l6.219-1.435l0.815-0.049l1.102,0.694
		l2.548,2.038l0.69,0.354l0.561,0.149l0.347-0.031l3.222-1.299l0.41-0.396l1.396-2.131l0.274-0.293l0.354-0.296l0.67-0.375
		l0.775-0.227l0.568-0.006l3.391,0.551l3.663,0.724l0.924,0.141l0.862,1.644l0.16,0.773l-0.274,1.542l-0.073,0.849l0.06,0.45
		l0.167,0.328l0.24,0.188l0.281,0.156l0.314,0.122l0.617,0.126l4.761-0.186l0.521-0.112l0.234-0.115l0.207-0.188l0.16-0.239
		l0.094-0.288l0.033-0.279l-0.007-0.278l-0.067-0.546l0.013-0.283l2.294,0.108L520.503,425.017z"/>
	<path class="st2" d="M534.058,440.924l0.744,0.738l5.509,0.894l1.158-0.02l3.271-1.104l0.004-0.001v-0.004h0.011l0.575-0.287
		l0.606-0.163l0.619,0.006l0.726,0.25l0.339,0.2l0.664,0.643l0.708,0.134l0.717-0.26l0.717-0.528l0.339-0.087l0.352-0.031
		l0.352,0.031l0.336,0.087h0.009l0.007,0.009l0.009,0.001l0.659,0.8l1.454,3.217l0.806,1.19l0.445,0.658l0.43,1.111l-0.049,1.215
		l-0.383,0.917l-0.534,0.744l-0.659,0.585l-0.73,0.43l-1.009,0.208l-0.764-0.026l-0.481,0.299l-0.147,1.192l0.129,0.556l0.254,0.488
		l0.192,0.509l-0.031,0.618l-0.223,0.337l-1.089,0.772l-0.339,0.828l0.116,1.006l0.577,2.056l0.094,1.11l-0.145,3.155l0.114,1.205
		l0.321,0.726l1.047,1.593l0.245,0.836l0.089,1.743l0.147,0.797l0.41,0.776l1.688,1.617l1.594,2.914l0.737,0.755l2.234,1.255
		l3.42,3.048l1.042,1.66l0.191,2.105l-0.704,3.198l-1.069,3.012l-1.679,2.559l-0.517,1.037l-0.004,0.004v0.007l-0.005,0.004
		l-0.004,0.004l-0.323,0.928l-0.196,0.828l-0.323,0.686l-0.461,0.339l-0.216,0.158l-0.659,0.202l-2.009,0.273l-1.343,0.456
		l-0.764,0.781l-1.835,5.547l-1.269,2.49l-3.14,4.376l-2.325,2.22l-2.22,2.816l-1.837,3.186l-1.207,3.326l-0.167,2.271l0.855,4.267
		l0.149,2.273l-0.225,1.94l-0.494,1.827l-0.813,1.609l-0.196,0.792l-0.196-1.006l-0.505-0.718l-0.762-0.459l-0.893-0.223
		l-1.539,0.07l-0.546-0.07l-0.477-0.241l-0.94-0.712l-0.494-0.153l-0.49,0.061l-0.822,0.251l-0.45,0.058l-0.269,0.247l-0.263,0.536
		l-0.334,0.512l-0.466,0.175l-0.706-0.626l-0.813-2.23l-0.991-0.489l-0.895,0.248l-0.793,0.598l-1.416,1.429l-0.855,0.639
		l-0.866,0.448l-0.933,0.264l-1.047,0.089l-1.104,0.248l-1.643,1.065l-0.962,0.189l-0.964-0.391l-0.494-0.824l-0.314-1l-0.432-0.927
		l-0.868-0.797l-1.911-0.734l-0.868-0.545l-0.405-0.821l-0.713-2.342l-0.53-0.488l-0.904-0.266l-1.724-1.237l-0.784-0.372
		l-2.08-0.045l-3.959,0.933l-5.636,0.25l-0.454,0.17l-0.848,0.735l-0.459,0.169l-1.167-0.049l-0.532-0.099l-2.848-1.205l-1.033-0.12
		l-1.102,0.086l-0.837,0.265l-1.067-0.823l0.094-0.989l0.65-0.923l0.806-0.828l0.681-1.116l-0.169-0.863l-0.684-0.736l-0.848-0.728
		l-0.588-1.535l0.16-1.931l0.944-3.648l0.165-2.156l-0.343-4.255l0.165-2.129l1.501-2.677l2.387-3.108l1.583-3.085l-0.399-1.126
		l1.281-0.826l0.675-1.327l0.234-0.737l0.221-2.137l0.26-0.903l0.356-0.465l5.255-4.905l0.321-0.581l0.281-0.655l0.234-0.674
		l0.16-0.628l0.461-1.085l0.664-1.118l0.394-0.463l0.347-0.257l1.565-0.256l0.501-0.148l2.461-1.375l4.774-3.821l0.548-0.6
		l0.12-0.291l0.334-1.3l0.468-2.814l0.236-0.938l0.281-0.698l0.241-0.341l1.61-1.331l0.771-0.842l0.468-0.788l0.354-0.803
		l1.706-0.413l0.655-0.345l0.407-0.329l0.768-0.777l0.437-0.589l2.574-5.006l0.234-0.281l0.274-0.267l0.407-0.314l0.621-0.28
		l0.543-0.139l0.621-0.027l0.681,0.084l0.635,0.182l0.281,0.122l0.229,0.139l0.18,0.145l0.782,0.838l0.227,0.136l0.301,0.046
		l0.154-0.19l0.073-0.26l0.007-0.962l0.107-0.406l0.203-0.455l0.448-0.684l0.22-0.439l0.12-0.41v-0.316l-0.027-0.304l-0.134-0.563
		l-0.087-0.265l-0.06-0.279l-0.027-0.285v-0.288l0.02-0.29l0.053-0.333l0.087-0.316l0.047-0.347l0.013-0.316l-0.06-0.282
		l-0.087-0.236l-1.051-1.903l-0.247-1.968l-0.321-1.284l-0.007-0.465l0.113-0.411l0.254-0.391l0.314-0.322l0.26-0.225l0.254-0.151
		l0.503-0.21l0.548-0.14l3.129-0.138l0.777-0.314L534.058,440.924z"/>
	<path class="st6" d="M162.691,74.313l2.81,1.891l7.415,4.991l8.057,5.408l8.462,5.676l8.653,5.789l8.622,5.767l8.368,5.579
		l7.892,5.258l7.201,4.789l6.28,4.173l5.144,3.412l3.781,2.508l2.686,1.78l1.113,1.251l0.779,1.592l0.276,1.458l0.28,3.106
		l0.419,1.4l2.534,4.071l4.943,5.339l2.36,2.551l2.365,2.552l3.02,3.476l2.472,2.857l2.481,2.856l2.476,2.852l2.476,2.85
		l2.418,2.786l2.423,2.787l2.423,2.782l2.418,2.778l3.233,3.7l0.873,0.376l0.868,0.376l0.095-0.017l4.606,7.872l2.16,1.995
		l11.655,3.225l0.655,0.384l-0.007,0.589l-0.234,0.681l-11.735,22.099l-11.047,21.191l-2.374,5.544l-0.969,12.048v0.713l0.127,0.555
		l4.915,9.039l0.851,1.8l-0.18,0.31l-0.517,0.549l-9.259,5.216l-0.938,0.791l0.027,0.763l0.341,0.783l18.476,25.373l12.25,16.992
		l0.033,0.781l-9.736,4.666l-2.274,0.745l-0.648-0.215l-0.608-0.345l-0.176-0.181l-5.148-8.19l-7.335-8.093l-2.541-1.945
		l-1.946-1.186l-2.084-0.887l-8.233-1.987l-2.334-0.006l-0.848,0.194l-0.784,0.392l-0.661,0.526l-0.688,0.826l-1.712,3.295
		l-0.755,0.576l-1.096,0.105l-1.024-0.4l-0.278-0.167l-0.657-0.326l-0.51-1.667l-0.548-0.829l-2.287-2.544l-0.813-0.478
		l-2.494-0.482l-0.973-0.39l-1.329-1.204l-1.548-1.743l-0.505-0.329l-0.539-0.229l-1.096-0.229l-10.208-9.22l-1.396-1.587
		l-1.111-1.98l-0.733-2.234l-0.488-0.947l-0.679-0.39l-2.066-0.065l-0.902-0.229l-0.748-0.492l-0.606-0.772l-1.207-2.173
		l-0.474-1.474l-1.165-1.79l-0.347-0.909l0.027-2.605l-0.149-1.192l-0.612-0.501l-2.131-0.233l-2.162-0.555l-0.461-0.248
		l-0.92-0.712l-0.699,0.124l-0.254,0.149l-0.822,0.725l-2.2,1.546l-0.888,0.373l-1.171,0.045l-0.675,0.134l-0.294,0.233
		l-0.127,0.264l0.067,0.258l0.087,0.259l0.501,0.981l0.087,0.638l-0.514,1.288l-0.507,0.564l-0.988-1.512l-1.269-1.091l-4.529-1.713
		l-2.236,0.08l-0.615-0.276l-0.477-0.819l0.067-0.763l0.485-0.569l0.762-0.221l0.013,0.004h0.013h0.013l2.556-0.994l-0.134-2.282
		l-0.846-2.843l0.396-2.683l0.708-0.516l0.882-0.364l0.708-0.516l0.147-0.971l-0.526-0.756l-0.998-0.594l-1.911-0.75l-1.51-1.366
		l-1.198-1.871l-1.358-1.491l-1.955-0.219l-1.924,0.234l-3.741-0.339l-9.108,1.402l-2.227-0.066l-1.078-0.414l-1.719-1.851
		l-1.011-0.35l-2.196-0.24l-1.238-0.674l-0.57-1.034l-0.512-4.441l-0.41-1.114l-0.61-0.98l-2.739-2.856l-1.038-0.655l-1.1,0.117
		l-1.251,0.607l-1.242,0.34l-1.265,0.074l-1.919-0.345l-3.028-1.367l-2.886-2.677l-9.272-10.928l-1.051-0.605l-0.797,1.327
		l-0.588,4.962l-0.913,1.699l-1.781,0.528l-2.213-0.139l-2.209-0.516l-4.65-1.883l-1.051-0.035l-0.806,0.255l-2.285,1.399
		l-1.626,0.712l-0.784,0.593l-0.401,0.852l0.245,1.123l0.806,0.725l5.398,2.538l1.519,1.186l1.327,2.036l1.149,2.715l3.198,5.196
		l1.737,2.055l0.49,0.453l0.196,0.512l-0.151,0.473l-0.535,0.324l-2.77,0.42l-0.704-0.18l-0.508-0.781l0.013-0.902l0.232-0.995
		l0.147-1.061l-0.441-2.068l-1.109-1.487l-1.461-1.073l-4.28-2.021l-0.944-0.17l-0.779,0.131l-1.563,0.674l-0.699,0.065l-0.69-0.405
		l-0.984-1.466l-0.623-0.617l-0.82-0.289l-0.975-0.03l-0.958,0.179l-0.788,0.366l-0.459,0.582l-0.378,0.678l-1.1,1.263l-1.171,0.522
		l-0.73,0.621l0.245,1.54l0.922,1.984l0.076,0.905l-0.374,1.354l-1.755,4.025l-0.619,0.692l-1.648,0.534l-0.352,0.758l0.312,0.912
		l0.552,0.621l0.134,0.55l-0.949,0.689l-0.828,0.183l-2.944-0.136l-0.833,0.198l-2.383,1.172l-2.004,0.401l-6.097-1.062
		l-4.138,0.168l-4.053,1.981l-3.465,3.406l-2.365,4.44v0.015l-1.612,2.39l-1.773,1.345l-4.137,1.942l-1.216,1.676l-0.013,2.222
		l0.953,4.546l-0.107,2.166l-0.339,1.849l-0.049,1.811l0.771,2.052l0.957,1.575l0.494,1.503l0.16,1.654l-0.031,2.026l0.196,1.587
		l0.579,1.586l0.828,1.411l0.944,1.065l0.61,0.441l0.659,0.325l2.16,0.529l0.33,0.251l-0.094,0.39l-0.485,0.576l-0.917,0.656
		l-2.009,1.004l-0.851,0.978l-1.327,2.418l-0.833,0.484l-5.269-1.098l-4.071-0.856l-9.629-0.523l-1.564-0.085l-8.915-0.485
		l-8.021-0.44l-6.992-0.375l-0.009-13.144l-0.009-13.184l-0.004-13.235l-0.009-13.283l-0.004-13.332l-0.009-13.379l-0.004-13.431
		l-0.009-13.481l-0.004-13.531l-0.009-13.584l-0.004-13.636l-0.009-13.688l-0.004-13.747l-0.009-13.795l-0.004-13.853L30,94.458
		v-0.006v-0.006v-0.006v-0.006v-0.009V94.41v-0.006v-0.006v-0.006l0.004-0.006l0.004-0.006v-0.006v-0.006h0.004v-0.009v-0.006
		l0.004-0.006l0.005-0.006l0.004-0.003l0.005-0.006l0.004-0.003l0.004-0.003v-0.006h0.004l0.004-0.006l0.004-0.003l0.004-0.003
		l0.005-0.003l0.004-0.003h0.005h0.004l0.004-0.006l0.004-0.003h0.004l0.004-0.003l0.004-0.003h0.004l0.004-0.003h0.004l4.035-1.296
		l4.039-1.291l4.035-1.294l4.048-1.298l4.039-1.295l4.039-1.296l4.035-1.296l3.15-1.011l0.889-0.285l4.044-1.297l4.035-1.294
		l4.039-1.298l4.039-1.302l4.044-1.296l4.039-1.303l4.039-1.3l4.04-1.301l5.384-1.648l5.384-1.652l5.389-1.65l5.389-1.654
		l2.489-0.743l2.49-0.737l2.49-0.741l2.499-0.744l2.592-0.747l2.596-0.754l2.596-0.754l2.592-0.751l3.492-1.001l1.011,0.095
		l1.176,0.52l3.309,2.234l0.94,0.64l2.686,1.811l4.195,2.831l5.491,3.704L162.691,74.313z"/>
	<path class="st7" d="M462.522,250.089l-0.134,9.556l-0.154,11.273l0.044,0.311l0.049,0.312l0.183,0.149l0.187,0.142l5.188,0.022
		l4.728,0.018l4.707,0.016l5.204,0.024l0.165-0.024l0.156-0.022l0.165,0.007l0.163,0.006l0.145,0.036l0.147,0.033l0.107,0.063
		l0.107,0.06l0.746,7.293l0.751,7.277l1.372,7.096l1.376,7.085l1.848,8.434l1.839,8.412l0.971,1.173l0.958,1.173l1.074,0.28
		l-0.017,0.194l-5.271,2.141l-0.361,0.889l-0.541,0.706l0.735,7.932l0.073,0.311l0.107,0.261l0.241,0.484l0.363,0.44l0.26,0.186
		l0.595,0.33l3.897,1.062l0.236,0.189l0.154,0.216l0.087,0.26l0.02,0.415l-0.013,0.559l-0.107,1.019v0.953l0.073,0.261l0.394,0.989
		l0.942,1.685l-1.209,3.02l-6.594,12.824l-0.842-0.826l-0.49-0.648l-0.147-0.263l-0.094-0.242l-0.047-0.204l0.007-0.254l0.254-0.895
		l0.036-0.533l-0.062-0.25l-0.12-0.231l-1.47-1.696l-1.211-1.069l-0.488-0.266l-0.381-0.056l-0.408,0.164l-3.111,2.121l-1.009,0.462
		l-0.855,0.117l-0.701-0.101l-0.764-0.308l-0.782-0.44l-0.891-0.665l-0.641-0.31l-0.608-0.076l-0.568,0.19l-0.53,0.393l-0.501,0.571
		l-0.394,0.643l-0.354,0.712l-0.554,1.539l-0.127,0.89l-0.013,0.925l0.381,0.983l0.301,0.49l0.194,0.455l-0.027,0.432l-0.341,0.656
		l-0.314,0.29l-0.837,0.405l-0.214,0.337l-0.013,0.42l0.468,1.334l0.156,2.015l-0.303,1.228l-0.581,1.269l-0.053,0.361l0.107,0.417
		l0.154,0.281l0.664,0.558l-0.053,0.538l-0.214,0.39l-1.078,1.549l-0.374,0.715l-0.267,0.729l-0.334,1.275l-1.118,2.624
		l-0.087,0.431l0.08,0.303l0.187,0.104l0.314,0.028l0.817-0.148l0.381-0.019l0.408,0.064l0.314,0.16l0.254,0.334l0.114,0.357
		l-0.007,0.441l-0.22,0.463l-0.388,0.473l-2.781,2.581l-0.479,0.254l-9.297,1.989l-1.822-0.375l-1.871-1.194l-0.902,0.3
		l-0.842-0.435l-0.817-0.646l-1.748-0.625l-0.675-0.715l-1.107-1.551l-0.434-0.083l-0.143-0.071l-0.855-0.165l-3.932-1.758
		l-0.628-0.038l-0.28,0.139l-0.254,0.276l-0.26,0.531l-0.12,0.36L440,378.826l0.007,0.685l-0.08,1.139l-0.06,0.29l-0.08,0.258
		l-0.08,0.188l-0.14,0.265l-1.105,1.649l-0.033,0.368l0.147,0.201l0.294,0.04l0.29,0.084l0.24,0.143l0.18,0.213l0.053,0.259
		l-0.033,0.303l-0.16,0.46l-0.684,1.469l-0.12,0.334l-0.735,2.896l-0.28,0.671l-0.374,0.262l-0.563,0.175l-1.229,0.016l-1.202-0.184
		l-1.285-0.567l-1.452-0.827l-0.314-0.026l-0.267,0.123l-0.227,0.395l-0.107,0.337l-0.16,0.967l-0.361,0.331l-0.327,0.236
		l-2.594,0.679l-2.127,0.296l-0.39,0.1l-0.272,0.15l-0.196,0.205l-0.073,0.272l0.327,0.706l1.285,1.454l0.855,0.762l0.314,0.359
		l0.376,0.524l1.303,4.693l0.053,0.435l-0.04,0.821l-0.1,0.517l-0.113,0.445l-1.269,2.866l-0.04,0.337l0.528,1.652l2.3,4.578
		l-0.817,0.527l-4.258,1.004l-0.107-1.549l-0.074-0.385l-0.43-1.481l-0.267-0.615l-0.174-0.315l-0.688-0.946l-0.768-0.772
		l-0.65-0.363l-1.029-0.374l-0.831-0.478l-0.347-1.159l-0.14-1.214l-0.013-0.909l-0.354-1.242l-0.788-1.32L413,399.832l-0.387-0.632
		l-0.65-0.134l-1.873,0.858l-0.835-0.049l-0.601-0.3l-0.154-0.473l-0.22-0.508l-0.06-0.323l-2.026-1.117l-1.198-0.823l-3.129-4.326
		l-0.668-1.378l0.608-1.431l0.701-1.552l1.399-1.761l0.154-0.24l0.334-0.352l0.341-0.733l2.632-1.205l0.773-0.548l0.762-0.732
		l0.595-0.832l2.044-4.168l0.657-0.534l0.385-0.014l0.325-0.247l0.267-0.189l0.294-0.073l1.289-0.157l0.053-0.194l-0.18-0.364
		l-0.661-0.838l-1.269-1.288l-0.49-0.797l-0.06-0.224l0.027-0.131l0.207-0.07l0.383-0.366l0.715-2.125l-1.076-1.085l-0.229-1.091
		l0.02-0.495l0.067-0.524l0.12-0.53l0.396-0.486l0.715-0.395l1.499-0.255l0.969-0.009l0.835,0.236l0.871,0.76l0.922,0.617
		l0.982,0.323l5.068,0.052l0.463-0.949l0.975-3.095l0.797-0.746l0.942-1.1l1.149-3.582l0.073-0.705l0.49-0.728l0.334-0.295
		l0.408-0.117l0.427,0.023l2.254,0.482l0.574,0.02l0.033-0.649l-0.16-0.673l-0.094-1.136l-0.013-1.401l0.094-1.486l0.207-1.444
		l1.018-3.513l-2.066,0.597l-13.06-0.904l-4.251-1.042l-1.492-0.852l-1.492-1.24l-0.608-1.667l-0.394-1.505l-0.915-5.711
		l-0.376-1.354l-0.521-0.069l-1.383,1.959l-1.378,0.596l-1.879,0.39l-5.703,0.255l-1.452,0.552l-0.822,0.437l-1.309,5.069
		l-0.971,0.899l-11.668-1.387l-1.826-0.653l-0.595-1.225l-0.073-3.735l-0.221-1.934l-0.882-1.31l-0.844-0.708l-0.808-0.217
		l-0.868,0.3l-0.851,0.686l-0.775,1.117l-2.561,5.346l-3.075,4.576l-5.135,1.796l0.067-1.107l-1.579-1.602l-0.975-1.716
		l-12.967-7.969l-6.64-3.732l-5.663-2.198l-3.81-0.869l-1.031-0.591l-5.81-10.265l-7.248-8.53l-1.064-1.887l-1.37-3.15l-3.632-0.086
		l-15.271,5.783l-18.476-25.373l-0.341-0.783l-0.027-0.763l0.938-0.791l9.259-5.216l0.517-0.549l0.18-0.31l-0.851-1.8l-4.915-9.039
		l-0.127-0.555v-0.713l0.969-12.048l2.374-5.544l11.047-21.191l11.735-22.099l0.234-0.681l0.007-0.589l-0.655-0.384l-11.655-3.225
		l-2.16-1.995l-4.606-7.872l3.559-0.651l1.514-0.281l1.523-0.281l1.523-0.28l1.514-0.278l2.436-0.447l2.432-0.45l2.432-0.45
		l2.432-0.445l3.933-0.638l3.932-0.641l3.933-0.639l3.937-0.64l3.932-0.639l3.933-0.639l3.933-0.639l3.937-0.644l6.565,0.596
		l6.565,0.602l6.569,0.591l6.56,0.596l5.97,0.544l5.979,0.542l5.968,0.545l5.968,0.54l2.374,0.211l0.753-0.216l0.748-0.216
		l4.333-2.4l4.146-2.3l4.278-2.375l4.198-2.334l0.777-0.292l0.773-0.295l0.69,0.107l0.686,0.111l0.717,0.643l0.73,0.649l4.641,6.041
		l4.641,6.035l2.147,2.272l2.142,2.263l4.44,2.783l4.434,2.781l0.853,0.755l0.851,0.755l3.661,7.556l2.338,4.813l3.229,6.637
		l2.766,5.689l0.378,0.042l0.37,0.042l6.219-3.356l6.219-3.363l-0.928,14.55l-0.929,14.489l-0.107,1.534l-0.107,1.535l-0.218,0.501
		l-0.214,0.5l-0.508,0.198l-0.508,0.198l-0.125,0.401l-0.129,0.403L462.522,250.089z"/>
	<path class="st3" d="M209.489,278.953l0.507-0.564l0.514-1.288l-0.087-0.638l-0.501-0.981l-0.087-0.259l-0.067-0.258l0.127-0.264
		l0.294-0.233l0.675-0.134l1.171-0.045l0.888-0.373l2.2-1.546l0.822-0.725l0.254-0.149l0.699-0.124l0.92,0.712l0.461,0.248
		l2.162,0.555l2.131,0.233l0.612,0.501l0.149,1.192l-0.027,2.605l0.347,0.909l1.165,1.79l0.474,1.474l1.207,2.173l0.606,0.772
		l0.748,0.492l0.902,0.229l2.066,0.065l0.679,0.39l0.488,0.947l0.733,2.234l1.111,1.98l1.396,1.587l10.208,9.22l1.096,0.229
		l0.539,0.229l0.505,0.329l1.548,1.743l1.329,1.204l0.973,0.39l2.494,0.482l0.813,0.478l2.287,2.544l0.548,0.829l0.51,1.667
		l0.657,0.326l0.278,0.167l1.024,0.4l1.096-0.105l0.755-0.576l1.712-3.295l0.688-0.826l0.661-0.526l0.784-0.392l0.848-0.194
		l2.334,0.006l8.233,1.987l2.084,0.887l1.946,1.186l2.541,1.945l7.335,8.093l5.148,8.19l0.176,0.181l0.608,0.345l0.648,0.215
		l2.274-0.745l7.035,7.9l1.396,2.165l0.523,1.898l-2.227,4.85l-8.983,11.145l-0.003,0.004l-0.074-0.133l-0.347-1.287l-0.254-0.525
		l-1.603-2.14l-0.581-1.195l-0.888-3.475l-0.49-0.79l-1.421-1.55l-0.472-0.749l-0.343-1.209l-0.494-2.586l-1.356-4.761l-0.481-1.124
		l0.325-0.425l-0.209-0.836l-0.116-4.009l-0.147-1.161l-0.365-0.944l-3.162-5.316l-0.842-0.922l-9.633-7.098l-3.75-1.62
		l-4.191-1.107l-1.59-0.18l-0.966,0.475l-0.583,1.201l-0.419,2.009l-1.056,0.605l-0.819,1.79l-1.211,1.332l-1.487,0.751
		l-1.643,0.056l-1.75-0.713l-4.436-3.154l-0.766-0.024l-2.548,0.437l-0.24-0.519l-0.134-0.51l-0.165-0.133l-0.256,0.439
		l-0.568,0.974l-0.281,0.313l-0.285,0.239l-2.058-2.135l-3.015-0.729l-8.68,0.525l-5.202,1.743l-2.587,0.065l-1.501-0.431
		l-1.238-0.891l-2.338-2.346l-2.601-1.913l-4.146-2.13l-4.716-2.427l-1.211-1.201l-0.298-1.355l0.539-4.595l0.339-0.981l0.561-0.803
		l0.735-0.649l1.782-0.892l0.592-0.724l-0.392-1.055l-2.868-4.067l-1.327-2.557l-0.392-2.008l1.109-1.585l1.185-0.82l1.349-0.116
		l1.621,0.512l1.487,0.943l0.842,0.378l0.677-0.092l0.499-0.748l-0.08-0.818l-0.419-0.795l-0.525-0.665l-0.606-0.517l-2.04-1.211
		l-0.646-0.669L209.489,278.953z"/>
	<path class="st0" d="M297.65,357.034l0.003-0.004l8.983-11.145l2.227-4.85l-0.523-1.898l-1.396-2.165l-7.035-7.9l9.736-4.666
		l-0.033-0.781l-12.25-16.992l15.271-5.783l3.632,0.086l1.37,3.15l1.064,1.887l7.248,8.53l5.81,10.265l1.031,0.591l3.81,0.869
		l5.663,2.198l6.64,3.732l12.967,7.969l0.975,1.716l1.579,1.602l-0.067,1.107l5.135-1.796l3.075-4.576l2.561-5.346l0.775-1.117
		l0.851-0.686l0.868-0.3l0.808,0.217l0.844,0.708l0.882,1.31l0.221,1.934l0.073,3.735l0.595,1.225l1.826,0.653l11.668,1.387
		l0.971-0.899l1.309-5.069l0.822-0.437l1.452-0.552l5.703-0.255l1.879-0.39l1.378-0.596l1.383-1.959l0.521,0.069l0.376,1.354
		l0.915,5.711l0.394,1.505l0.608,1.667l1.492,1.24l1.492,0.852l4.251,1.042l13.06,0.904l2.066-0.597l-1.018,3.513l-0.207,1.444
		l-0.094,1.486l0.013,1.401l0.094,1.136l0.16,0.673l-0.033,0.649l-0.574-0.02l-2.254-0.482l-0.427-0.023l-0.408,0.117l-0.334,0.295
		l-0.49,0.728l-0.073,0.705l-1.149,3.582l-0.942,1.1l-0.797,0.746l-0.975,3.095l-0.463,0.949l-5.068-0.052l-0.982-0.323
		l-0.922-0.617l-0.871-0.76l-0.835-0.236l-0.969,0.009l-1.499,0.255l-0.715,0.395l-0.396,0.486l-0.12,0.53l-0.067,0.524l-0.02,0.495
		l0.229,1.091l1.076,1.085l-0.715,2.125l-0.383,0.366l-0.207,0.07l-0.027,0.131l0.06,0.224l0.49,0.797l1.269,1.288l0.661,0.838
		l0.18,0.364l-0.053,0.194l-1.289,0.157l-0.294,0.073l-0.267,0.189l-0.325,0.247l-0.385,0.014l-0.657,0.534l-2.044,4.168
		l-0.595,0.832l-0.762,0.732l-0.773,0.548l-2.632,1.205l-0.341,0.733l-0.334,0.352l-0.154,0.24l-1.399,1.761l-0.701,1.552
		l-0.608,1.431l0.668,1.378l3.129,4.326l1.198,0.823l2.026,1.117l0.06,0.323l0.22,0.508l0.154,0.473l0.601,0.3l0.835,0.049
		l1.873-0.858l0.65,0.134l0.387,0.632l5.142,2.412l0.788,1.32l0.354,1.242l0.013,0.909l0.14,1.214l0.347,1.159l0.831,0.478
		l1.029,0.374l0.65,0.363l0.768,0.772l0.688,0.946l0.174,0.315l0.267,0.615l0.43,1.481l0.074,0.385l0.107,1.549l-2.033,1.534
		l-4.32,4.314l-0.541,0.419l-0.51,0.186l-0.394-0.03l-0.528,0.062l-0.321,0.152l-0.254,0.199l-3.282,3.574l-0.416,0.563l-0.261,0.47
		l-0.047,0.304v0.286l0.047,0.266l0.067,0.256l0.207,0.477l0.301,0.44l1.378,1.69l0.147,0.22l0.12,0.276l0.033,0.32l-0.1,0.463
		l-0.2,0.226l-0.247,0.145l-7.168,2.596l-2.314,0.837l-5.93,2.38l-2.02,1.388l-3.933,4.297l-0.668,0.699l-0.005,0.005l-1.302-1.688
		l-1.024-0.636l-1.301,0.154l-3.336,1.669l-1.113,0.24l-1.274-0.24l-1.292-0.674l-6.934-4.953l-6.017-4.301l-4.774-3.418
		l-2.619-2.694l-4.632-6.466l-2.734-2.6l-5.986-4.253l-14.207-10.114l-7.001-4.993l-5.874-4.197l-5.042-3.606l-2.49-2.504
		l-0.465-0.266l-3.093-3.893l-0.468-1.497l-0.757-3.15l-0.12-1.288l0.18-1.212l0.358-1.018l0.241-1.016l-0.169-1.196l-1.323-2.87
		l-0.176-1.145l-0.033-1.492l-0.158-1.12l-0.354-1.021l-1.109-2.227l-0.267-1.042l-0.134-2.38l-0.416-0.507l-3.563-2.049
		l-2.046-0.612l-0.931-0.703L297.65,357.034z"/>
	<path class="st7" d="M601.72,316.527l-1.299-0.335l-0.537-0.966l0.249-0.559l-0.038-0.229l-0.691,0.712l-1.074-1.22l-0.307-0.636
		l-0.077-0.712l-0.729,0.432l-0.125-0.122l1.122-2.778l0.345-1.807l2.286-2.302l1.455-0.016l1.017,0.713l1.324,0.178l1.592,1.019
		l0.16,0.926l-0.659,1.136l0.595,0.382l0.441,0.662l-0.307,0.534l0.441,0.458l-1.63,0.814l-2.187,1.983L601.72,316.527z"/>
</g>
<g id="Copyright">
	<text transform="matrix(1 0 0 1 681.6426 577.5916)" class="st8 st9">© Vemaps.com</text>
</g>
</svg>
